<?xml version="1.0" encoding="UTF-8"?>
<svg version="1.1" xmlns="http://www.w3.org/2000/svg" width="512" height="512">
<path d="M0 0 C1.05303853 -0.00664781 2.10607706 -0.01329562 3.19102585 -0.02014488 C6.71918367 -0.03982797 10.24721454 -0.04521511 13.77542114 -0.05052185 C16.30516898 -0.06141741 18.83491358 -0.07308916 21.36465454 -0.08547974 C28.9529039 -0.11916276 36.54112484 -0.13580788 44.12943238 -0.14960304 C47.70573877 -0.15657193 51.28203942 -0.16572691 54.85834122 -0.17471123 C66.74988106 -0.20390264 78.64141531 -0.22869911 90.53298759 -0.23933506 C91.67361832 -0.2403711 91.67361832 -0.2403711 92.83729208 -0.24142807 C93.98059854 -0.2424661 93.98059854 -0.2424661 95.1470021 -0.24352509 C96.69143606 -0.24493707 98.23587001 -0.24635788 99.78030396 -0.24778748 C100.54639107 -0.24849265 101.31247819 -0.24919782 102.10178007 -0.24992435 C114.51833533 -0.26217796 126.9345855 -0.30498494 139.35101412 -0.36072768 C152.10683151 -0.41752823 164.86249464 -0.44798643 177.61843979 -0.45234722 C184.77735252 -0.45542725 191.93584089 -0.46989386 199.0946312 -0.51362801 C205.82699698 -0.55464268 212.55844737 -0.55980387 219.29095459 -0.54072762 C221.76128644 -0.53945986 224.23165791 -0.55016625 226.70187759 -0.57374191 C230.07595167 -0.60410564 233.44722283 -0.59124221 236.82128906 -0.56762695 C237.79775827 -0.5866526 238.77422748 -0.60567825 239.78028667 -0.62528044 C246.15309118 -0.51914865 249.33748057 0.98877983 253.85454011 5.48892492 C254.40995917 6.08249196 254.96537823 6.676059 255.53762817 7.28761292 C256.34084975 8.04930692 257.14407133 8.81100092 257.97163296 9.59577656 C258.64877378 10.27254035 259.32591459 10.94930414 260.02357483 11.64657593 C260.81564331 12.43582458 261.60771179 13.22507324 262.42378235 14.03823853 C263.26306778 14.87954819 264.10235321 15.72085785 264.96707153 16.58766174 C265.87371552 17.49255341 266.7803595 18.39744507 267.71447754 19.32975769 C270.1770621 21.7878239 272.63652225 24.24899331 275.09525371 26.71091294 C277.67574175 29.29394912 280.25868722 31.87452615 282.8412323 34.45550537 C287.1693192 38.78177967 291.49530784 43.11014366 295.82009888 47.43971252 C300.82162221 52.44669741 305.82676562 57.45004191 310.83376402 62.45155126 C315.14062875 66.75388352 319.44554878 71.05815438 323.74883753 75.36406344 C326.31592408 77.93270937 328.88368253 80.50067381 331.45319939 83.06688881 C334.30964584 85.91991974 337.16200255 88.77700506 340.01394653 91.63453674 C340.86740158 92.48596756 341.72085663 93.33739838 342.60017395 94.21463013 C343.37250366 94.98977966 344.14483337 95.7649292 344.94056702 96.56356812 C345.61506866 97.23844678 346.28957029 97.91332544 346.98451138 98.60865498 C349.95174334 101.81630662 349.66530158 104.26489973 349.67184925 108.53687382 C349.67420148 109.18819738 349.67655371 109.83952094 349.67897722 110.51058158 C349.68568553 112.71427502 349.68520845 114.91790974 349.68479919 117.12161255 C349.6880967 118.70909828 349.69182202 120.29658318 349.69594067 121.884067 C349.70598201 126.26318153 349.7096809 130.64228235 349.71232998 135.02140677 C349.71622682 139.73802185 349.72580568 144.454626 349.73454285 149.17123413 C349.75432654 160.57135763 349.76437662 171.97148204 349.77327064 183.37161842 C349.77765108 188.73747132 349.78301858 194.10332322 349.78825951 199.46917534 C349.80527493 217.30278729 349.81976908 235.13639861 349.82700825 252.97001743 C349.82891821 257.60037804 349.83083853 262.23073865 349.83279419 266.86109924 C349.83327793 268.01198475 349.83376167 269.16287025 349.83426007 270.34863108 C349.8425602 288.99191687 349.86789543 307.63513849 349.90037487 326.27839626 C349.93343506 345.41074428 349.95145614 364.54305969 349.95465249 383.67543644 C349.95681872 394.42084697 349.96558382 405.16616398 349.99111366 415.91154671 C350.01280658 425.06328439 350.02087807 434.21490585 350.01114688 443.36666632 C350.00659789 448.03612548 350.00852318 452.70534476 350.02790833 457.37477112 C350.04551028 461.65162667 350.04456645 465.92806682 350.02901103 470.2049266 C350.02663042 471.75010925 350.03098205 473.29532043 350.04283968 474.84045941 C350.10203094 483.06460909 349.88818157 490.07604772 345.53762817 497.28761292 C344.97021557 498.26425104 344.97021557 498.26425104 344.39134008 499.26061922 C340.17976947 506.19552961 333.15332878 510.07361705 325.53762817 512.28761292 C322.64835137 512.54061258 322.64835137 512.54061258 319.57704449 512.54488182 C318.40022757 512.55133071 317.22341066 512.55777961 316.01093262 512.56442392 C314.72719012 512.56132671 313.44344762 512.55822951 312.12080383 512.55503845 C310.73610429 512.55877657 309.35140687 512.56337874 307.96671277 512.5687691 C304.16669132 512.58099453 300.36675795 512.58073918 296.56672132 512.57838035 C292.46639805 512.57797207 288.36610297 512.58901239 284.26579285 512.59849548 C276.23441344 512.61510385 268.2030634 512.62060495 260.17166825 512.62172024 C253.64299363 512.62267077 247.11432868 512.62678133 240.58565712 512.63312149 C222.07328252 512.6507333 203.5609311 512.65996043 185.04854807 512.65846054 C184.05067448 512.65838063 183.0528009 512.65830072 182.02468872 512.65821838 C181.02559596 512.65813662 180.0265032 512.65805486 178.9971349 512.65797062 C162.80490769 512.65715769 146.6127735 512.67629721 130.4205732 512.70449512 C113.79220068 512.73322398 97.16387352 512.74703542 80.53547555 512.74530756 C71.20082281 512.74464367 61.86626758 512.75013561 52.53163719 512.77166367 C44.58405201 512.78987546 36.63660855 512.7942228 28.68901154 512.78064482 C24.63519722 512.7741152 20.58165481 512.77399759 16.52786636 512.79135132 C12.81366963 512.80708758 9.09996025 512.80421318 5.38577536 512.78678305 C3.41235366 512.78226539 1.4389168 512.79736615 -0.53444606 512.81326234 C-7.74993871 512.75724098 -13.1886829 511.93263738 -19.46237183 508.28761292 C-20.11594549 507.90934652 -20.76951916 507.53108012 -21.44289809 507.1413511 C-28.32848102 502.9412092 -32.33206917 495.89941164 -34.46237183 488.28761292 C-34.64578243 485.59805843 -34.73485243 483.01492018 -34.71964073 480.32800579 C-34.72314681 479.5403737 -34.72665288 478.75274162 -34.7302652 477.94124189 C-34.73958057 475.29789543 -34.73465553 472.65476921 -34.72979736 470.01141357 C-34.73353355 468.09874028 -34.73813494 466.18606851 -34.74352801 464.27339917 C-34.75577726 459.01398307 -34.75549527 453.75463049 -34.75313926 448.49520338 C-34.75273158 442.82431707 -34.76376553 437.15345125 -34.77325439 431.48257446 C-34.78987575 420.37107242 -34.79536445 409.2595916 -34.79647915 398.14807817 C-34.79742905 389.11749736 -34.80153645 380.08692357 -34.8078804 371.05634499 C-34.82262871 349.62651993 -34.83492981 328.19670179 -34.83388329 306.76687145 C-34.83385213 306.08154735 -34.83382097 305.39622326 -34.83378887 304.69013176 C-34.83362265 301.21662952 -34.83342457 297.74312727 -34.83321945 294.26962503 C-34.83317956 293.57977584 -34.83313967 292.88992665 -34.83309857 292.17917294 C-34.8330177 290.78412982 -34.8329341 289.3890867 -34.83284779 287.99404358 C-34.83162226 266.28905748 -34.8466359 244.58413387 -34.87399292 222.87916565 C-34.90471626 198.49332694 -34.92189993 174.1075397 -34.92006648 149.72167856 C-34.91940206 136.80999019 -34.92491708 123.89837229 -34.94642258 110.98670006 C-34.96461402 99.99418974 -34.96899841 89.00178184 -34.95540373 78.009263 C-34.94886393 72.40007155 -34.94879354 66.79107671 -34.96611023 61.18190384 C-34.98180096 56.04662807 -34.9790181 50.91170546 -34.96154197 45.77643851 C-34.95846327 43.91913333 -34.96213707 42.06180205 -34.97326212 40.20452764 C-35.07235746 22.48697524 -35.07235746 22.48697524 -30.46237183 15.28761292 C-30.08410543 14.64030328 -29.70583903 13.99299365 -29.31611001 13.32606858 C-22.83914375 2.58985401 -11.66215671 -0.01249336 0 0 Z M-11.46237183 27.28761292 C-12.95599333 30.27485592 -12.60482537 33.33130845 -12.59938622 36.60723495 C-12.60203804 37.37426672 -12.60468987 38.14129848 -12.60742205 38.93157363 C-12.61514558 41.52884215 -12.61567539 44.12606363 -12.61627197 46.7233429 C-12.62028458 48.59345315 -12.62472246 50.46356253 -12.62955153 52.33367085 C-12.64154527 57.49388235 -12.64717194 62.65408449 -12.65173268 67.81430721 C-12.65767814 73.37136388 -12.66929056 78.92840929 -12.68002319 84.48545837 C-12.70457068 97.91598595 -12.71917738 111.34651727 -12.73208326 124.77706039 C-12.73579335 128.5681634 -12.73976673 132.35926605 -12.74383593 136.15036869 C-12.76906954 159.67482568 -12.79114652 183.19928363 -12.80356407 206.72375107 C-12.80648549 212.17537692 -12.80945299 217.62700274 -12.81246948 223.07862854 C-12.81284039 223.7559368 -12.8132113 224.43324505 -12.81359345 225.1310778 C-12.82575149 247.09563374 -12.85669919 269.0601096 -12.89839101 291.02462792 C-12.94237227 314.2375716 -12.96809579 337.45046977 -12.97348464 360.66346097 C-12.97690337 373.32083385 -12.98871301 385.97808038 -13.02158737 398.63541412 C-13.04953194 409.41255444 -13.06061181 420.18954252 -13.04939191 430.96671626 C-13.04419102 436.46821903 -13.0471848 441.96940272 -13.07185745 447.47085953 C-13.09424391 452.50442441 -13.0936929 457.53743905 -13.07465358 462.57101288 C-13.07183864 464.39474304 -13.0775344 466.21850967 -13.09246652 468.04218087 C-13.11149584 470.51700411 -13.09983762 472.98984969 -13.08040428 475.46462631 C-13.0932535 476.17666537 -13.10610272 476.88870442 -13.11934131 477.62232041 C-13.02260101 483.20940772 -11.27203251 485.49682049 -7.46237183 489.28761292 C-4.88201615 490.57779075 -3.0326368 490.41779614 -0.14177322 490.4246273 C0.99409564 490.42970185 2.1299645 490.43477639 3.30025363 490.44000471 C4.55878437 490.44050246 5.81731512 490.44100022 7.11398315 490.44151306 C8.45611933 490.44552641 9.79825429 490.44996441 11.14038777 490.45479262 C14.84119759 490.46677823 18.54199435 490.47241116 22.24281979 490.47697377 C26.2293121 490.48292233 30.21578875 490.49453401 34.20227051 490.50526428 C43.83595108 490.52980509 53.46963685 490.54441772 63.10333908 490.55732435 C65.82320399 490.561035 68.54306838 490.56500833 71.26293278 490.56907701 C88.14407786 490.59431177 105.02522373 490.61637022 121.90638351 490.62880516 C125.81797031 490.63173498 129.72955707 490.63469662 133.6411438 490.63771057 C135.09949712 490.63882965 135.09949712 490.63882965 136.58731213 490.63997133 C152.34211173 490.65262891 168.09679856 490.68585639 183.85154542 490.7275124 C200.01759588 490.7699064 216.18358858 490.79349724 232.34969449 490.79872572 C241.43004245 490.80214268 250.51021418 490.81393132 259.59050751 490.84682846 C267.32272631 490.87479532 275.05473278 490.88584315 282.78699824 490.874633 C286.73314439 490.86943769 290.67884567 490.87238902 294.62492752 490.89709854 C298.23743823 490.91953077 301.84918297 490.91889918 305.46170655 490.89989467 C307.3878508 490.89575536 309.31399924 490.91628499 311.2400291 490.93768156 C318.25264294 490.99595414 318.25264294 490.99595414 324.29289627 487.87461281 C327.58298444 484.08286479 327.66237205 482.29024174 327.660676 477.34117699 C327.66266705 476.0657555 327.6646581 474.79033402 327.66670948 473.4762634 C327.66385606 472.04760621 327.66091046 470.61894919 327.65788269 469.19029236 C327.65831838 467.68301393 327.65919325 466.17573558 327.66047186 464.66845763 C327.66271719 460.51139228 327.658695 456.3543525 327.6536938 452.19729042 C327.64939004 447.72011946 327.65083567 443.24295003 327.65159607 438.76577759 C327.65212135 431.00372855 327.6489741 423.24168789 327.64335823 415.47964096 C327.63524382 404.25691467 327.63262807 393.03419245 327.63137024 381.81146355 C327.62917963 363.60494333 327.62251929 345.39842758 327.61306763 327.19190979 C327.60389375 309.50213137 327.5968128 291.81235417 327.59255981 274.12257385 C327.59229709 273.03284591 327.59203437 271.94311797 327.59176368 270.82036798 C327.59045868 265.35372325 327.58919496 259.88707851 327.58795178 254.42043376 C327.57757888 209.04282371 327.55996032 163.66521854 327.53762817 118.28761292 C326.7226738 118.28174667 325.90771942 118.27588043 325.06806946 118.26983643 C317.34532007 118.21166047 309.62288419 118.13944387 301.90041637 118.051898 C297.93128217 118.00738519 293.96224611 117.96808854 289.99295044 117.94117737 C286.15425099 117.91495193 282.31593317 117.87441794 278.47747231 117.82442665 C277.02129213 117.80788676 275.56504614 117.79629304 274.10878563 117.78999901 C261.94597177 117.7321695 250.68347253 117.11255046 241.53762817 108.28761292 C232.1644353 98.57357667 232.08121859 86.35411171 232.02590942 73.55714417 C232.00902572 72.07069452 231.99087065 70.58425883 231.97151184 69.09783936 C231.92440551 65.22315333 231.89434353 61.34852388 231.86807251 57.47364807 C231.83806598 53.50462166 231.79160581 49.5357896 231.74661255 45.56690979 C231.66102862 37.80724146 231.59348616 30.04755829 231.53762817 22.28761292 C201.44741316 22.17355394 171.35720556 22.08506665 141.26682209 22.03228627 C137.71451231 22.02603272 134.16220295 22.01956111 130.6098938 22.01295471 C129.90269196 22.01164316 129.19549012 22.01033161 128.46685793 22.00898031 C117.01539306 21.98722277 105.56405368 21.94779938 94.11266325 21.90184893 C82.36277317 21.85509388 70.61294881 21.82731956 58.86296952 21.81717044 C52.26300184 21.81064526 45.66331879 21.79528205 39.06344223 21.75896263 C32.85332742 21.72506446 26.64361491 21.7145477 20.43341637 21.72207451 C18.15253324 21.72069722 15.87163687 21.71072841 13.59083366 21.69158554 C10.47892348 21.66674493 7.36853648 21.6726758 4.2565918 21.68634033 C2.89957525 21.66449402 2.89957525 21.66449402 1.51514423 21.64220637 C-4.54304604 21.71421826 -7.26615339 22.86517097 -11.46237183 27.28761292 Z M253.53762817 38.28761292 C253.46133541 44.85288519 253.40892657 51.4180424 253.37283325 57.98365784 C253.35778077 60.21547213 253.33733419 62.44725701 253.31130981 64.67897034 C253.27477129 67.89364396 253.25786603 71.1079252 253.24465942 74.32276917 C253.22917557 75.31470779 253.21369171 76.30664642 253.19773865 77.3286438 C253.1963459 83.10905753 253.74942557 87.18730444 256.53762817 92.28761292 C260.33411402 95.96163147 264.18053223 96.41491694 269.30618286 96.40113831 C270.24685608 96.40106277 271.1875293 96.40098724 272.15670776 96.40090942 C273.16413025 96.39574814 274.17155273 96.39058685 275.20950317 96.38526917 C276.76583466 96.38314674 276.76583466 96.38314674 278.35360718 96.38098145 C281.66497693 96.37538739 284.97627888 96.36283595 288.28762817 96.35011292 C290.53372095 96.34509715 292.77981478 96.34053437 295.02590942 96.33644104 C300.52983878 96.3254199 306.03372863 96.30868765 311.53762817 96.28761292 C306.04331759 89.60230659 299.94842097 83.55274376 293.83059692 77.44776917 C292.6979894 76.3144871 291.56553027 75.1810567 290.43321228 74.04748535 C288.07388533 71.68669209 285.71277883 69.32769743 283.35037231 66.96998596 C280.3159803 63.94133004 277.28615271 60.90815359 274.25760937 57.87365055 C271.92694524 55.53938537 269.59392025 53.20749161 267.26015663 50.87632561 C266.14100979 49.75784727 265.02260924 48.6386217 263.90495872 47.51864815 C262.35156425 45.96273043 260.7950293 44.41002631 259.23757935 42.85816956 C258.35188766 41.97327347 257.46619598 41.08837738 256.55366516 40.17666626 C254.87647167 38.17365424 254.87647167 38.17365424 253.53762817 38.28761292 Z " fill="#000000" transform="translate(98.46237182617188,-0.2876129150390625)"/>
<path d="M0 0 C1.47712212 -0.01441132 1.47712212 -0.01441132 2.98408508 -0.02911377 C4.0517662 -0.03336365 5.11944733 -0.03761353 6.21948242 -0.04199219 C7.31459641 -0.04769226 8.40971039 -0.05339233 9.53800964 -0.05926514 C11.85898876 -0.06872432 14.17998136 -0.07525275 16.50097656 -0.07910156 C20.04996238 -0.08879891 23.5983672 -0.1198109 27.1472168 -0.15136719 C29.40046856 -0.15789792 31.65372447 -0.16314811 33.90698242 -0.16699219 C35.49939507 -0.18551239 35.49939507 -0.18551239 37.12397766 -0.20440674 C46.42789743 -0.17632199 46.42789743 -0.17632199 50.26245117 3.16113281 C52.59136329 6.65450099 52.4979626 8.02121146 52.45776367 12.14160156 C52.45131836 13.30498047 52.44487305 14.46835938 52.43823242 15.66699219 C52.4130957 17.4894043 52.4130957 17.4894043 52.38745117 19.34863281 C52.37842773 20.57517578 52.3694043 21.80171875 52.36010742 23.06542969 C52.33651134 26.09752577 52.30358958 29.12923219 52.26245117 32.16113281 C53.32157715 32.13494873 54.38070312 32.10876465 55.47192383 32.08178711 C59.41897273 31.9909673 63.36593017 31.9337694 67.3137207 31.88647461 C69.01895706 31.86140236 70.72408671 31.82733517 72.42895508 31.78393555 C74.88674291 31.72295716 77.34310478 31.69485169 79.80151367 31.67285156 C80.55800201 31.64704514 81.31449036 31.62123871 82.09390259 31.59465027 C86.12599939 31.59253621 88.54391805 31.98867909 91.72875977 34.56665039 C95.8567748 38.79370914 95.40864388 42.11218647 95.40289307 47.75801086 C95.40586419 48.65865696 95.40883531 49.55930305 95.41189647 50.48724145 C95.4206101 53.52348598 95.42209396 56.5596912 95.42358398 59.59594727 C95.42821027 61.76544276 95.43323467 63.93493743 95.43862915 66.10443115 C95.45177337 72.01148454 95.45820204 77.91852655 95.46263981 83.82559228 C95.46556727 87.51320249 95.46967145 91.20080956 95.47414398 94.8884182 C95.48782422 106.41770104 95.49748831 117.94697676 95.50134587 129.47626716 C95.50582811 142.80070117 95.52338152 156.12500077 95.55234647 169.44940597 C95.57393876 179.73818877 95.58404884 190.02694269 95.58538699 200.31574792 C95.58643678 206.46564334 95.59238142 212.61544247 95.6102066 218.7653141 C95.62664488 224.54941483 95.62886343 230.33334645 95.6200676 236.11746216 C95.61929494 238.24233133 95.62366981 240.36720944 95.63352585 242.49205589 C95.6461783 245.38934178 95.640405 248.28602267 95.62994385 251.18330383 C95.64202845 252.44926052 95.64202845 252.44926052 95.65435719 253.7407921 C95.61519884 258.36712737 95.28129508 261.41800872 92.26245117 265.16113281 C88.86638289 267.42517833 87.68080792 267.41691194 83.69631958 267.43528748 C82.53826813 267.4452626 81.38021667 267.45523773 80.18707275 267.46551514 C78.27943146 267.46651215 78.27943146 267.46651215 76.33325195 267.4675293 C74.98132875 267.47515022 73.62940989 267.4835776 72.27749634 267.49275208 C68.60389336 267.51471073 64.93037363 267.52349777 61.25671244 267.52857852 C58.9615966 267.53222048 56.66650262 267.53845969 54.37139511 267.54557991 C46.36453034 267.57007914 38.35773041 267.58312732 30.35083008 267.58666992 C22.88724685 267.59030561 15.42407474 267.62020179 7.96061718 267.66207451 C1.55287392 267.696764 -4.85473301 267.71221813 -11.26256955 267.71291596 C-15.08973726 267.71370924 -18.91648627 267.72247072 -22.74355698 267.75091362 C-26.34377341 267.77707192 -29.94322336 267.77931296 -33.54349136 267.76325798 C-35.49274756 267.76057621 -37.44198868 267.78264252 -39.39111328 267.80545044 C-48.91895494 267.72550961 -48.91895494 267.72550961 -51.9992981 264.74867249 C-55.00233814 260.27838226 -54.88836695 256.83390934 -54.89144897 251.57098389 C-54.89583123 250.67104336 -54.90021348 249.77110283 -54.90472853 248.84389138 C-54.91814795 245.80998803 -54.92430243 242.77611375 -54.93041992 239.7421875 C-54.93831839 237.57431404 -54.94658718 235.4064419 -54.9552002 233.23857117 C-54.98144903 226.10339621 -54.99673032 218.96821529 -55.01098633 211.83300781 C-55.01634476 209.37960048 -55.02172227 206.9261932 -55.02711868 204.47278595 C-55.04875127 194.26962162 -55.06748915 184.0664589 -55.07874107 173.86327744 C-55.0949874 159.22593174 -55.12817746 144.58895435 -55.18514192 129.95170856 C-55.22380315 119.66800769 -55.24336923 109.38437786 -55.24866164 99.1006062 C-55.2523202 92.95451096 -55.26439545 86.80869835 -55.29676437 80.66268158 C-55.32677768 74.88096029 -55.3331807 69.09969366 -55.32138062 63.31791115 C-55.32115932 61.19506196 -55.32951039 59.07219208 -55.34703445 56.94941521 C-55.36965154 54.05213174 -55.36146549 51.15650729 -55.34555054 48.25921631 C-55.36637367 46.99762888 -55.36637367 46.99762888 -55.38761747 45.71055484 C-55.33128605 41.55151641 -54.98231872 38.9481751 -52.32454872 35.65500259 C-48.20118564 31.68007758 -45.14242448 32.02711343 -39.66723633 32.06347656 C-38.87100861 32.06489151 -38.07478088 32.06630646 -37.25442505 32.06776428 C-34.70709503 32.07336936 -32.15985236 32.08592267 -29.61254883 32.09863281 C-27.88728968 32.10364716 -26.16202916 32.10821018 -24.43676758 32.11230469 C-20.20366092 32.12334044 -15.97061969 32.14060845 -11.73754883 32.16113281 C-11.76373291 31.39969971 -11.78991699 30.6382666 -11.81689453 29.85375977 C-11.92101898 26.39392847 -11.98592612 22.93442696 -12.05004883 19.47363281 C-12.09194336 18.27544922 -12.13383789 17.07726562 -12.17700195 15.84277344 C-12.2978292 7.16737684 -12.2978292 7.16737684 -10.67260742 4.24853516 C-7.34389438 0.85136529 -4.57653615 0.03597076 0 0 Z M10.26245117 22.16113281 C10.26245117 25.46113281 10.26245117 28.76113281 10.26245117 32.16113281 C16.86245117 32.16113281 23.46245117 32.16113281 30.26245117 32.16113281 C30.26245117 28.86113281 30.26245117 25.56113281 30.26245117 22.16113281 C23.66245117 22.16113281 17.06245117 22.16113281 10.26245117 22.16113281 Z M-32.73754883 54.16113281 C-32.73754883 117.19113281 -32.73754883 180.22113281 -32.73754883 245.16113281 C2.24245117 245.16113281 37.22245117 245.16113281 73.26245117 245.16113281 C73.26245117 182.13113281 73.26245117 119.10113281 73.26245117 54.16113281 C38.28245117 54.16113281 3.30245117 54.16113281 -32.73754883 54.16113281 Z " fill="#000000" transform="translate(235.737548828125,180.8388671875)"/>
<path d="M0 0 C28.38 0 56.76 0 86 0 C86 7.26 86 14.52 86 22 C57.62 22 29.24 22 0 22 C0 14.74 0 7.48 0 0 Z " fill="#000000" transform="translate(128,106)"/>
<path d="M0 0 C21.12 0 42.24 0 64 0 C64 7.26 64 14.52 64 22 C42.88 22 21.76 22 0 22 C0 14.74 0 7.48 0 0 Z " fill="#000000" transform="translate(224,384)"/>
<path d="M0 0 C21.12 0 42.24 0 64 0 C64 7.26 64 14.52 64 22 C42.88 22 21.76 22 0 22 C0 14.74 0 7.48 0 0 Z " fill="#000000" transform="translate(224,341)"/>
<path d="M0 0 C21.12 0 42.24 0 64 0 C64 7.26 64 14.52 64 22 C42.88 22 21.76 22 0 22 C0 14.74 0 7.48 0 0 Z " fill="#000000" transform="translate(224,298)"/>
<path d="M0 0 C21.12 0 42.24 0 64 0 C64 7.26 64 14.52 64 22 C42.88 22 21.76 22 0 22 C0 14.74 0 7.48 0 0 Z " fill="#000000" transform="translate(224,256)"/>
<path d="M0 0 C14.52 0 29.04 0 44 0 C44 7.26 44 14.52 44 22 C29.48 22 14.96 22 0 22 C0 14.74 0 7.48 0 0 Z " fill="#000000" transform="translate(170,64)"/>
<path d="M0 0 C7.26 0 14.52 0 22 0 C22 7.26 22 14.52 22 22 C14.74 22 7.48 22 0 22 C0 14.74 0 7.48 0 0 Z " fill="#000000" transform="translate(128,64)"/>
</svg>
