<?xml version="1.0" encoding="UTF-8"?>
<svg version="1.1" xmlns="http://www.w3.org/2000/svg" width="512" height="512">
<path d="M0 0 C6.42309263 4.89716454 12.50558417 10.54492256 16.125 17.875 C16.43695313 18.49117187 16.74890625 19.10734375 17.0703125 19.7421875 C19.25756429 25.05408469 20.2497593 29.9357773 20.22705078 35.66967773 C20.22689972 36.95047714 20.22674866 38.23127655 20.22659302 39.55088806 C20.21638289 40.92845825 20.20595096 42.30602681 20.1953125 43.68359375 C20.19157721 45.10848288 20.18873267 46.53337459 20.18673706 47.95826721 C20.17914121 51.68845855 20.15952809 55.4184914 20.1373291 59.14862061 C20.11678291 62.9629909 20.10771667 66.77738707 20.09765625 70.59179688 C20.07627788 78.06126976 20.04219155 85.53061258 20 93 C20.6080397 93.12760712 21.21607941 93.25521423 21.84254456 93.38668823 C22.64546432 93.55927155 23.44838409 93.73185486 24.27563477 93.90966797 C25.06929947 94.07852509 25.86296417 94.2473822 26.68067932 94.4213562 C36.61307389 96.89937426 45.51539539 103.25577894 53 110 C53.63421875 110.55300781 54.2684375 111.10601562 54.921875 111.67578125 C68.05655444 123.85151286 74.96249213 142.23643641 75.92529297 159.80859375 C76.34207267 171.99580709 74.07544702 182.92758625 69 194 C68.36964844 195.40185547 68.36964844 195.40185547 67.7265625 196.83203125 C59.92508314 212.59282337 45.22405553 224.61609845 29 231 C27.44061166 231.38229477 25.87504186 231.73996777 24.30517578 232.07666016 C23.49799103 232.25121735 22.69080627 232.42577454 21.85916138 232.60562134 C20.9388765 232.80083878 20.9388765 232.80083878 20 233 C20.00888245 233.77514954 20.01776489 234.55029907 20.0269165 235.34893799 C20.10752299 242.70323701 20.16819584 250.05731769 20.20724869 257.41194534 C20.22800211 261.19181627 20.25609088 264.97131802 20.30175781 268.75097656 C20.34565913 272.40796209 20.36922881 276.06459565 20.37950897 279.72182465 C20.38682192 281.10750611 20.40109905 282.49317132 20.42292023 283.87870026 C20.6153064 296.61677919 18.6671696 307.32550802 10 317 C9.49855469 317.60457031 8.99710937 318.20914062 8.48046875 318.83203125 C0.28140248 327.9886527 -11.06078291 331.36990341 -22.9375 332.3125 C-38.99584086 331.73091019 -49.33777518 321.16764428 -60.39453125 310.7421875 C-66.82959153 304.77494259 -73.66309614 299.77118418 -81 295 C-81.92167969 294.39285156 -82.84335938 293.78570312 -83.79296875 293.16015625 C-119.34333786 271.04772638 -163.79813668 268.96970334 -204.484375 267.80078125 C-233.87652718 266.92176361 -258.92605798 257.82417678 -280 237 C-281.07314453 236.03513672 -281.07314453 236.03513672 -282.16796875 235.05078125 C-297.91416469 220.56176662 -308.98751336 196.10605426 -310.17700195 174.8347168 C-310.72049155 144.80854069 -310.72049155 144.80854069 -306 131 C-305.79101074 130.37174316 -305.58202148 129.74348633 -305.36669922 129.09619141 C-300.04936621 113.43096989 -291.56423791 100.70293942 -280 89 C-279.35675781 88.28457031 -278.71351563 87.56914062 -278.05078125 86.83203125 C-262.9245287 70.3933056 -237.9521568 59.82060417 -215.80004883 58.75048828 C-214.18583806 58.68707166 -212.57148478 58.62721463 -210.95703125 58.5703125 C-209.15598361 58.49884945 -207.35495897 58.4268052 -205.55395508 58.35424805 C-204.61645416 58.31729828 -203.67895325 58.28034851 -202.71304321 58.24227905 C-154.85010787 56.30701407 -102.10632983 51.34607067 -64 19 C-62.91693246 18.09343236 -61.83358547 17.18719851 -60.75 16.28125 C-58.52519397 14.41086637 -56.30830553 12.53162217 -54.09765625 10.64453125 C-53.31285889 9.97478271 -53.31285889 9.97478271 -52.51220703 9.29150391 C-51.11064376 8.09449556 -49.70959658 6.896883 -48.30859375 5.69921875 C-33.67611574 -6.46016438 -17.26215038 -10.10932564 0 0 Z M-27.9375 32.3125 C-28.90648541 33.23952934 -29.87931699 34.16255105 -30.85546875 35.08203125 C-31.3664209 35.56365723 -31.87737305 36.0452832 -32.40380859 36.54150391 C-71.05609268 71.85945208 -121.9484786 85.94745128 -173.11254883 89.76635742 C-175.22234403 89.9645108 -175.22234403 89.9645108 -178 91 C-178 138.52 -178 186.04 -178 235 C-174.57548911 235.85612772 -171.53675652 236.29805565 -168.0390625 236.61328125 C-115.37489739 241.56534911 -71.10011213 255.54157043 -31.97265625 291.79296875 C-31.09480469 292.60378906 -30.21695313 293.41460937 -29.3125 294.25 C-28.56613281 294.95640625 -27.81976563 295.6628125 -27.05078125 296.390625 C-24.93757576 298.04898816 -23.65779878 298.73092533 -21 299 C-17.32305465 297.29604972 -15.15383322 295.40483773 -13 292 C-12.55401907 289.83125663 -12.55401907 289.83125663 -12.61688995 287.49528694 C-12.60783331 286.59230688 -12.59877667 285.68932682 -12.58944559 284.75898373 C-12.59477352 283.77086316 -12.60010144 282.78274258 -12.60559082 281.76467896 C-12.59949972 280.71193814 -12.59340861 279.65919733 -12.58713293 278.57455528 C-12.57044041 275.03543473 -12.57528777 271.49667151 -12.58007812 267.95751953 C-12.57274143 265.42482121 -12.56415637 262.89212624 -12.55441284 260.35943604 C-12.53446017 254.18699345 -12.52881859 248.01468306 -12.53060073 241.84221257 C-12.53190789 236.8251849 -12.52810654 231.80818655 -12.52067566 226.7911644 C-12.51857648 225.34649813 -12.51647888 223.90183187 -12.51438284 222.4571656 C-12.51333931 221.73813068 -12.51229578 221.01909576 -12.51122063 220.2782719 C-12.49231385 206.67611475 -12.49336972 193.07401153 -12.50018996 179.47184668 C-12.50576509 167.02800627 -12.48494215 154.58437177 -12.45182949 142.14057948 C-12.41809638 129.36448591 -12.40292372 116.58849099 -12.40754652 103.81235206 C-12.40979169 96.63904773 -12.40454133 89.46593369 -12.37965393 82.29266739 C-12.35645054 75.54730408 -12.35921882 68.8024398 -12.37958145 62.05704498 C-12.38300133 59.57944533 -12.37786064 57.10181709 -12.36359787 54.62425613 C-12.34548694 51.24542874 -12.35809564 47.86807038 -12.37854004 44.48928833 C-12.36602219 43.5056292 -12.35350434 42.52197006 -12.34060717 41.50850308 C-12.39848639 37.05580103 -12.55422858 33.95137546 -15.38234711 30.38470268 C-17.74701145 27.85691693 -17.74701145 27.85691693 -20.50390625 27.35546875 C-23.9100071 28.23497836 -25.44261753 29.8406827 -27.9375 32.3125 Z M-254 110 C-254.68707031 110.59296875 -255.37414062 111.1859375 -256.08203125 111.796875 C-266.59059573 121.49708836 -272.268222 133.43898532 -276 147 C-276.17740723 147.62084473 -276.35481445 148.24168945 -276.53759766 148.88134766 C-279.56962325 162.77359586 -277.47077757 178.0635757 -272 191 C-271.61585938 191.9384375 -271.23171875 192.876875 -270.8359375 193.84375 C-262.82931362 211.49100263 -246.84701999 224.2889305 -229 231 C-222.7832628 232.92055529 -217.54972878 234 -211 234 C-211 187.14 -211 140.28 -211 92 C-227.38620435 92 -241.93297865 99.26465333 -254 110 Z M20 128 C20 151.1 20 174.2 20 198 C30.70524624 192.64737688 36.96148481 186.37541277 41.125 175.0703125 C44.36901157 163.68730763 43.07378082 153.131623 37.375 142.75 C32.94491372 135.90049004 27.56386689 131.02554676 20 128 Z " fill="#000000" transform="translate(310,93)"/>
<path d="M0 0 C3.71829477 3.14469213 6.45406752 6.36220256 8 11 C8.45971096 18.01059212 7.43752335 22.15063307 2.70549011 27.68218994 C1.35696709 29.03881744 1.35696709 29.03881744 -0.01879883 30.42285156 C-0.76577782 31.18012543 -0.76577782 31.18012543 -1.52784729 31.95269775 C-3.16334666 33.60638262 -4.8095697 35.24886321 -6.45703125 36.890625 C-7.60458834 38.042747 -8.75177396 39.19523912 -9.89860535 40.3480835 C-12.29857763 42.75697006 -14.70411803 45.16012226 -17.11352539 47.55957031 C-20.19545364 50.62999617 -23.26121785 53.71601319 -26.32277393 56.80673599 C-28.68610549 59.18843799 -31.05870487 61.56073498 -33.43408775 63.93041229 C-34.56823018 65.06440169 -35.69928626 66.20148683 -36.82712746 67.34174347 C-38.40632392 68.93586804 -39.99780992 70.51664559 -41.59301758 72.09472656 C-42.49441971 72.99596252 -43.39582184 73.89719849 -44.32453918 74.82574463 C-48.49689921 78.21647872 -52.60801636 79.41461137 -57.9375 79 C-62.48159545 78.39777048 -65.331826 77.09425925 -68.5859375 73.86328125 C-71.63906881 69.84023254 -73.03285504 65.759823 -72.97265625 60.703125 C-70.89052981 47.1342111 -54.04454685 35.71173098 -44.74023438 26.33520508 C-42.6586854 24.23578138 -40.5860127 22.12814792 -38.52050781 20.01293945 C-36.00357722 17.43557084 -33.47200101 14.87346921 -30.92951584 12.32131386 C-29.51005195 10.88925534 -28.10536068 9.44260183 -26.70108032 7.99565125 C-19.00789038 0.32678142 -10.805059 -4.87740719 0 0 Z " fill="#000000" transform="translate(447,108)"/>
<path d="M0 0 C0.93328125 -0.03738281 1.8665625 -0.07476562 2.828125 -0.11328125 C8.75029934 0.7497094 12.8907321 5.20194863 16.98925781 9.29296875 C17.71727097 10.01572495 17.71727097 10.01572495 18.45999146 10.75308228 C20.04606812 12.3304313 21.62480428 13.91489318 23.203125 15.5 C24.31047889 16.6060051 25.4181294 17.7117133 26.52606201 18.81713867 C28.83899805 21.12713598 31.14830271 23.44068707 33.45507812 25.75683594 C36.40952851 28.72270686 39.37290369 31.67947214 42.33903885 34.63365173 C44.62461565 36.91199895 46.90540447 39.1950913 49.18477631 41.47964478 C50.27573687 42.5719374 51.36817929 43.66275209 52.46213531 44.75204468 C53.98909277 46.27391596 55.50948094 47.80206367 57.02832031 49.33203125 C57.89402649 50.19932861 58.75973267 51.06662598 59.65167236 51.96020508 C63.85328999 56.67035789 64.19845634 60.38427906 64.05859375 66.5546875 C63.57525409 70.87415336 62.47579964 72.88777738 59.75 76.3125 C54.98012742 80.03300061 51.3576142 80.76503139 45.375 80.84375 C36.50906594 79.04945382 30.55670567 71.55816329 24.453125 65.4140625 C23.37216148 64.33512308 22.29075323 63.25662907 21.20892334 62.17855835 C18.95159585 59.92563646 16.69973951 57.66742253 14.45166016 55.40527344 C11.57808599 52.51458799 8.6912233 49.63760962 5.80012894 46.76445961 C3.56756564 44.54276431 1.34223054 42.31393921 -0.88101959 40.0829277 C-1.94249939 39.01945531 -3.00618834 37.95818295 -4.07216644 36.89921951 C-5.56300113 35.41605134 -7.04380461 33.92351978 -8.52246094 32.42822266 C-9.36516541 31.58313141 -10.20786987 30.73804016 -11.07611084 29.86734009 C-15.22967237 24.98591113 -16.7842849 20.768075 -16.53125 14.484375 C-15.90412141 9.64154865 -13.79927926 6.5995954 -10.1875 3.5 C-6.41645305 0.69177355 -4.63630421 0.12034123 0 0 Z " fill="#000000" transform="translate(399.25,316.6875)"/>
<path d="M0 0 C1.14177956 -0.0098568 1.14177956 -0.0098568 2.30662537 -0.01991272 C4.83169652 -0.03966105 7.35670811 -0.05131261 9.88183594 -0.0612793 C10.74408531 -0.06535482 11.60633469 -0.06943035 12.49471283 -0.07362938 C17.05978659 -0.09449816 21.62483024 -0.10879552 26.18994141 -0.11816406 C30.90220242 -0.12922118 35.61399025 -0.16361051 40.32608414 -0.20333576 C43.95154692 -0.22950221 47.57689708 -0.23785599 51.20244598 -0.24144554 C52.93915751 -0.24631262 54.67586397 -0.25793013 56.41248322 -0.27648354 C58.84698248 -0.30087286 61.28025931 -0.29991062 63.71484375 -0.29296875 C64.78583565 -0.31218384 64.78583565 -0.31218384 65.87846375 -0.33178711 C70.91860296 -0.27955749 73.71618653 1.0522882 77.61621094 4.17700195 C81.24454757 7.99630367 81.92621552 11.05979201 82.11621094 16.17700195 C81.92621552 21.29421189 81.24454757 24.35770023 77.61621094 28.17700195 C73.0313981 31.83975775 69.51477101 32.76021088 63.77832031 32.69458008 C63.01654984 32.70158936 62.25477936 32.70859863 61.46992493 32.71582031 C58.96622647 32.73334313 56.46366974 32.72179867 53.95996094 32.70825195 C52.21170842 32.71094853 50.46345736 32.71483233 48.71520996 32.71984863 C45.05690181 32.72573592 41.39898518 32.71720575 37.74072266 32.69848633 C33.05986108 32.67569703 28.37991699 32.68882427 23.69908905 32.71277618 C20.0907301 32.72725512 16.48258739 32.72261862 12.8742218 32.71226501 C11.14870596 32.70960351 9.42317025 32.71284718 7.69767761 32.72218323 C5.28262602 32.73238372 2.86904415 32.71680069 0.45410156 32.69458008 C-0.25360886 32.702677 -0.96131927 32.71077393 -1.69047546 32.71911621 C-6.69808991 32.6340902 -9.51768136 31.29858126 -13.38378906 28.17700195 C-16.85287974 23.95783762 -18.29093809 20.65520948 -18.38378906 15.17700195 C-17.50850522 10.28719508 -16.17267403 6.44312744 -12.32128906 3.17700195 C-7.96865425 0.21350591 -5.14163486 0.01914627 0 0 Z " fill="#000000" transform="translate(430.3837890625,233.822998046875)"/>
</svg>
