<?xml version="1.0" encoding="UTF-8"?>
<svg version="1.1" xmlns="http://www.w3.org/2000/svg" width="512" height="512">
<path d="M0 0 C0.82654083 -0.00832352 1.65308167 -0.01664703 2.50466919 -0.02522278 C5.23655923 -0.04931251 7.96821032 -0.05809451 10.70019531 -0.06469727 C12.60345531 -0.07366582 14.50671459 -0.08278771 16.40997314 -0.09205627 C20.40126253 -0.10854705 24.39246804 -0.1162463 28.38378906 -0.11914062 C33.48603038 -0.12451824 38.58747767 -0.16217222 43.68949509 -0.20788479 C47.62216024 -0.23770353 51.55463552 -0.24486526 55.48740387 -0.24586678 C57.36760334 -0.25006109 59.24780379 -0.26246361 61.12789154 -0.28338432 C63.76553277 -0.31039331 66.40135128 -0.30544521 69.0390625 -0.29296875 C69.80817963 -0.30780304 70.57729675 -0.32263733 71.36972046 -0.33792114 C77.22345748 -0.25950302 81.25877079 1.59439282 85.77832031 5.30639648 C90.55689059 10.73021388 91.91291034 14.9267504 91.87597656 22.16577148 C91.87275391 23.28081055 91.86953125 24.39584961 91.86621094 25.54467773 C91.85783203 26.70354492 91.84945312 27.86241211 91.84082031 29.05639648 C91.83630859 30.23073242 91.83179688 31.40506836 91.82714844 32.61499023 C91.81537125 35.51217721 91.79892357 38.40926102 91.77832031 41.30639648 C92.77857742 41.29640373 92.77857742 41.29640373 93.79904175 41.28620911 C100.77515819 41.21954555 107.75118329 41.17446756 114.72753906 41.14160156 C117.32686034 41.12656817 119.92615649 41.10613602 122.52539062 41.08007812 C126.27382637 41.04345548 130.02192503 41.02661496 133.77050781 41.01342773 C134.92195282 40.99794388 136.07339783 40.98246002 137.25973511 40.96650696 C147.95367733 40.96430485 156.85553743 42.75791831 164.77832031 50.30639648 C165.17116211 50.90073486 165.56400391 51.49507324 165.96875 52.10742188 C167.44183189 54.22084879 168.70114606 55.77210772 170.77832031 57.30639648 C174.49791757 57.75606066 177.88299686 56.99484634 181.52832031 56.24389648 C183.60245952 55.89826112 185.67802632 55.56109166 187.75488281 55.23217773 C188.7787207 55.06540527 189.80255859 54.89863281 190.85742188 54.72680664 C221.95383812 50.25104362 256.92279295 60.70257314 281.93066406 79.09545898 C282.87039063 79.82506836 283.81011719 80.55467773 284.77832031 81.30639648 C285.72835938 82.03600586 286.67839844 82.76561523 287.65722656 83.51733398 C303.02252307 95.69844526 314.7920955 109.97783431 323.77832031 127.30639648 C324.24431641 128.1994751 324.24431641 128.1994751 324.71972656 129.1105957 C341.3263189 161.42917839 342.82143425 198.5492745 332.32275391 233.01538086 C329.65184938 241.24001963 325.97029418 248.76254068 321.77832031 256.30639648 C321.28589844 257.21518555 320.79347656 258.12397461 320.28613281 259.06030273 C307.90962058 280.84156578 288.89324786 298.46860471 266.96582031 310.30639648 C266.29695801 310.66846191 265.6280957 311.03052734 264.93896484 311.40356445 C259.74224913 314.08405614 254.41249491 315.77711018 248.77832031 317.30639648 C248.81759644 318.85750122 248.81759644 318.85750122 248.85766602 320.43994141 C248.94838454 324.28819007 249.0056469 328.13634488 249.05297852 331.98535156 C249.07807378 333.64892487 249.11215827 335.31238844 249.15551758 336.97558594 C249.21639491 339.37128802 249.244578 341.765529 249.26660156 344.16186523 C249.29240799 344.90164108 249.31821442 345.64141693 249.34480286 346.40361023 C249.34694711 350.38004844 248.9282925 352.11629419 246.43530273 355.27636719 C243.77832031 357.30639648 243.77832031 357.30639648 240.77832031 357.93139648 C237.72140232 357.29453857 235.970337 356.5328889 233.81924438 354.24990845 C231.31487223 349.57398887 232.18846104 343.624797 232.29003906 338.47436523 C232.29937219 337.11388959 232.30648595 335.75339706 232.31147766 334.39289856 C232.33050901 330.82338531 232.37957351 327.25489995 232.43499756 323.68579102 C232.48627528 320.03928531 232.50900969 316.39261244 232.53417969 312.74584961 C232.58769818 305.59894639 232.67296214 298.45273877 232.77832031 291.30639648 C232.0249086 291.51516418 231.27149689 291.72393188 230.49525452 291.93902588 C229.01127419 292.3475882 229.01127419 292.3475882 227.49731445 292.7644043 C226.02688438 293.17036835 226.02688438 293.17036835 224.52674866 293.58453369 C210.20520826 297.34602421 187.3968166 298.11564463 173.77832031 291.30639648 C173.78200748 291.92631092 173.78569466 292.54622536 173.78949356 293.18492508 C173.87781579 308.26606936 173.94401574 323.34713436 173.985569 338.42847061 C174.00619779 345.72169531 174.03432417 353.01474741 174.08007812 360.30786133 C174.11993653 366.66426036 174.14575083 373.0205344 174.15467429 379.37705493 C174.15989084 382.7431172 174.1721574 386.10882189 174.20124054 389.47476959 C174.23017285 393.23168866 174.23428041 396.98786095 174.23242188 400.74487305 C174.24680298 401.8619313 174.26118408 402.97898956 174.27600098 404.12989807 C174.27050232 405.15350937 174.26500366 406.17712067 174.25933838 407.23175049 C174.26302555 408.12035892 174.26671272 409.00896736 174.27051163 409.92450333 C173.61291399 413.10685798 172.2723441 414.28876754 169.77832031 416.30639648 C166.65988781 417.34587398 164.50356445 417.42134487 161.23535156 417.40405273 C160.16220703 417.40083008 159.0890625 417.39760742 157.98339844 417.39428711 C156.86384766 417.3859082 155.74429687 417.3775293 154.59082031 417.36889648 C153.45966797 417.36438477 152.32851563 417.35987305 151.16308594 417.35522461 C148.36811105 417.34343147 145.57324211 417.32697298 142.77832031 417.30639648 C149.08094658 425.38992516 155.45953563 433.40317303 161.94140625 441.34375 C165.41513037 445.60691025 168.83555121 449.90638304 172.21582031 454.24389648 C176.88904709 460.23662258 181.70838017 466.10020588 186.5559082 471.95239258 C192.08526557 478.64280004 197.45510906 485.45140403 202.77832031 492.30639648 C206.99680971 488.25380274 210.70703113 483.89849744 214.40332031 479.36889648 C215.01941162 478.61745361 215.63550293 477.86601074 216.27026367 477.09179688 C220.46510238 471.95910317 224.58852867 466.77493731 228.66357422 461.546875 C232.14553322 457.08668765 235.70033568 452.68980808 239.27832031 448.30639648 C247.60625352 438.09812112 255.69316624 427.70722985 263.77832031 417.30639648 C263.08270996 417.32210693 262.38709961 417.33781738 261.67041016 417.35400391 C258.4981306 417.41662512 255.32598146 417.45547325 252.15332031 417.49389648 C250.51169922 417.53160156 250.51169922 417.53160156 248.83691406 417.57006836 C238.5418944 417.66365945 238.5418944 417.66365945 233.77832031 414.30639648 C231.58420825 409.91817235 232.46880609 404.05939771 232.42822266 399.18554688 C232.41168027 397.7296549 232.38441195 396.27384358 232.34619141 394.81835938 C232.29123908 392.71368526 232.26952415 390.61091141 232.25488281 388.50561523 C232.23506348 387.24579834 232.21524414 385.98598145 232.19482422 384.68798828 C232.93353276 380.40687867 234.40825145 378.95838097 237.77832031 376.30639648 C240.77832031 375.68139648 240.77832031 375.68139648 243.77832031 376.30639648 C246.69927803 378.38057583 248.54258405 379.96261364 249.17919922 383.59155273 C249.27046493 386.28363622 249.21441956 388.92823603 249.09082031 391.61889648 C249.06826172 392.55024414 249.04570312 393.4815918 249.02246094 394.44116211 C248.96374109 396.73123609 248.88168889 399.01797523 248.77832031 401.30639648 C249.68598145 401.2802124 250.59364258 401.25402832 251.52880859 401.22705078 C254.91715541 401.14150834 258.30434477 401.07899696 261.69335938 401.03173828 C263.15610938 401.00669119 264.61873543 400.97264256 266.08105469 400.92919922 C268.1913925 400.86810293 270.30006783 400.84009213 272.41113281 400.81811523 C273.67844238 400.79193115 274.94575195 400.76574707 276.25146484 400.73876953 C280.90539577 401.48779275 282.47407644 403.00805083 285.77832031 406.30639648 C286.72363281 408.29858398 286.72363281 408.29858398 286.90332031 410.18139648 C286.98839844 410.79756836 287.07347656 411.41374023 287.16113281 412.04858398 C286.01595461 418.80279825 280.49919446 424.31552998 276.21582031 429.36889648 C274.95412557 430.8782457 273.69372403 432.3886768 272.43457031 433.90014648 C271.81324219 434.64522461 271.19191406 435.39030273 270.55175781 436.15795898 C268.05189492 439.18642724 265.62665125 442.26938482 263.21582031 445.36889648 C258.75710281 451.09189128 254.19947498 456.72791782 249.61181641 462.34790039 C246.13927038 466.60970814 242.72003272 470.90783275 239.34082031 475.24389648 C234.59315292 481.33087445 229.70664118 487.29664771 224.78100586 493.24023438 C220.91474262 497.90823003 217.12503274 502.62084686 213.42675781 507.42358398 C211.11744086 510.06123984 209.13101465 511.98385015 205.66503906 512.81030273 C201.3143553 512.92621793 199.17577115 512.55664331 195.40332031 510.18139648 C190.9371898 505.81961482 187.20559671 500.69873965 183.42675781 495.74389648 C179.2722336 489.7434629 179.2722336 489.7434629 173.77832031 485.30639648 C173.73707031 486.25514648 173.69582031 487.20389648 173.65332031 488.18139648 C172.38993432 496.61535164 166.88005426 502.83185394 160.31738281 507.83374023 C153.5648402 511.75021495 147.81165032 512.74730947 140.15188599 512.69407654 C139.2128892 512.69946208 138.27389242 512.70484761 137.30644119 512.71039635 C134.17600128 512.72464564 131.04598603 512.71757958 127.91552734 512.71044922 C125.66458803 512.71615438 123.4136516 512.7231192 121.16271973 512.73124695 C115.0593691 512.74917782 108.95616226 512.74800997 102.85279322 512.74230456 C97.75343031 512.73921244 92.654095 512.74530549 87.55473602 512.75134331 C74.83472461 512.7661894 62.11481477 512.76257528 49.39480959 512.75048 C38.36364862 512.74055057 27.33265545 512.75348536 16.30152036 512.7774142 C4.95813224 512.80183382 -6.38515573 512.81100673 -17.72857773 512.80476147 C-24.09038415 512.80139328 -30.45205197 512.80379795 -36.81383896 512.8210125 C-42.79754278 512.83649749 -48.78092667 512.83250843 -54.76461792 512.81370735 C-56.95672673 512.81002574 -59.14885933 512.81311739 -61.3409462 512.82359314 C-64.34142312 512.83683387 -67.34084571 512.82522775 -70.34127808 512.80760193 C-71.20161081 512.81720694 -72.06194355 512.82681194 -72.94834697 512.83670801 C-81.96205748 512.72831823 -89.8035252 509.62798477 -96.39746094 503.43530273 C-102.96642289 495.76916941 -105.34181252 488.12545397 -105.35590076 478.20944023 C-105.35825299 477.50291474 -105.36060522 476.79638926 -105.36302873 476.06845391 C-105.36969902 473.69502435 -105.36926111 471.3216498 -105.36885071 468.94821167 C-105.37215055 467.23169342 -105.37587638 465.51517594 -105.37999219 463.79865944 C-105.39000645 459.07673549 -105.39372805 454.35482425 -105.3963815 449.63289118 C-105.4002862 444.54205441 -105.40986437 439.45122769 -105.41859436 434.36039734 C-105.43835317 422.06421472 -105.44842385 409.76803128 -105.45732215 397.47183675 C-105.46170565 391.68136967 -105.46707227 385.89090351 -105.47231102 380.10043716 C-105.48932205 360.852136 -105.50381658 341.6038354 -105.51105976 322.35552788 C-105.51296965 317.36096064 -105.51488999 312.3663934 -105.5168457 307.37182617 C-105.51732944 306.13045273 -105.51781318 304.8890793 -105.51831158 303.61008848 C-105.52661326 283.49721204 -105.55195309 263.38439504 -105.58442638 243.27154456 C-105.61749347 222.62261536 -105.63550817 201.97371638 -105.638704 181.32476056 C-105.64086932 169.73090308 -105.64962141 158.13713231 -105.67516518 146.54330063 C-105.69686727 136.67035244 -105.70492494 126.79751204 -105.69519839 116.92454271 C-105.69065243 111.88824826 -105.69255738 106.85217622 -105.71195984 101.81591225 C-105.72958269 97.20168809 -105.72860084 92.58784875 -105.71306255 87.97362055 C-105.71068517 86.30803554 -105.71501679 84.64242395 -105.7268912 82.97687958 C-105.81557052 69.71243506 -104.26544243 59.37224098 -94.72949219 49.47436523 C-87.89716038 43.56791016 -80.53903361 41.1723336 -71.60522461 41.19287109 C-70.50446091 41.19294662 -69.4036972 41.19302216 -68.26957703 41.19309998 C-66.50369987 41.2008419 -66.50369987 41.2008419 -64.70214844 41.20874023 C-63.4884407 41.21015518 -62.27473297 41.21157013 -61.02424622 41.21302795 C-57.15253217 41.21861983 -53.28087622 41.23117091 -49.40917969 41.24389648 C-46.7822274 41.24891253 -44.1552742 41.25347526 -41.52832031 41.25756836 C-35.09275366 41.26858661 -28.65722082 41.28531672 -22.22167969 41.30639648 C-22.25310059 40.1878125 -22.25310059 40.1878125 -22.28515625 39.04663086 C-22.36884603 35.63335924 -22.42050762 32.22030425 -22.47167969 28.80639648 C-22.50519531 27.63334961 -22.53871094 26.46030273 -22.57324219 25.25170898 C-22.65898567 17.62053916 -22.31026276 11.57831791 -16.7734375 5.79321289 C-11.28341297 0.97518947 -7.17278486 0.00613416 0 0 Z M-6.22167969 18.30639648 C-6.22167969 25.89639648 -6.22167969 33.48639648 -6.22167969 41.30639648 C20.83832031 41.30639648 47.89832031 41.30639648 75.77832031 41.30639648 C77.09695534 28.10437029 77.09695534 28.10437029 73.77832031 16.30639648 C70.3045291 15.14846608 67.57361714 15.16517157 63.90771484 15.14526367 C62.8657193 15.13781631 62.8657193 15.13781631 61.80267334 15.13021851 C59.50548307 15.11561819 57.20836185 15.10879864 54.91113281 15.10327148 C53.31314085 15.09751849 51.71514891 15.09176078 50.11715698 15.08599854 C46.76641519 15.07549476 43.41569735 15.06964795 40.06494141 15.06616211 C35.77530315 15.06067716 31.48598228 15.03664669 27.19644356 15.00819016 C23.89528483 14.98955004 20.59420236 14.98435746 17.29299545 14.98282623 C15.71177306 14.97980252 14.13055192 14.97178344 12.54938126 14.95864105 C10.33524793 14.94155052 8.1218877 14.94346764 5.90771484 14.94995117 C4.64879425 14.94630554 3.38987366 14.94265991 2.09280396 14.93890381 C-1.71099234 15.12753491 -1.71099234 15.12753491 -6.22167969 18.30639648 Z M-85.59667969 63.74389648 C-88.72572522 68.6781606 -89.47233827 72.49059442 -89.47894859 78.33364582 C-89.48245467 79.03262823 -89.48596074 79.73161064 -89.48957306 80.45177433 C-89.49889467 82.79957842 -89.49396184 85.14713488 -89.48910522 87.49494934 C-89.4928411 89.19298288 -89.49744237 90.89101471 -89.50283587 92.5890438 C-89.515089 97.25977022 -89.51480268 101.93042514 -89.51244712 106.60116398 C-89.51203954 111.63673392 -89.52307249 116.67228075 -89.53256226 121.70783997 C-89.54918587 131.57519631 -89.55467242 141.44252876 -89.55578701 151.30989794 C-89.55673683 159.32935587 -89.56084383 167.3488059 -89.56718826 175.36826134 C-89.58480432 198.097261 -89.59402655 220.82624176 -89.59252732 243.5552483 C-89.5924474 244.78096167 -89.59236749 246.00667505 -89.59228516 247.26953125 C-89.59220339 248.49673854 -89.59212163 249.72394584 -89.59203739 250.98834123 C-89.59122437 270.88015327 -89.61036521 290.77188962 -89.63856189 310.66367976 C-89.66727542 331.08094614 -89.68110303 351.49817558 -89.67937434 371.91546267 C-89.67870991 383.38122833 -89.68422528 394.84691463 -89.70573044 406.31266212 C-89.72392207 416.07444514 -89.72830615 425.83611283 -89.71471159 435.59790543 C-89.70817179 440.57914246 -89.70810128 445.5601581 -89.72541809 450.54137421 C-89.74110906 455.10178804 -89.73832592 459.66180421 -89.72084983 464.22220811 C-89.71777116 465.87158618 -89.72144489 467.52099363 -89.73256998 469.17033706 C-89.84807778 482.55266084 -89.84807778 482.55266084 -82.97167969 493.68139648 C-76.78581505 497.33668013 -70.19286681 497.60001491 -63.19593811 497.5670929 C-62.3215726 497.57091844 -61.44720709 497.57474399 -60.54634565 497.57868546 C-57.63475736 497.5889528 -54.72336859 497.58503528 -51.81176758 497.58105469 C-49.71684081 497.5854046 -47.62191563 497.59058868 -45.5269928 497.59654236 C-39.84933937 497.60991276 -34.1717526 497.61051325 -28.4940865 497.60797906 C-23.75003635 497.60690813 -19.00599962 497.61179578 -14.26195234 497.61658448 C-3.06858624 497.62767266 8.1247463 497.62812078 19.31811523 497.62207031 C30.85725897 497.61602878 42.39628082 497.62834774 53.93540376 497.64964038 C63.85155512 497.66726396 73.7676677 497.67325658 83.68383414 497.67000264 C89.60237129 497.66819103 95.52082147 497.67081397 101.43934441 497.68471718 C107.00522363 497.69730331 112.57091297 497.69534384 118.13678932 497.68230629 C120.1761265 497.67994278 122.21547708 497.68266709 124.25479889 497.69092941 C127.04528334 497.70141748 129.83513301 497.69327967 132.62559509 497.68061829 C133.4265855 497.68799257 134.2275759 497.69536686 135.05283874 497.7029646 C141.93032387 497.63761549 148.21579525 496.36755794 153.65332031 491.99389648 C159.90408032 484.08852354 160.32420974 475.51240753 159.32568359 465.76635742 C157.84933091 459.13133084 152.62540583 454.70867524 147.77832031 450.30639648 C146.09695513 448.65389594 144.43927228 446.97949435 142.77832031 445.30639648 C142.76897461 446.06259277 142.75962891 446.81878906 142.75 447.59790039 C142.69612831 451.04304782 142.61251191 454.48686211 142.52832031 457.93139648 C142.51414062 459.12120117 142.49996094 460.31100586 142.48535156 461.53686523 C142.16876876 472.87052961 142.16876876 472.87052961 137.77832031 477.30639648 C133.52878859 479.54234501 129.47166147 479.59094405 124.77650452 479.5670929 C123.97608952 479.57091844 123.17567453 479.57474399 122.35100454 479.57868546 C119.67184292 479.58899536 116.9928964 479.58502715 114.3137207 479.58105469 C112.39170636 479.58540226 110.46969375 479.59058556 108.54768372 479.59654236 C103.3287156 479.60993836 98.10981987 479.61051038 92.89083791 479.60797906 C88.53436621 479.60690981 84.17790919 479.61179151 79.82144064 479.61658448 C69.54444211 479.62768163 59.26748014 479.62811582 48.99047852 479.62207031 C38.38689081 479.61602864 27.78343574 479.62834602 17.17987067 479.64964038 C8.07655811 479.66724998 -1.02671221 479.67325877 -10.13004118 479.67000264 C-15.56730572 479.6681887 -21.00447565 479.67083706 -26.44172478 479.68471718 C-31.55449244 479.69728051 -36.66705315 479.69536552 -41.77981758 479.68230629 C-43.65593154 479.67993775 -45.53206001 479.68268511 -47.40815735 479.69092941 C-49.96997243 479.70137506 -52.53109028 479.69331394 -55.09288025 479.68061829 C-55.83461847 479.68799257 -56.57635669 479.69536686 -57.34057182 479.7029646 C-62.03493772 479.65404942 -65.22095941 478.75391144 -69.22167969 476.30639648 C-73.51437506 471.86567713 -73.34669127 466.6836766 -73.35031414 460.7761097 C-73.35206718 460.13085565 -73.35382021 459.4856016 -73.35562637 458.8207944 C-73.36028311 456.65582753 -73.35782172 454.49092792 -73.35539246 452.32595825 C-73.35726059 450.75920713 -73.3595613 449.19245647 -73.36225778 447.62570655 C-73.36838183 443.31791423 -73.36824147 439.01014129 -73.3670634 434.70234561 C-73.36685955 430.05739972 -73.37237665 425.41246008 -73.37712097 420.76751709 C-73.38543127 411.6665194 -73.38817598 402.56552819 -73.38873335 393.46452703 C-73.3892083 386.06815619 -73.39126202 378.67178749 -73.39443398 371.27541733 C-73.40324137 350.31215583 -73.40785319 329.34889946 -73.4071035 308.38563611 C-73.40706355 307.25524387 -73.40702359 306.12485163 -73.40698242 304.96020508 C-73.40694154 303.82843515 -73.40690066 302.69666521 -73.40685854 301.53059922 C-73.40645198 283.18363516 -73.41602372 264.8366916 -73.43012079 246.48973347 C-73.44447644 227.65788326 -73.45139143 208.82604306 -73.45052701 189.99418724 C-73.45019477 179.41882643 -73.45295358 168.84348714 -73.46370506 158.26813126 C-73.47279937 149.26501778 -73.47499411 140.26193555 -73.46819564 131.25881948 C-73.4649251 126.66459113 -73.464893 122.07042279 -73.47354889 117.4762001 C-73.48139117 113.27060201 -73.48000578 109.06511175 -73.47126476 104.85951637 C-73.46972476 103.33801655 -73.4715647 101.81650877 -73.47712483 100.29501833 C-73.48418512 98.22600373 -73.4788914 96.15736739 -73.47056866 94.08836555 C-73.47078602 92.93938416 -73.47100339 91.79040276 -73.47122735 90.60660374 C-73.08597546 85.51174098 -72.49224019 81.51342896 -68.72167969 77.93139648 C-65.1842854 75.6320902 -63.40771831 75.17861526 -59.21791077 75.15922546 C-58.15931351 75.15207016 -57.10071625 75.14491486 -56.01004028 75.13754272 C-54.84375092 75.13485382 -53.67746155 75.13216492 -52.47583008 75.12939453 C-51.25140701 75.12282333 -50.02698395 75.11625214 -48.76545715 75.10948181 C-45.40183238 75.09312775 -42.03827053 75.08152077 -38.67462087 75.07327628 C-36.57434736 75.06812752 -34.47407829 75.06205182 -32.37380791 75.05576515 C-25.80586582 75.03671561 -19.23793498 75.02248233 -12.66997057 75.01415318 C-5.08171128 75.00437172 2.506257 74.97802792 10.0944137 74.93765229 C15.95602608 74.90753039 21.81755484 74.89268819 27.67924315 74.88937217 C31.18215149 74.88701773 34.68474887 74.87800664 38.18757439 74.852911 C42.09283742 74.82538346 45.99771462 74.82944937 49.90307617 74.83642578 C51.06734131 74.82361572 52.23160645 74.81080566 53.43115234 74.79760742 C54.49256943 74.80455124 55.55398651 74.81149506 56.64756775 74.81864929 C57.57137206 74.81626094 58.49517637 74.81387259 59.44697475 74.81141186 C61.77832031 75.30639648 61.77832031 75.30639648 63.57555485 77.14547443 C65.19963174 80.06333637 65.1981069 82.01806821 64.77832031 85.30639648 C63.23325565 87.34307263 62.05685875 88.16712727 59.77832031 89.30639648 C20.83832031 89.63639648 -18.10167969 89.96639648 -58.22167969 90.30639648 C-58.22167969 170.82639648 -58.22167969 251.34639648 -58.22167969 334.30639648 C2.82832031 334.30639648 63.87832031 334.30639648 126.77832031 334.30639648 C134.46053311 268.92163528 134.46053311 268.92163528 116.77832031 250.30639648 C115.04482916 247.72349467 113.48831443 245.32686755 112.02832031 242.61889648 C111.66399902 241.95374023 111.29967773 241.28858398 110.92431641 240.60327148 C97.90636531 216.02593108 94.61223276 186.73042795 102.46240234 159.97485352 C106.71708454 146.40979649 112.348323 133.37355252 122.84082031 123.55639648 C129.9947377 115.49581943 127.46364556 102.66000954 126.92114258 92.61035156 C126.87401123 91.85004639 126.82687988 91.08974121 126.77832031 90.30639648 C125.7087207 90.28657715 124.63912109 90.26675781 123.53710938 90.24633789 C119.56356519 90.17018668 115.59038266 90.08148407 111.6171875 89.98901367 C109.8985102 89.95076322 108.17975393 89.91590345 106.4609375 89.88452148 C103.98831991 89.83878521 101.51624418 89.78080565 99.04394531 89.72045898 C98.2771344 89.70890778 97.51032349 89.69735657 96.72027588 89.68545532 C89.85825173 89.49620243 89.85825173 89.49620243 86.77832031 87.30639648 C85.37374294 84.49724175 85.52936874 82.41829114 85.77832031 79.30639648 C86.67358398 77.14428711 86.67358398 77.14428711 88.77832031 75.30639648 C92.07850698 74.68275846 95.35415837 74.74659508 98.70410156 74.77514648 C99.6844487 74.77131958 100.66479584 74.76749268 101.67485046 74.7635498 C103.75028509 74.76082675 105.8257538 74.7682154 107.90112305 74.78491211 C111.06865722 74.8062472 114.23390536 74.78515897 117.40136719 74.75952148 C119.4189503 74.76216604 121.436532 74.76729365 123.45410156 74.77514648 C124.39804276 74.76704956 125.34198395 74.75895264 126.31452942 74.75061035 C131.93167336 74.83011726 135.41534964 75.40605448 139.77832031 79.30639648 C141.76464642 82.18056651 142.05961176 84.61997423 142.19238281 88.07202148 C142.23105469 88.96147461 142.26972656 89.85092773 142.30957031 90.76733398 C142.35597656 92.14791992 142.35597656 92.14791992 142.40332031 93.55639648 C142.44199219 94.49225586 142.48066406 95.42811523 142.52050781 96.39233398 C142.61456875 98.69682702 142.7002143 101.00131661 142.77832031 103.30639648 C145.2586648 101.99608213 147.73762381 100.68326181 150.21582031 99.36889648 C150.92287109 98.99571289 151.62992188 98.6225293 152.35839844 98.23803711 C155.7831069 96.58147313 155.7831069 96.58147313 158.77832031 94.30639648 C159.08870286 90.62761411 159.05692337 86.93414345 159.09082031 83.24389648 C159.11982422 82.21844727 159.14882813 81.19299805 159.17871094 80.13647461 C159.23269349 73.64611066 158.57772413 68.69239228 154.77832031 63.30639648 C149.00070256 57.67692277 143.58049601 57.01043747 135.87882996 57.03897095 C134.98182084 57.03443983 134.08481172 57.02990872 133.16062051 57.0252403 C130.15447265 57.01257869 127.14850556 57.01421782 124.14233398 57.01586914 C121.98711412 57.00988498 119.83189641 57.0030797 117.67668152 56.99551392 C111.82124384 56.97783498 105.96586461 56.97315773 100.11040282 56.97188234 C95.22225906 56.9699835 90.33412891 56.9626261 85.44599038 56.95553815 C73.91279842 56.93924929 62.37963769 56.93436965 50.84643555 56.93579102 C38.95001088 56.9369925 27.05376762 56.91589029 15.15738887 56.88430369 C4.94322614 56.85815019 -5.27087731 56.84742334 -15.48507327 56.84870183 C-21.5853012 56.84921175 -27.68536794 56.84351205 -33.78556252 56.82234573 C-39.52379889 56.8029792 -45.26172007 56.80282827 -50.99996758 56.817379 C-53.10422857 56.81947016 -55.20850921 56.81474794 -57.31273651 56.80265808 C-60.18927368 56.78720338 -63.06472434 56.79651552 -65.9412384 56.81192017 C-66.7705337 56.80163304 -67.59982899 56.79134591 -68.45425445 56.78074706 C-75.33597875 56.86197902 -80.74026283 58.75967918 -85.59667969 63.74389648 Z M174.77832031 74.30639648 C174.7056029 76.65953203 174.69461163 79.01473317 174.71582031 81.36889648 C174.72484375 82.65924805 174.73386719 83.94959961 174.74316406 85.27905273 C174.75476563 86.27807617 174.76636719 87.27709961 174.77832031 88.30639648 C176.03644531 88.08983398 177.29457031 87.87327148 178.59082031 87.65014648 C209.15995071 82.58582951 238.90240513 86.27547665 264.79394531 104.41967773 C267.19226682 106.31405745 269.49080316 108.28055104 271.77832031 110.30639648 C272.76445312 111.07983398 272.76445312 111.07983398 273.77050781 111.86889648 C290.61152004 125.39581394 301.134852 146.57376468 305.77832031 167.30639648 C306.02195312 168.38920898 306.26558594 169.47202148 306.51660156 170.58764648 C311.59334523 197.9398981 305.4825999 226.66918465 289.94433594 249.65014648 C286.8124469 254.09879288 283.40086809 258.25211117 279.77832031 262.30639648 C279.24078125 262.92643555 278.70324219 263.54647461 278.14941406 264.18530273 C274.49857348 268.12894257 270.30937869 271.23922558 265.96582031 274.36889648 C265.3614917 274.8070166 264.75716309 275.24513672 264.13452148 275.6965332 C260.51492907 278.25970349 256.95529431 280.16099786 252.90332031 281.99389648 C250.42991387 283.19635197 250.42991387 283.19635197 248.77832031 285.30639648 C247.93250309 290.44094075 248.18868369 295.15690335 248.77832031 300.30639648 C276.78887272 291.07711309 298.14683937 266.92682099 311.36499023 241.47827148 C325.10225191 213.94317092 326.52882212 181.33280541 317.15332031 152.18139648 C306.85944913 122.20102921 284.66526065 96.7599725 256.39624023 82.42285156 C240.11018297 74.60686546 190.62129684 58.46341996 174.77832031 74.30639648 Z M135.90332031 130.18139648 C119.12150163 149.86416152 112.38462696 173.84826465 113.77832031 199.30639648 C116.14842633 223.78604219 129.08045607 245.05956191 147.71582031 260.61889648 C167.68790201 275.80271884 191.39466348 282.10767264 216.24804688 278.99731445 C240.47397056 275.10865143 261.45126119 262.0747526 276.2578125 242.56103516 C290.10204546 223.22247785 295.60982285 198.51585415 292.00878906 175.09204102 C287.79394502 151.69618279 274.67867518 130.82517392 255.52050781 116.81420898 C217.44745286 90.47144412 167.40852799 96.8293318 135.90332031 130.18139648 Z M142.77832031 277.30639648 C142.77832031 318.22639648 142.77832031 359.14639648 142.77832031 401.30639648 C147.72832031 401.30639648 152.67832031 401.30639648 157.77832031 401.30639648 C158.07968517 386.32068313 158.31146005 371.33542983 158.45187855 356.34732819 C158.51882245 349.3873204 158.61001862 342.42923338 158.7590332 335.47045898 C158.90281384 328.7528807 158.97803763 322.03770761 159.01172447 315.31852722 C159.03572412 312.75702017 159.08259487 310.19562095 159.15281105 307.63496399 C160.14429267 295.03111209 160.14429267 295.03111209 156.47253036 283.42453003 C152.77020634 279.94035014 147.96258305 277.30639648 142.77832031 277.30639648 Z M-58.22167969 350.30639648 C-58.22167969 366.47639648 -58.22167969 382.64639648 -58.22167969 399.30639648 C-54.51433594 399.33217773 -50.80699219 399.35795898 -46.98730469 399.38452148 C-43.39966207 399.4229256 -39.81216397 399.46809131 -36.22460938 399.51391602 C-33.7298878 399.54215447 -31.23507627 399.5633546 -28.74023438 399.57739258 C-25.15545502 399.59878148 -21.57176051 399.64541357 -17.98730469 399.69702148 C-16.87051331 399.69825012 -15.75372192 399.69947876 -14.60308838 399.70074463 C-13.5623114 399.72046326 -12.52153442 399.74018188 -11.44921875 399.76049805 C-10.0768808 399.77382172 -10.0768808 399.77382172 -8.67681885 399.78741455 C-5.45276649 400.46893393 -4.2432975 401.75242727 -2.22167969 404.30639648 C-1.72167969 407.30639648 -1.72167969 407.30639648 -2.22167969 410.30639648 C-4.2432975 412.8603657 -5.45276649 414.14385903 -8.67681885 414.82537842 C-9.59171082 414.83426086 -10.50660278 414.84314331 -11.44921875 414.85229492 C-12.48999573 414.87201355 -13.53077271 414.89173218 -14.60308838 414.91204834 C-16.27827545 414.9138913 -16.27827545 414.9138913 -17.98730469 414.91577148 C-19.13583923 414.93230774 -20.28437378 414.94884399 -21.4677124 414.96588135 C-25.13575535 415.01446263 -28.80338339 415.03575572 -32.47167969 415.05639648 C-34.95867984 415.08454754 -37.44566059 415.11447374 -39.93261719 415.14624023 C-46.02916413 415.22356626 -52.12438923 415.2639953 -58.22167969 415.30639648 C-58.22167969 431.47639648 -58.22167969 447.64639648 -58.22167969 464.30639648 C2.82832031 464.30639648 63.87832031 464.30639648 126.77832031 464.30639648 C130.47632162 428.05062281 130.47632162 428.05062281 120.77832031 415.30639648 C117.09720074 414.39481222 114.83430378 414.13537022 111.16455078 414.25634766 C110.21424988 414.25170502 109.26394897 414.24706238 108.28485107 414.24227905 C105.15346079 414.23667234 102.02635132 414.29350836 98.89550781 414.34936523 C96.71648618 414.35387041 94.53745082 414.35383052 92.35842896 414.34944153 C86.62842494 414.34747869 80.90003638 414.39574662 75.17041016 414.45800781 C65.9931265 414.55165356 56.81574083 414.57969395 47.63803482 414.58764076 C44.43128188 414.59923588 41.22572968 414.63864656 38.01925659 414.68119812 C36.05727557 414.69146877 34.09529012 414.70093719 32.13330078 414.70947266 C31.24073578 414.72864243 30.34817078 414.74781219 29.42855835 414.76756287 C23.40987389 414.76092168 23.40987389 414.76092168 20.22488403 412.46870422 C18.24401338 409.50772029 18.19622225 407.79898486 18.77832031 404.30639648 C20.18450928 402.15301514 20.18450928 402.15301514 22.77832031 400.30639648 C26.10598781 399.69414451 29.4034634 399.74277364 32.77929688 399.76049805 C33.79425232 399.75016037 34.80920776 399.73982269 35.85491943 399.72917175 C39.20975533 399.69967364 42.56398975 399.69824306 45.91894531 399.69702148 C48.24494584 399.68204463 50.57093571 399.66531853 52.89691162 399.64691162 C59.01908854 399.60317072 65.141122 399.58322393 71.26342773 399.56817627 C78.60903237 399.54519297 85.95447826 399.49275565 93.29995728 399.44523621 C104.45945316 399.37635043 115.61849277 399.34495843 126.77832031 399.30639648 C126.77832031 383.13639648 126.77832031 366.96639648 126.77832031 350.30639648 C65.72832031 350.30639648 4.67832031 350.30639648 -58.22167969 350.30639648 Z " fill="#000000" transform="translate(139.2216796875,-0.306396484375)"/>
<path d="M0 0 C2.4375 1.5 2.4375 1.5 4 4 C4.47269945 9.99236852 3.74163995 13.48448011 0.859375 18.87890625 C0.53592102 19.49467026 0.21246704 20.11043427 -0.12078857 20.74485779 C-1.14868324 22.69259313 -2.19881059 24.6272569 -3.25 26.5625 C-3.94028457 27.86314658 -4.62909942 29.1645743 -5.31640625 30.46679688 C-8.44540121 36.36935537 -11.66942774 42.20915808 -15 48 C-14.1121582 47.97905273 -13.22431641 47.95810547 -12.30957031 47.93652344 C-9.00705545 47.86824323 -5.7052933 47.8181513 -2.40234375 47.78027344 C-0.97448879 47.76019018 0.45328425 47.73291748 1.88085938 47.69824219 C3.93640368 47.64957331 5.99085855 47.62700033 8.046875 47.609375 C9.90070801 47.5779541 9.90070801 47.5779541 11.79199219 47.54589844 C15 48 15 48 17.39257812 49.80834961 C19.29252626 52.39884694 19.73119115 54.36797662 19.55664062 57.57275391 C18.29273595 63.08404349 15.08608003 67.85809213 12.25 72.6875 C11.56587141 73.87869053 10.88326944 75.07075906 10.20214844 76.26367188 C8.81925967 78.68012022 7.4271589 81.09087821 6.02734375 83.49755859 C4.1335579 86.75881676 2.28038108 90.04169454 0.4375 93.33203125 C-0.6246667 95.22154157 -1.6871476 97.1108753 -2.75 99 C-3.23823242 99.87100342 -3.72646484 100.74200684 -4.22949219 101.6394043 C-4.91253418 102.83883667 -4.91253418 102.83883667 -5.609375 104.0625 C-6.1967041 105.10083984 -6.1967041 105.10083984 -6.79589844 106.16015625 C-8.841675 109.28606302 -10.25830388 110.7742664 -13.875 111.875 C-17.60131711 112.02405268 -19.08159647 111.25133987 -22 109 C-23.54589878 105.90820245 -23.24556187 103.42378375 -23 100 C-21.59472656 96.65429688 -21.59472656 96.65429688 -19.640625 93.21875 C-19.29497498 92.60157104 -18.94932495 91.98439209 -18.59320068 91.34851074 C-17.49256074 89.39084098 -16.3718388 87.44558349 -15.25 85.5 C-14.51166045 84.19477903 -13.77466864 82.88879469 -13.0390625 81.58203125 C-11.04302008 78.04486828 -9.02380703 74.52136256 -7 71 C-5.66556562 68.66729415 -4.33277582 66.33365415 -3 64 C-3.79172607 64.01571045 -4.58345215 64.0314209 -5.39916992 64.04760742 C-8.99520695 64.11006699 -12.5911297 64.14902635 -16.1875 64.1875 C-18.05631836 64.22520508 -18.05631836 64.22520508 -19.96289062 64.26367188 C-21.7659668 64.27817383 -21.7659668 64.27817383 -23.60546875 64.29296875 C-24.71043701 64.3086792 -25.81540527 64.32438965 -26.95385742 64.34057617 C-30.40700172 63.95449488 -32.24026279 63.07985981 -35 61 C-36.5 58.25 -36.5 58.25 -37 55 C-34.88064395 49.40434045 -32.12371088 44.09200984 -29.4375 38.75 C-29.00348877 37.88536133 -28.56947754 37.02072266 -28.12231445 36.12988281 C-25.02309274 29.97940287 -21.87923555 23.85297237 -18.6875 17.75 C-18.29167725 16.98913086 -17.89585449 16.22826172 -17.48803711 15.44433594 C-8.94843341 -0.77141667 -8.94843341 -0.77141667 0 0 Z " fill="#000000" transform="translate(351,134)"/>
</svg>
