<svg width="346" height="154" viewBox="0 0 346 154" fill="none" xmlns="http://www.w3.org/2000/svg">
<path d="M73.9698 0.137024C70.9264 0.346114 65.0138 1.06631 64.3517 1.31025C64.2007 1.36833 63.9103 1.4148 63.7128 1.4148C63.5037 1.4148 62.8764 1.51934 62.2956 1.65874C61.7264 1.78651 60.7855 1.99561 60.2047 2.12338C59.6355 2.25116 58.8224 2.46025 58.4042 2.58803C57.986 2.71581 57.5911 2.80873 57.5098 2.80873C57.3355 2.80873 55.3376 3.35469 54.8032 3.55217C54.5825 3.63348 53.6184 3.95873 52.6542 4.27237C51.7017 4.57439 50.784 4.89964 50.6214 4.98095C50.4588 5.06226 50.2497 5.13196 50.1568 5.13196C50.0638 5.13196 49.7734 5.23651 49.5179 5.36428C49.2623 5.49206 48.9952 5.58499 48.9138 5.59661C48.8325 5.59661 48.4724 5.736 48.1007 5.89863C47.1598 6.31681 47.125 6.32842 45.5684 7.00216C44.3022 7.54812 40.1437 9.60417 39.2957 10.1037C39.1098 10.2198 38.5058 10.5567 37.9598 10.8587C36.7053 11.5673 36.8911 11.4511 34.3588 13.1122C31.1295 15.238 30.7694 15.4936 28.5856 17.2476C27.9583 17.7587 27.1917 18.3744 26.8664 18.6299C23.6023 21.2435 18.7235 26.3314 15.3897 30.6178C14.7508 31.4425 12.3463 34.846 12.1372 35.241C12.0558 35.392 11.7074 35.9496 11.3589 36.4955C10.4528 37.9127 10.4877 37.8546 9.88363 38.9349C9.58161 39.4809 9.23313 40.0733 9.12858 40.2708C8.62909 41.1304 6.01546 46.5086 6.01546 46.6713C6.01546 46.7061 5.93415 46.9036 5.84122 47.1011C5.74829 47.3101 5.51596 47.8909 5.31849 48.4021C5.12102 48.9132 4.91193 49.4359 4.85385 49.5637C4.71445 49.8541 4.42405 50.6672 4.21496 51.3642C3.94779 52.247 3.68062 53.0253 3.51799 53.4551C3.42506 53.6758 3.29728 54.094 3.21597 54.3844C3.14627 54.6748 2.99526 55.1975 2.8791 55.546C2.01951 58.1945 0.764966 64.5833 0.439715 68.0914C0.149311 71.1697 0.0796145 72.1803 0.0215338 75.0611C-0.0830113 79.2197 0.195776 83.6686 0.799815 87.8388C1.00891 89.3722 1.13668 90.0343 1.61294 92.4272C2.25183 95.6333 3.7387 100.733 4.7493 103.23C4.93516 103.672 5.08617 104.09 5.08617 104.136C5.08617 104.194 5.15586 104.403 5.24879 104.601C5.34172 104.81 5.73667 105.704 6.10839 106.599C6.85182 108.33 7.79273 110.397 8.01343 110.781C8.08313 110.908 8.44323 111.559 8.80333 112.233C9.16343 112.906 9.58161 113.661 9.73262 113.917C9.88363 114.173 10.1276 114.602 10.2786 114.87C10.6851 115.601 11.8235 117.402 12.9038 119.005C18.8281 127.88 27.5402 136.069 37.1699 141.796C37.8669 142.214 39.528 143.143 40.1785 143.48C40.3295 143.561 40.5386 143.678 40.6315 143.736C40.9452 143.91 44.0467 145.432 44.8714 145.815C47.125 146.86 50.9118 148.312 53.4674 149.126C54.3618 149.404 55.3259 149.718 55.6163 149.811C56.3365 150.032 58.985 150.705 60.6694 151.089C62.0982 151.414 63.0507 151.6 64.7931 151.89C65.3391 151.983 66.0941 152.111 66.4774 152.181C69.939 152.796 76.2582 153.191 81.1138 153.087C88.9198 152.924 94.7395 152.157 101.907 150.368C103.312 150.02 104.648 149.695 104.869 149.637C105.357 149.52 105.693 149.404 108.876 148.359C111.757 147.406 112.28 147.232 112.593 147.081C112.721 147.023 113.035 146.895 113.29 146.814C113.976 146.57 116.961 145.339 117.298 145.164C117.461 145.072 118.088 144.793 118.692 144.526C120.063 143.945 124.361 141.784 126.068 140.82C126.777 140.425 127.439 140.053 127.555 139.995C127.66 139.926 127.845 139.833 127.962 139.763C128.984 139.194 129.936 138.625 131.284 137.753C131.853 137.393 132.341 137.091 132.364 137.091C132.387 137.091 132.724 136.882 133.108 136.627C133.491 136.371 133.828 136.162 133.851 136.162C133.944 136.162 137.673 133.583 140.182 131.794C141.123 131.121 144.189 128.797 144.352 128.635C144.445 128.553 145.014 128.089 145.63 127.612C148.557 125.336 152.692 121.839 155.968 118.866C156.572 118.32 157.722 117.274 158.524 116.542C162.961 112.511 165.551 109.968 185.775 89.8136C195.428 80.1954 204.384 71.2975 205.697 70.0545C208.578 67.3131 213.317 62.9571 214.99 61.5283C215.663 60.9591 216.233 60.4596 216.267 60.4248C216.384 60.297 217.847 59.0657 218.196 58.7985C218.393 58.6359 218.997 58.1364 219.532 57.6833C222.308 55.3485 229.278 50.2955 231.194 49.2268C231.392 49.1223 231.705 48.9364 231.891 48.8086C232.089 48.6808 232.611 48.3672 233.053 48.1117C233.506 47.8445 234.075 47.5076 234.331 47.345C234.586 47.194 234.877 47.0314 234.969 46.9965C235.062 46.9617 235.225 46.8803 235.318 46.8223C236.34 46.2066 240.499 44.2319 242.404 43.4652C242.694 43.349 243.194 43.1399 243.531 43.0122C243.856 42.8728 244.193 42.7682 244.251 42.7682C244.32 42.7682 244.599 42.6637 244.878 42.5475C245.412 42.292 247.399 41.6763 249.141 41.2233C250.152 40.9561 250.849 40.7935 253.149 40.2708C253.602 40.1778 254.357 40.0384 254.833 39.9804C255.309 39.9107 255.995 39.8061 256.343 39.748C258.655 39.3299 264.846 39.0278 265.985 39.2718C266.333 39.3531 267.437 39.4809 268.424 39.5738C270.492 39.7597 271.409 39.899 272.954 40.2359C274.093 40.4799 275.73 40.9329 276.439 41.2001C276.66 41.2814 277.322 41.5253 277.891 41.7344C278.751 42.048 281.504 43.3723 282.712 44.0576C285.198 45.4632 288.613 48.3207 290.948 50.9344C291.83 51.945 293.131 53.6874 294.107 55.1975C295.269 57.0096 295.199 56.8935 295.675 57.8111C295.908 58.2525 296.163 58.7056 296.233 58.7985C296.419 59.0192 297.778 62.1091 298.335 63.5611C298.568 64.1651 298.823 64.8505 298.916 65.0712C299.149 65.6752 299.416 66.5116 299.741 67.6848C299.904 68.254 300.113 68.9858 300.206 69.3111C300.543 70.4379 300.949 72.2267 301.065 73.0283C301.112 73.3419 301.239 74.0505 301.332 74.5964C302.041 78.4995 301.983 83.9707 301.193 87.7807C300.67 90.3014 299.729 93.2171 298.963 94.7272C298.847 94.9828 298.742 95.2383 298.742 95.308C298.742 95.3893 298.637 95.5752 298.51 95.7378C298.382 95.9004 298.277 96.1095 298.277 96.2024C298.277 96.2954 298.173 96.5045 298.045 96.6671C297.917 96.8297 297.813 97.0156 297.813 97.0969C297.813 97.2479 296.93 98.6883 295.919 100.198C292.876 104.74 288.055 109.178 282.712 112.372C281.329 113.197 280.725 113.441 278.588 114.08C271.432 116.194 262.047 116.368 253.788 114.533C252.37 114.219 250.233 113.685 249.78 113.522C249.594 113.452 248.7 113.162 247.805 112.872C246.911 112.57 246.016 112.256 245.807 112.163C245.61 112.07 245.401 112 245.331 112C245.273 112 244.913 111.861 244.541 111.698C244.158 111.536 243.751 111.362 243.623 111.303C242.613 110.885 238.454 108.876 237.757 108.469C237.595 108.376 237.386 108.272 237.293 108.237C237.2 108.202 236.909 108.039 236.654 107.888C236.398 107.726 235.829 107.377 235.376 107.122C234.935 106.854 234.412 106.541 234.214 106.425C234.029 106.297 233.68 106.099 233.459 105.972C232.786 105.6 229.556 103.416 227.884 102.196C225.607 100.547 222.319 98.0494 221.948 97.6893C221.855 97.608 221.53 97.3292 221.204 97.0737C220.612 96.609 219.16 95.3893 219.055 95.2615C218.858 95.0408 217.22 93.8095 216.546 93.3797C214.734 92.2065 213.108 91.5095 210.692 90.8939C209.518 90.5919 209.356 90.5686 206.742 90.5802C204.094 90.5919 203.978 90.6035 202.677 90.952C200.992 91.3934 200.562 91.556 199.134 92.253C197.914 92.8454 196.683 93.6237 195.742 94.3903C194.627 95.308 180.014 109.968 180.048 110.142C180.13 110.572 190.224 119.772 195.544 124.279C201.724 129.494 208.473 134.512 213.305 137.463C214.362 138.113 214.362 138.113 215.327 138.717C216.36 139.368 216.349 139.356 217.545 140.03C218.091 140.332 218.742 140.715 218.997 140.878C219.253 141.029 219.543 141.192 219.636 141.227C219.729 141.261 219.915 141.354 220.043 141.424C222.261 142.679 227.152 145.025 229.8 146.094C230.381 146.326 231.008 146.582 231.194 146.663C231.496 146.802 231.984 146.977 233.692 147.604C233.912 147.685 234.307 147.836 234.563 147.929C235.051 148.115 235.817 148.371 236.712 148.649C237.002 148.742 237.467 148.893 237.757 148.986C238.721 149.3 241.533 150.101 241.684 150.101C241.776 150.101 242.195 150.194 242.613 150.322C243.38 150.531 245.215 150.973 245.772 151.065C245.935 151.1 246.458 151.205 246.934 151.298C253.137 152.587 260.595 153.226 267.495 153.087C271.839 152.994 275.614 152.68 279.053 152.134C279.633 152.041 280.261 151.948 280.447 151.925C281.178 151.82 284.977 151.019 286.139 150.729C289.832 149.788 294.165 148.417 296.245 147.546C297.894 146.849 299.683 146.105 299.962 146.001C300.159 145.919 300.461 145.768 300.635 145.652C300.798 145.548 300.996 145.455 301.065 145.455C301.17 145.455 304.585 143.747 305.363 143.317C305.526 143.225 305.735 143.12 305.828 143.074C305.921 143.039 306.188 142.888 306.432 142.748C306.664 142.609 307.187 142.295 307.594 142.051C307.988 141.819 308.534 141.494 308.79 141.331C309.046 141.18 309.452 140.925 309.708 140.785C310.625 140.239 312.356 139.078 313.611 138.16C314.099 137.8 314.737 137.324 315.016 137.126C320.174 133.339 325.912 127.636 329.966 122.269C331.093 120.771 332.789 118.331 333.672 116.937C334.264 115.996 334.775 115.172 334.857 115.021C334.961 114.823 334.949 114.846 335.925 113.104C336.878 111.42 337.935 109.282 338.748 107.412C339.108 106.576 339.457 105.797 339.515 105.67C339.735 105.205 340.932 102.057 341.036 101.662C341.106 101.441 341.222 101.07 341.315 100.849C341.606 100.117 342.535 96.9575 342.814 95.7378C342.907 95.3893 343.046 94.7853 343.15 94.4019C343.557 92.8222 344.184 89.5929 344.44 87.6646C345.706 78.4298 345.392 68.8465 343.557 60.5409C343.116 58.5197 342.303 55.2556 342.14 54.849C342.059 54.6283 341.733 53.6525 341.431 52.7C340.293 49.1571 339.027 46.0788 337.261 42.594C336.645 41.3743 336.099 40.3056 336.041 40.2127C335.983 40.1198 335.902 39.9571 335.867 39.8642C335.832 39.7713 335.67 39.4809 335.519 39.2253C335.356 38.9698 335.031 38.4238 334.787 38.0172C334.032 36.7511 333.997 36.6814 333.66 36.147C332.115 33.7309 330.361 31.2799 328.177 28.5385C325.726 25.4486 320.394 20.1865 317.165 17.6542C314.854 15.842 311.183 13.1819 310.765 13.0193C310.707 12.9961 310.196 12.6708 309.65 12.3107C308.813 11.7648 307.082 10.7193 306.409 10.3708C306.2 10.2547 305.944 10.1269 304.608 9.39508C304.039 9.09306 303.179 8.65165 302.703 8.43094C302.238 8.21024 301.425 7.8269 300.903 7.58297C300.392 7.32741 299.393 6.886 298.684 6.58398C297.987 6.28196 297.197 5.94509 296.942 5.82893C296.686 5.72438 296.349 5.58499 296.186 5.55014C296.024 5.50368 295.792 5.42236 295.664 5.36428C294.188 4.69055 288.032 2.82035 284.977 2.12338C276.009 0.0673272 266.716 -0.490247 256.75 0.427427C253.114 0.764295 250.291 1.20571 245.772 2.12338C243.101 2.66934 237.734 4.16782 236.015 4.84156C235.794 4.93449 235.376 5.06226 235.097 5.13196C234.818 5.20166 234.505 5.3062 234.4 5.36428C234.296 5.42236 233.878 5.57337 233.459 5.72438C233.041 5.86378 232.391 6.10772 232.007 6.25873C231.624 6.42135 231.078 6.64206 230.788 6.75822C229.521 7.28095 228.128 7.86175 227.593 8.09408C227.28 8.24508 226.757 8.47741 226.432 8.6168C225.584 8.98852 223.911 9.7668 223.679 9.89458C223.562 9.96427 223.365 10.0572 223.237 10.1269C223.109 10.185 222.889 10.3011 222.749 10.3825C222.598 10.4522 222.389 10.5567 222.285 10.6148C221.774 10.8587 219.02 12.3456 218.068 12.8915C217.754 13.0774 217.278 13.3446 217.023 13.4956C216.569 13.7395 215.292 14.5062 214.815 14.8082C214.688 14.8779 213.898 15.3774 213.05 15.9001C212.202 16.4345 210.552 17.5031 209.391 18.293C206.417 20.3026 206.103 20.5233 205.488 20.988C205.186 21.2087 204.187 21.9637 203.281 22.6491C199.041 25.8087 196.346 28.0157 191.362 32.3718C184.881 38.0289 180.978 41.8041 159.406 63.3288C139.38 83.2969 135.547 87.0257 129.611 92.2762C125.859 95.5868 125.069 96.2489 122.293 98.4327C121.619 98.9555 121.004 99.455 120.922 99.5363C120.794 99.6524 119.064 100.953 117.193 102.347C115.416 103.648 111.409 106.216 108.354 107.993C107.54 108.469 102.72 110.816 101.558 111.303C101.43 111.362 101.024 111.536 100.64 111.698C100.269 111.861 99.9087 112 99.8506 112C99.7809 112 99.5718 112.07 99.3743 112.163C98.2824 112.663 92.7764 114.324 92.242 114.324C92.1259 114.324 91.6728 114.428 91.2198 114.544C90.7784 114.672 89.7329 114.881 88.8966 115.009C80.3587 116.38 72.6108 115.961 65.6062 113.766C64.0729 113.29 62.1911 112.628 61.5987 112.36C61.4709 112.302 61.0295 112.093 60.6113 111.907C57.9628 110.699 56.627 109.956 54.2573 108.376C51.3648 106.448 47.7522 103.137 45.7426 100.558C44.7901 99.3504 42.8967 96.6787 42.7457 96.3186C42.6295 96.0747 41.8048 94.5762 41.5724 94.2277C41.3401 93.856 40.6083 92.2297 40.1553 91.0913C39.9694 90.6151 39.7603 90.1156 39.7022 89.9878C39.6442 89.86 39.4583 89.3141 39.2957 88.7681C39.1214 88.2222 38.8891 87.4903 38.773 87.1419C38.3315 85.8292 37.7159 82.5651 37.4836 80.3464C37.1815 77.5353 37.3674 72.4242 37.8437 70.1242C37.9134 69.799 38.0063 69.253 38.0644 68.9045C38.1689 68.3237 38.4477 67.2086 38.9356 65.4197C39.6209 62.9455 41.4679 58.8217 42.8967 56.5914C43.0361 56.3707 43.3497 55.8712 43.5936 55.4879C46.5558 50.8414 51.8295 45.9162 56.9406 43.0354C58.079 42.3965 60.8204 41.0723 61.831 40.6773C62.3421 40.4799 62.8648 40.2708 62.9926 40.2127C63.3643 40.0384 64.2007 39.748 65.0254 39.5157C65.4436 39.3996 65.9431 39.2485 66.129 39.1788C66.4658 39.0627 67.7668 38.7374 68.8704 38.4819C71.333 37.9243 77.4198 38.1218 79.5804 38.8304C79.9405 38.9581 80.3006 39.0511 80.3703 39.0511C80.4284 39.0511 80.7072 39.144 80.9744 39.2718C81.2415 39.3879 81.8572 39.6319 82.3335 39.8061C82.8097 39.9804 83.3673 40.1895 83.5531 40.2708C83.7506 40.3521 84.2037 40.5263 84.5754 40.6657C84.9355 40.7935 85.5395 41.0258 85.9112 41.1536C86.2713 41.293 86.736 41.4672 86.9218 41.5485C87.1193 41.6299 87.6653 41.8389 88.1415 42.0132C88.6178 42.1874 89.1754 42.4081 89.3612 42.4894C89.5587 42.5708 89.9188 42.7102 90.1743 42.8031C90.7435 43.0006 92.8344 43.7905 93.3107 43.9879C93.5082 44.0692 93.9728 44.2435 94.3562 44.3829C94.7395 44.5223 95.2738 44.743 95.5526 44.8708C95.8198 44.9869 96.0986 45.0915 96.1566 45.0915C96.2147 45.0915 96.4006 45.1495 96.5864 45.2309C97.0395 45.4167 97.8642 45.7303 98.4799 45.9511C100.036 46.5202 100.71 47.1127 100.977 48.1117C101.326 49.4243 100.908 50.1445 98.3986 52.5258C97.1556 53.7106 96.2612 54.2682 95.2506 54.4889C94.8324 54.5702 92.3001 54.6167 87.4097 54.6167C79.1623 54.6167 78.5466 54.6632 76.1769 55.4298C75.3754 55.6854 74.539 55.9758 74.3183 56.0803C71.8789 57.1722 69.4512 59.0192 67.6855 61.1217C67.0118 61.9349 65.9547 63.5263 65.9547 63.7354C65.9547 63.8283 65.9082 63.9328 65.8385 63.9677C65.6062 64.1187 64.735 66.1515 64.3633 67.4525C63.6663 69.8338 63.6199 70.7863 63.6547 81.9146L63.6896 91.8464L85.586 91.8812C109.399 91.9161 109.062 91.9161 111.734 91.2656C113.337 90.8823 114.394 90.5802 114.87 90.3595C115.091 90.255 115.602 90.0343 116.02 89.8717C117.635 89.2095 120.051 87.7459 121.712 86.41C122.188 86.0267 129.762 78.5459 138.544 69.7874C150.311 58.0434 154.714 53.5712 155.329 52.7581C157.141 50.3536 158.187 47.6122 158.419 44.6965C158.535 43.198 158.396 41.2349 158.071 39.9223C157.815 38.8652 157.06 36.7511 156.851 36.4955C156.77 36.4026 156.595 36.1122 156.468 35.845C156.108 35.1248 154.586 33.1501 153.877 32.4763C153.529 32.1511 152.704 31.4193 152.03 30.8501C151.357 30.2809 150.787 29.793 150.752 29.7582C150.601 29.6072 148.952 28.2248 147.965 27.4349C147.372 26.9587 146.559 26.2966 146.176 25.9713C145.456 25.3789 140.077 21.3132 138.625 20.2794C136.639 18.8622 132.898 16.3531 131.807 15.7026C131.632 15.6097 130.808 15.1102 129.971 14.5991C128.426 13.6582 128.159 13.4956 127.114 12.8915C126.219 12.3804 123.547 10.9284 122.874 10.5915C122.746 10.5335 122.537 10.4173 122.409 10.3592C122.281 10.2895 122.072 10.185 121.944 10.1269C121.817 10.0572 121.608 9.95266 121.48 9.89458C121.352 9.82488 121.143 9.72033 121.015 9.66225C120.887 9.59256 120.678 9.48801 120.551 9.42993C120.423 9.36023 120.214 9.25569 120.086 9.19761C119.958 9.12791 119.761 9.03498 119.656 8.96529C119.273 8.75619 115.951 7.29256 114.452 6.67691C114.069 6.5259 113.651 6.35166 113.523 6.29357C113.395 6.23549 113.081 6.10772 112.826 6.01479C112.222 5.8057 110.154 5.03903 109.631 4.84156C108.911 4.56277 107.401 4.08651 105.624 3.5754C105.055 3.41277 104.241 3.18045 103.823 3.05267C103.033 2.83197 101.732 2.4951 101.035 2.34409C95.0996 1.03147 91.2779 0.497124 85.2956 0.137024C83.0653 0.00924656 75.991 0.00924656 73.9698 0.137024Z" fill="#000815"/>
</svg>
