<?xml version="1.0" encoding="UTF-8"?>
<svg version="1.1" xmlns="http://www.w3.org/2000/svg" width="512" height="512">
<path d="M0 0 C4.69868552 2.91318502 6.83601263 6.15445826 9.70703125 10.8671875 C10.05644272 11.44072464 10.40585419 12.01426178 10.76585388 12.60517883 C14.47939401 18.73346817 18.02979372 24.95362734 21.5625 31.1875 C22.96765477 33.65817597 24.37451273 36.12788106 25.78125 38.59765625 C26.13417618 39.21775574 26.48710236 39.83785522 26.85072327 40.47674561 C30.39784056 46.70638085 33.97679664 52.9175022 37.5625 59.125 C38.17681885 60.18871826 38.7911377 61.25243652 39.42407227 62.34838867 C40.66292223 64.49309587 41.90193541 66.6377088 43.14111328 68.78222656 C45.63754984 73.10361267 48.13137882 77.42650057 50.625 81.74951172 C51.86830247 83.9048931 53.11179003 86.06016773 54.35546875 88.21533203 C57.25334358 93.23714821 60.15012411 98.25958549 63.04275513 103.28442383 C64.05947198 105.05045522 65.07655658 106.81627431 66.09375 108.58203125 C67.36400873 110.78734155 68.63359018 112.99304216 69.90234375 115.19921875 C70.48242188 116.20597656 71.0625 117.21273437 71.66015625 118.25 C72.16168213 119.12140625 72.66320801 119.9928125 73.17993164 120.890625 C73.7805542 121.91671875 74.38117676 122.9428125 75 124 C75.26313586 124.80839608 75.52627172 125.61679216 75.7973814 126.4496851 C77.13788381 129.75073779 78.31737822 131.62290894 81 134 C87.53313618 135.55449387 94.02568333 135.29160013 100.70800781 135.17944336 C102.75176386 135.18157435 104.79551939 135.18814553 106.83924866 135.19882202 C112.38765648 135.21561835 117.93412396 135.17135011 123.48222828 135.11707377 C129.29250313 135.07149076 135.10262008 135.0848261 140.9130249 135.09266663 C151.92622361 135.09911451 162.93864826 135.05725772 173.95165801 134.99594742 C193.659359 134.88799956 213.36728686 134.86606588 233.07524943 134.85540491 C239.98876614 134.84981378 246.90185691 134.82460847 253.81524611 134.78267181 C258.12374625 134.75877503 262.43222842 134.74674246 266.74078178 134.73720932 C268.73295904 134.73005726 270.72512573 134.71768368 272.71723366 134.69959068 C296.68820895 134.48678499 296.68820895 134.48678499 306.1796875 142.19140625 C312.06101137 148.03486752 315.70866393 155.09434562 316.96142578 163.26171875 C317.12144073 164.28628174 317.28145569 165.31084473 317.44631958 166.36645508 C317.61098724 167.4623999 317.77565491 168.55834473 317.9453125 169.6875 C318.12005096 170.82276123 318.29478943 171.95802246 318.474823 173.12768555 C318.84237472 175.52446294 319.20698185 177.9216935 319.56884766 180.31933594 C320.12311183 183.98750393 320.68777105 187.65395995 321.25390625 191.3203125 C321.60999325 193.65094729 321.96548218 195.98167355 322.3203125 198.3125 C322.48902863 199.40844482 322.65774475 200.50438965 322.83157349 201.63354492 C322.98528412 202.65810791 323.13899475 203.6826709 323.29736328 204.73828125 C323.43345001 205.63587158 323.56953674 206.53346191 323.70974731 207.45825195 C323.99957947 209.99631738 324.05162051 212.44788765 324 215 C325.09352783 214.98428955 326.18705566 214.9685791 327.3137207 214.95239258 C331.41943832 214.89757823 335.52512444 214.86346501 339.63110352 214.83520508 C341.39906272 214.82023465 343.16698555 214.79985097 344.93481445 214.77368164 C359.95053484 214.55716998 372.39025478 215.15142272 383.97265625 225.81640625 C391.56148543 233.79192736 393.61113066 241.99572637 393.47070312 252.74194336 C393.05033739 262.7960631 389.16679056 270.88760633 382 278 C374.77303646 283.34864021 368.08602429 286.36344097 359 286 C359.27714844 286.70125 359.55429687 287.4025 359.83984375 288.125 C360.20207031 289.07375 360.56429688 290.0225 360.9375 291 C361.29714844 291.928125 361.65679687 292.85625 362.02734375 293.8125 C364.14319727 300.7463814 364.14890173 307.78665351 364.14526367 314.97338867 C364.15030159 316.42148422 364.15030159 316.42148422 364.15544128 317.89883423 C364.16489424 321.07189238 364.16689168 324.24489742 364.16796875 327.41796875 C364.17118572 329.63983684 364.17455012 331.86170473 364.17805481 334.08357239 C364.18403229 338.73613984 364.18589618 343.38868875 364.18530273 348.04125977 C364.1852013 353.97438774 364.19884053 359.90739555 364.21607494 365.84049511 C364.22724837 370.42957596 364.22922029 375.01862827 364.22869301 379.60772133 C364.22986558 381.79356614 364.23424629 383.97941187 364.24202538 386.16524315 C364.35712184 421.85165605 364.35712184 421.85165605 352.02734375 435.1796875 C347.02500503 439.67119009 341.20808975 442.55884847 335 445 C334.98018066 445.88147705 334.96036133 446.7629541 334.93994141 447.67114258 C334.86105858 450.99446293 334.77434786 454.31739948 334.68261719 457.64038086 C334.64473019 459.06868848 334.60981351 460.49707853 334.578125 461.92553711 C333.96588997 489.19869454 333.96588997 489.19869454 324.109375 498.8515625 C316.00742628 505.32674199 308.22681649 506.50686328 298.125 506.4375 C297.10019531 506.45748047 296.07539063 506.47746094 295.01953125 506.49804688 C286.49953794 506.49263392 279.88227508 504.53841063 272.75 499.875 C257.62734362 484.06495015 263 470.0626475 263 446 C200.63 446 138.26 446 74 446 C74 455.9 74 465.8 74 476 C71.90041556 487.5477144 69.85411244 494.833057 60.3203125 501.74609375 C52.80430192 505.80777624 46.56764887 506.49547075 38.125 506.4375 C37.10019531 506.45748047 36.07539063 506.47746094 35.01953125 506.49804688 C26.49953794 506.49263392 19.88227508 504.53841063 12.75 499.875 C5.63409004 492.43563959 2.83975821 485.33240707 2.90234375 475.17578125 C2.9037587 474.31438034 2.90517365 473.45297943 2.90663147 472.56547546 C2.9122286 469.81444831 2.92478054 467.06350256 2.9375 464.3125 C2.94251537 462.4472668 2.94707821 460.58203233 2.95117188 458.71679688 C2.96219708 454.14449989 2.97945973 449.57226375 3 445 C2.38008682 444.79798477 1.76017365 444.59596954 1.12147522 444.38783264 C0.30932053 444.12070969 -0.50283417 443.85358673 -1.33959961 443.57836914 C-2.14513779 443.31447891 -2.95067596 443.05058868 -3.78062439 442.77870178 C-12.11283109 439.85521998 -18.52871399 433.47767532 -23 426 C-26.49390121 418.28401925 -27.58267845 411.5082102 -27.51757812 403.09375 C-27.5245874 401.9588916 -27.53159668 400.8240332 -27.53881836 399.65478516 C-27.55629685 395.93626801 -27.54481095 392.2185237 -27.53125 388.5 C-27.53394781 385.8964829 -27.53783263 383.29296679 -27.54284668 380.68945312 C-27.55009522 375.24600999 -27.54060945 369.80278492 -27.52148438 364.359375 C-27.49972074 358.09316783 -27.50677412 351.8274815 -27.52879 345.56128693 C-27.54922754 339.4983895 -27.54693951 333.43572039 -27.53526306 327.37280273 C-27.5326059 324.80851162 -27.53582971 322.24420708 -27.54518127 319.67993164 C-27.55540669 316.08835274 -27.53976051 312.49775625 -27.51757812 308.90625 C-27.52567505 307.85969238 -27.53377197 306.81313477 -27.54211426 305.73486328 C-27.45970687 298.4865452 -25.86502501 292.64647637 -23 286 C-23.9075 286.103125 -24.815 286.20625 -25.75 286.3125 C-33.50944609 286.29672877 -41.90147677 282.07228849 -47.47265625 276.80078125 C-55.91138909 266.85127783 -57.86653608 256.67848824 -57.18212891 244.00146484 C-56.33917913 234.73805697 -50.68757816 228.06297344 -44 222 C-35.80010041 215.97356777 -26.7718233 214.67363191 -16.80859375 214.8046875 C-15.97787857 214.8075174 -15.14716339 214.81034729 -14.29127502 214.81326294 C-11.67319495 214.82433709 -9.05547429 214.8494164 -6.4375 214.875 C-4.64779145 214.88504635 -2.85807746 214.89416928 -1.06835938 214.90234375 C3.28789604 214.92423435 7.64388738 214.95867367 12 215 C12.06058594 214.20335937 12.12117187 213.40671875 12.18359375 212.5859375 C12.26738281 211.52632812 12.35117188 210.46671875 12.4375 209.375 C12.55931641 207.80878906 12.55931641 207.80878906 12.68359375 206.2109375 C12.98954811 203.10606737 13.47269414 200.07376158 14 197 C12.70675812 196.99413376 11.41351624 196.98826752 10.08108521 196.98222351 C-2.13032155 196.92491123 -14.34155168 196.85210501 -26.55277824 196.76428509 C-32.83009421 196.71963403 -39.10734606 196.68036611 -45.38476562 196.65356445 C-51.44734972 196.62747925 -57.50968638 196.58703948 -63.57211685 196.53681374 C-65.88042234 196.52018036 -68.1887706 196.50864418 -70.49712753 196.50238609 C-73.74037114 196.49270677 -76.98298673 196.46460091 -80.22607422 196.43237305 C-81.17194901 196.43380814 -82.11782379 196.43524323 -83.09236145 196.4367218 C-93.09269616 196.29697472 -101.64709643 194.02154955 -109 187 C-115.70944921 179.53014654 -118.18777933 171.82562468 -117.73046875 161.73828125 C-116.76957756 152.99142606 -111.92813302 145.2759766 -107.88818359 137.62109375 C-105.72867553 133.51015036 -103.6710089 129.35008387 -101.61328125 125.1875 C-89.94285626 101.61825039 -89.94285626 101.61825039 -84.72428894 91.8218689 C-79.47771809 81.96934521 -74.47590016 72.00263489 -69.5078125 62.0078125 C-69.12939524 61.24706421 -68.75097797 60.48631592 -68.36109352 59.70251465 C-64.80395128 52.55129213 -61.25021618 45.39838832 -57.70605469 38.24072266 C-55.74803231 34.28699855 -53.78414371 30.3362358 -51.81649399 26.38729477 C-51.07511567 24.89652428 -50.33595364 23.40464932 -49.59912491 21.91162491 C-48.57437521 19.83558287 -47.54219703 17.76339315 -46.50830078 15.69189453 C-45.92557404 14.516763 -45.34284729 13.34163147 -44.74246216 12.13088989 C-42.07276895 7.33393322 -39.21870497 3.81855606 -34.625 0.8125 C-33.89539063 0.32394531 -33.16578125 -0.16460937 -32.4140625 -0.66796875 C-22.27307464 -6.26356238 -9.97856484 -5.56425549 0 0 Z M-25 21 C-26.96862995 24.14321513 -28.55993894 27.44611159 -30.16796875 30.78515625 C-30.64768631 31.75545273 -31.12740387 32.72574921 -31.62165833 33.72544861 C-33.15505109 36.83232111 -34.67184298 39.94694256 -36.1875 43.0625 C-38.17671342 47.11799314 -40.17223723 51.17036758 -42.16796875 55.22265625 C-42.66540085 56.23547668 -43.16283295 57.24829712 -43.67533875 58.29180908 C-46.59044643 64.20952577 -49.58302921 70.07418954 -52.6875 75.89453125 C-57.27941707 84.51537691 -61.65964106 93.23689266 -66.01953125 101.9765625 C-66.37499212 102.68895269 -66.730453 103.40134289 -67.09668541 104.13532066 C-69.67146597 109.29713263 -72.24234883 114.46088181 -74.8125 119.625 C-77.4039336 124.83167264 -79.99678115 130.03763226 -82.59299278 135.24192429 C-83.61655359 137.29543261 -84.63766548 139.35014545 -85.65864563 141.40493774 C-88.65102067 147.41071939 -91.66177221 153.36720198 -95.10380554 159.13119507 C-96.80420756 162.67698768 -96.64612945 165.12322329 -96 169 C-93.82425584 171.69105198 -92.08934144 173.45532928 -89 175 C-86.98649146 175.10258661 -84.96953586 175.13951943 -82.95343018 175.14717102 C-81.66357208 175.15432632 -80.37371399 175.16148163 -79.04476929 175.16885376 C-77.60699487 175.17169417 -76.16922019 175.17440588 -74.73144531 175.17700195 C-73.22366173 175.18326553 -71.7158797 175.18991224 -70.20809937 175.19691467 C-66.1046454 175.21433512 -62.00120309 175.22487946 -57.89772129 175.2331202 C-55.334428 175.23826859 -52.77113833 175.24434442 -50.2078476 175.25063133 C-42.1891946 175.2696871 -34.17055084 175.28391691 -26.15187955 175.2922433 C-16.89344873 175.30201545 -7.63525701 175.32833268 1.62308955 175.36874419 C8.77730664 175.39890045 15.93145519 175.41371174 23.08573461 175.41702431 C27.35945691 175.41937554 31.6329239 175.42834506 35.90657806 175.45348549 C39.92854936 175.47676254 43.95009719 175.48100111 47.97211838 175.47072411 C49.44671665 175.47022853 50.92133573 175.47655561 52.39587021 175.49028015 C54.41233437 175.50799556 56.42898235 175.49850878 58.44549561 175.48774719 C60.13677645 175.49132972 60.13677645 175.49132972 61.86222458 175.49498463 C65.74516737 174.88244972 67.93782386 173.41769874 71 171 C72.65652947 167.68694105 72.60492996 164.56791216 72 161 C70.35711669 157.19590673 68.19314043 153.75902468 66 150.25 C64.7066534 148.11038958 63.41505649 145.96972076 62.125 143.828125 C61.10792969 142.15459961 61.10792969 142.15459961 60.0703125 140.44726562 C56.94855184 135.27932741 53.98149176 130.02297092 51.00439453 124.77087402 C49.3208143 121.8025101 47.62972765 118.83844066 45.9375 115.875 C45.60564697 115.29385437 45.27379395 114.71270874 44.93188477 114.11395264 C41.65760438 108.38798145 38.33291778 102.69197115 35 97 C29.96810115 88.40482549 24.99623425 79.77680733 20.0625 71.125 C14.68565102 61.69731949 9.29523405 52.27781909 3.875 42.875 C3.27179932 41.82715332 2.66859863 40.77930664 2.04711914 39.69970703 C-0.70574669 34.92838151 -3.47243585 30.16512093 -6.2734375 25.421875 C-6.73927246 24.63135742 -7.20510742 23.84083984 -7.68505859 23.02636719 C-9.45858198 20.29331035 -11.13973232 18.57314722 -14 17 C-19.17795356 16.13700774 -21.3286039 17.40546685 -25 21 Z M92 156 C92.11433128 157.13161308 92.11433128 157.13161308 92.23097229 158.28608704 C92.32692184 159.27618271 92.4228714 160.26627838 92.52172852 161.28637695 C92.61857437 162.26766068 92.71542023 163.2489444 92.81520081 164.25996399 C93.33302211 171.93775189 90.72845243 179.39070008 85.796875 185.25 C75.62362274 195.15786307 64.38831058 195.33335539 51 195.625 C49.54294718 195.66324966 48.08591529 195.70230527 46.62890625 195.7421875 C43.08613074 195.83742506 39.5431957 195.92172897 36 196 C33.10204345 210.42167732 30.977966 224.95390795 28.8125 239.5 C28.4410236 241.98050896 28.06928084 244.46097804 27.69726562 246.94140625 C26.79510776 252.96048154 25.89623168 258.98003961 25 265 C40.80094476 267.83896162 60.27562615 270.91520435 74.52069092 261.8560791 C86.96437917 252.78008399 97.23605438 240.87555287 107.42407227 229.42230225 C111.64793247 224.72138586 115.99577553 220.13831962 120.33789062 215.546875 C125.20789051 210.39034688 130.06395424 205.22653634 134.82225037 199.96646118 C135.54037399 199.17633133 136.25849762 198.38620148 136.99838257 197.5721283 C138.33301351 196.09985842 139.66077582 194.62131985 140.98014832 193.13536072 C146.50709199 187.05249324 146.50709199 187.05249324 151 186 C154.77457401 186.13244119 157.21187908 186.51500251 160.4375 188.5 C162.87071519 192.3931443 162.95568072 195.55795529 162 200 C157.34484981 207.15137845 149.93638561 213.18118704 143.88891792 219.18624687 C142.0334583 221.02881274 140.18125528 222.87459891 138.32981873 224.72120667 C134.41020186 228.62947705 130.48662665 232.53375843 126.5625 236.4375 C121.9890669 240.98733652 117.41726793 245.53879091 112.84962273 250.09443855 C111.02128389 251.91627789 109.18997151 253.73509241 107.35853577 255.55381775 C106.24872489 256.65999966 105.13905217 257.7663202 104.02954102 258.87280273 C103.26057495 259.63401932 103.26057495 259.63401932 102.47607422 260.41061401 C101.29825605 261.5882521 100.14602077 262.79139606 99 264 C99 264.33 99 264.66 99 265 C110.65947454 267.39831344 122.3172734 268.93620032 134.1875 269.8125 C135.07250309 269.87811882 135.95750618 269.94373764 136.86932755 270.01134491 C159.91577982 271.51334376 177.91282887 268.08965541 195.81254578 252.87815857 C213.89666762 236.77477238 230.23608148 218.5416146 245.73706055 199.96528625 C246.72855087 198.78034592 246.72855087 198.78034592 247.7400713 197.5714674 C248.96342666 196.10092839 250.17763919 194.62271304 251.38058758 193.13543415 C256.41518608 187.05752703 256.41518608 187.05752703 261 186 C264.77457401 186.13244119 267.21187908 186.51500251 270.4375 188.5 C272.87071519 192.3931443 272.95568072 195.55795529 272 200 C267.34484981 207.15137845 259.93638561 213.18118704 253.88891792 219.18624687 C252.0334583 221.02881274 250.18125528 222.87459891 248.32981873 224.72120667 C244.41020186 228.62947705 240.48662665 232.53375843 236.5625 236.4375 C231.9890669 240.98733652 227.41726793 245.53879091 222.84962273 250.09443855 C221.02128389 251.91627789 219.18997151 253.73509241 217.35853577 255.55381775 C216.24872489 256.65999966 215.13905217 257.7663202 214.02954102 258.87280273 C213.51689697 259.38028046 213.00425293 259.88775818 212.47607422 260.41061401 C211.29825605 261.5882521 210.14602077 262.79139606 209 264 C209 264.33 209 264.66 209 265 C242.66 265 276.32 265 311 265 C308.916875 251.160625 306.83375 237.32125 304.6875 223.0625 C304.03612061 218.72746338 303.38474121 214.39242676 302.71362305 209.92602539 C302.11653131 205.96650251 302.11653131 205.96650251 301.51887512 202.00706482 C301.25738977 200.2729299 300.99672747 198.53867074 300.73677063 196.80430603 C299.96695404 191.67055805 299.17924957 186.54016953 298.37075424 181.41237259 C297.99773052 178.98523326 297.65442712 176.55507646 297.31338501 174.1232605 C297.08194187 172.59302864 296.8496718 171.06292155 296.61645508 169.53295898 C296.48279683 168.49753133 296.48279683 168.49753133 296.34643841 167.44118595 C295.55866135 162.51062384 293.80650404 160.15456276 290 157 C286.92292236 155.46146118 283.69458627 155.86675158 280.318573 155.87974548 C279.11544533 155.87846385 279.11544533 155.87846385 277.88801205 155.87715632 C275.18557295 155.87550198 272.48319516 155.88102214 269.78076172 155.88647461 C267.8494568 155.88675652 265.91815178 155.88659868 263.98684692 155.8860321 C258.73092531 155.88574427 253.47502635 155.89163875 248.21911001 155.89860606 C242.73112699 155.90484192 237.24314349 155.90544358 231.75515747 155.90663147 C221.35709105 155.9097441 210.95903509 155.91795657 200.56097329 155.92798096 C188.72560331 155.93914421 176.89023285 155.94465308 165.05485892 155.94967639 C140.70323347 155.96013923 116.35161732 155.97773736 92 156 Z M-33.375 241.5625 C-36.51933506 246.27900259 -36.89540654 250.40161704 -36 256 C-33.63088125 260.23663254 -30.51461858 263.20381052 -26 265 C-22.70532734 265.27566195 -22.70532734 265.27566195 -19.046875 265.1953125 C-18.05654266 265.19106766 -18.05654266 265.19106766 -17.04620361 265.18673706 C-14.94728103 265.17558415 -12.84879258 265.15048946 -10.75 265.125 C-9.32292285 265.11496384 -7.89583898 265.1058391 -6.46875 265.09765625 C-2.97902672 265.07566111 0.51044423 265.04116536 4 265 C4.22051025 263.89744873 4.44102051 262.79489746 4.66821289 261.65893555 C5.06964348 259.65178261 5.47200556 257.64479658 5.88452148 255.63989258 C7.14109731 249.13980656 7.5733456 242.59947243 8 236 C3.57091622 235.92539766 -0.8578269 235.87118629 -5.28735352 235.83520508 C-6.79165017 235.82019278 -8.29590361 235.79977647 -9.80004883 235.77368164 C-11.97227696 235.73696184 -14.14392251 235.72019839 -16.31640625 235.70703125 C-17.62037354 235.6913208 -18.92434082 235.67561035 -20.26782227 235.65942383 C-25.67855881 236.15317522 -29.5901911 237.47889039 -33.375 241.5625 Z M328 236 C328.47616303 243.36526988 329.07314128 250.57948996 330.5625 257.8125 C330.77036133 258.86920898 330.77036133 258.86920898 330.98242188 259.94726562 C331.31494994 261.63283891 331.65641425 263.3166459 332 265 C336.16253275 265.09938095 340.32442479 265.17170617 344.48779297 265.21972656 C345.90197795 265.23975843 347.31608097 265.26699248 348.72998047 265.30175781 C350.77071419 265.35065489 352.8103469 265.37305123 354.8515625 265.390625 C356.07697754 265.41157227 357.30239258 265.43251953 358.56494141 265.45410156 C363.65515852 264.7811944 366.63181228 262.22416796 370.375 258.875 C372.78223661 254.61604292 372.76618977 250.78102419 372 246 C369.77281414 241.62517063 367.11374293 238.06366409 362.33691406 236.43188477 C359.07388095 235.82884407 355.92670681 235.88917973 352.609375 235.90234375 C351.55245453 235.90446617 351.55245453 235.90446617 350.47418213 235.90663147 C348.23274416 235.91221067 345.99140757 235.92475927 343.75 235.9375 C342.22656395 235.94251769 340.70312632 235.94708013 339.1796875 235.95117188 C335.45309228 235.96217326 331.72655604 235.97942354 328 236 Z M-1.9375 293 C-5.47877961 298.15095217 -6.27903859 301.48181448 -6.125 307.75 C-6.11597656 308.44738281 -6.10695313 309.14476562 -6.09765625 309.86328125 C-6.07419888 311.57566958 -6.03833104 313.28788004 -6 315 C-5.34104736 315.01458252 -4.68209473 315.02916504 -4.00317383 315.04418945 C16.06078271 315.53996346 33.43421012 316.11718324 48.7421875 330.609375 C57.18442592 339.54821568 62.05914553 350.17991674 62.375 362.4375 C62.42398438 363.73558594 62.47296875 365.03367187 62.5234375 366.37109375 C61.86172232 370.95865648 60.56223207 372.12156224 57 375 C54.00700378 375.63923645 54.00700378 375.63923645 50.64916992 375.65942383 C49.3882402 375.67906693 48.12731049 375.69871002 46.82817078 375.71894836 C45.46226866 375.71550544 44.09636782 375.71152046 42.73046875 375.70703125 C41.32511763 375.72015366 39.91978534 375.73545957 38.51448059 375.75285339 C34.82697574 375.79265426 31.1399648 375.80289051 27.45227051 375.80688477 C23.68482528 375.81622571 19.91766912 375.85364509 16.15039062 375.88867188 C8.76692454 375.95319731 1.38375438 375.98647848 -6 376 C-6.12435639 380.98037787 -6.21469131 385.95983617 -6.2746582 390.94140625 C-6.2996766 392.63297281 -6.3337029 394.32443264 -6.37719727 396.015625 C-7.06979427 408.01025548 -7.06979427 408.01025548 -2.38793945 418.66235352 C2.44261335 423.31786782 6.7611671 425.12294068 13.34994221 425.13142776 C15.02538151 425.13718948 15.02538151 425.13718948 16.73466808 425.1430676 C17.96694029 425.14220112 19.1992125 425.14133463 20.46882629 425.14044189 C21.77389293 425.14341302 23.07895956 425.14638414 24.42357367 425.1494453 C28.05371949 425.15752421 31.68384555 425.15930536 35.3139993 425.16004276 C39.22616872 425.16189176 43.13832785 425.1694383 47.05049133 425.17617798 C55.60829345 425.18976798 64.16609088 425.19578701 72.72390199 425.20018864 C78.06568327 425.20294983 83.40746273 425.20718695 88.74924278 425.21169281 C103.53415342 425.22388616 118.3190626 425.23418547 133.10397816 425.2375679 C134.05049902 425.23778747 134.99701989 425.23800703 135.9722232 425.23823325 C136.9210295 425.23845153 137.8698358 425.23866981 138.84739381 425.2388947 C140.77008871 425.23933817 142.69278361 425.23978473 144.61547852 425.24023438 C146.04606806 425.24056652 146.04606806 425.24056652 147.50555839 425.24090537 C162.96280081 425.24485423 178.4199961 425.26231062 193.87722031 425.2855939 C209.74046022 425.30929623 225.60367647 425.32176924 241.46693438 425.32293582 C250.37618906 425.32385319 259.28538235 425.32962111 268.19462013 425.34775543 C275.78039084 425.36314131 283.36608118 425.36828583 290.95186452 425.36001733 C294.82297362 425.35610549 298.6939208 425.35706631 302.56501007 425.37107468 C306.76019848 425.38611719 310.9550206 425.37796298 315.15022278 425.36749268 C316.37580283 425.37554908 317.60138287 425.38360548 318.86410171 425.39190602 C326.3078332 425.34829491 330.9543294 424.69152286 336.6875 419.625 C342.46423706 413.0676228 343.13434352 407.43638323 343.09765625 398.8515625 C343.0962413 398.19417084 343.09482635 397.53677917 343.09336853 396.85946655 C343.08781762 394.78126269 343.07527465 392.70317073 343.0625 390.625 C343.05747864 389.20703282 343.05291685 387.78906393 343.04882812 386.37109375 C343.03786437 382.91402678 343.02063421 379.45702433 343 376 C342.20930618 375.99857498 341.41861237 375.99714996 340.60395813 375.99568176 C333.14409712 375.97783545 325.68492586 375.93617485 318.22536945 375.86790943 C314.39048286 375.83365089 310.55599412 375.80853135 306.72094727 375.80444336 C303.01825057 375.80015775 299.31645118 375.77167546 295.61403465 375.72656822 C294.20313943 375.71360123 292.79213677 375.70928279 291.38118935 375.71384621 C289.40159152 375.71875663 287.42199816 375.68977706 285.44262695 375.65942383 C284.31677689 375.65276199 283.19092682 375.64610016 282.03096008 375.63923645 C278.03459996 374.79639491 276.52379125 373.14561499 274 370 C271.63532417 358.20444055 275.62407588 347.0727072 281.875 337.125 C290.18866447 325.54525305 300.75675481 319.12474628 314.8046875 316.4699707 C317.91144791 316.01302436 320.91795311 315.79677489 324.0546875 315.68359375 C325.71757813 315.62075195 325.71757813 315.62075195 327.4140625 315.55664062 C329.12722656 315.49766602 329.12722656 315.49766602 330.875 315.4375 C332.0403125 315.39431641 333.205625 315.35113281 334.40625 315.30664062 C337.27072625 315.20098371 340.13528321 315.09888201 343 315 C343.0204492 313.58730118 343.03488643 312.1745147 343.046875 310.76171875 C343.05557617 309.97498779 343.06427734 309.18825684 343.07324219 308.37768555 C342.83960264 300.79296693 340.17731022 295.01008336 334.625 289.75 C330.08756492 286.72504328 325.75559049 285.75072162 320.35176373 285.74273109 C318.69104022 285.73305776 318.69104022 285.73305776 316.99676675 285.723189 C315.79084321 285.7262862 314.58491968 285.7293834 313.342453 285.73257446 C312.053274 285.72804335 310.764095 285.72351224 309.43584996 285.71884382 C305.86385842 285.70662385 302.29196061 285.70687309 298.71995294 285.70923257 C294.86502987 285.70964099 291.01013675 285.6985992 287.15522766 285.68911743 C279.60511732 285.67251205 272.05503822 285.6670081 264.50491115 285.66589268 C258.36715927 285.664942 252.2294177 285.66083072 246.09166908 285.65449142 C228.68604474 285.6368804 211.28044505 285.62765236 193.87481173 285.62915237 C192.93667806 285.62923228 191.99854439 285.6293122 191.03198242 285.62939453 C190.09270196 285.62947629 189.15342149 285.62955805 188.18567798 285.62964229 C172.96342719 285.63045519 157.74127535 285.61131624 142.51905318 285.5831178 C126.88509115 285.55438538 111.25117738 285.5405777 95.61718827 285.54230535 C86.84144653 285.54296912 78.06580852 285.5374825 69.29009056 285.51594925 C61.81827405 285.49773277 54.3466083 285.49339394 46.87477919 285.5069681 C43.06399052 285.51349538 39.25349106 285.51362387 35.44272995 285.4962616 C31.30776739 285.47761629 27.1734736 285.49009148 23.03849792 285.50552368 C21.83926655 285.49523656 20.64003518 285.48494943 19.40446347 285.47435057 C11.21864876 285.54187672 3.70341463 286.54011536 -1.9375 293 Z M-6 336 C-6 342.27 -6 348.54 -6 355 C9.18 355 24.36 355 40 355 C36.58471622 346.46179055 31.70287163 341.80886123 23.4296875 337.91015625 C19.18392838 336.31970307 15.21474483 335.87593716 10.69921875 335.90234375 C9.72275391 335.90556641 8.74628906 335.90878906 7.74023438 335.91210938 C6.22913086 335.92467773 6.22913086 335.92467773 4.6875 335.9375 C3.66076172 335.94201172 2.63402344 335.94652344 1.57617188 335.95117188 C-0.94924388 335.96291799 -3.47462952 335.98085229 -6 336 Z M300.171875 347.09765625 C297.0967846 350.66478966 297.0967846 350.66478966 296 355 C311.51 355 327.02 355 343 355 C343 348.73 343 342.46 343 336 C339.37453463 335.91829085 335.75095107 335.85915746 332.125 335.8125 C331.11179687 335.78736328 330.09859375 335.76222656 329.0546875 335.73632812 C317.47176119 335.62495383 307.9694213 338.15047172 300.171875 347.09765625 Z M24 446 C23.86194233 450.75276301 23.74263952 455.49853508 23.67041016 460.25170898 C23.64029913 461.86685796 23.59939937 463.48184423 23.54736328 465.09643555 C23.47428466 467.42277163 23.4404912 469.74694148 23.4140625 472.07421875 C23.38309479 472.79212082 23.35212708 473.51002289 23.32022095 474.24967957 C23.3183449 477.06602272 23.46443108 479.31745095 25.23944092 481.57958984 C29.25805531 485.13115092 32.82066473 485.77103389 38 485.625 C38.68578125 485.64433594 39.3715625 485.66367187 40.078125 485.68359375 C43.89404554 485.64718229 46.46893735 485.01883555 49.4375 482.7109375 C53.51759118 478.39449958 53.12231981 474.86747592 53.09765625 469.046875 C53.09553383 468.05654266 53.09553383 468.05654266 53.09336853 467.04620361 C53.08779245 464.94742206 53.07524447 462.84874905 53.0625 460.75 C53.0574819 459.32291821 53.05291954 457.89583475 53.04882812 456.46875 C53.03868377 452.97909168 53.01910401 449.48966668 53 446 C43.43 446 33.86 446 24 446 Z M284 446 C283.86194233 450.75276301 283.74263952 455.49853508 283.67041016 460.25170898 C283.64029913 461.86685796 283.59939937 463.48184423 283.54736328 465.09643555 C283.47428466 467.42277163 283.4404912 469.74694148 283.4140625 472.07421875 C283.38309479 472.79212082 283.35212708 473.51002289 283.32022095 474.24967957 C283.3183449 477.06602272 283.46443108 479.31745095 285.23944092 481.57958984 C289.25805531 485.13115092 292.82066473 485.77103389 298 485.625 C298.68578125 485.64433594 299.3715625 485.66367187 300.078125 485.68359375 C303.89404554 485.64718229 306.46893735 485.01883555 309.4375 482.7109375 C313.51759118 478.39449958 313.12231981 474.86747592 313.09765625 469.046875 C313.09553383 468.05654266 313.09553383 468.05654266 313.09336853 467.04620361 C313.08779245 464.94742206 313.07524447 462.84874905 313.0625 460.75 C313.0574819 459.32291821 313.05291954 457.89583475 313.04882812 456.46875 C313.03868377 452.97909168 313.01910401 449.48966668 313 446 C303.43 446 293.86 446 284 446 Z " fill="#000000" transform="translate(118,5)"/>
<path d="M0 0 C1.29123276 -0.00571014 2.58246552 -0.01142029 3.91282654 -0.01730347 C5.34696951 -0.01854882 6.78111259 -0.01967392 8.21525574 -0.02069092 C9.72318646 -0.02531943 11.23111601 -0.03034414 12.73904419 -0.03573608 C16.83831178 -0.04885904 20.93756299 -0.05530486 25.03684831 -0.05974674 C27.59796955 -0.06267768 30.15908632 -0.06678254 32.72020531 -0.07125092 C40.73351833 -0.08492568 48.74682112 -0.09459239 56.76014501 -0.09845281 C66.01003218 -0.10293342 75.25977157 -0.1204815 84.50961381 -0.1494534 C91.65960582 -0.17107079 98.80955626 -0.18115712 105.9595806 -0.18249393 C110.22988451 -0.18354193 114.50004949 -0.1894487 118.77031898 -0.20731354 C122.78814899 -0.2237952 126.80573565 -0.22594934 130.82358742 -0.21717453 C132.29656628 -0.2164042 133.76955823 -0.22074641 135.24250412 -0.23063278 C137.25676304 -0.24335734 139.27111977 -0.23568193 141.28540039 -0.22705078 C142.41162213 -0.22851734 143.53784388 -0.2299839 144.69819355 -0.2314949 C148.33924875 0.20048281 150.72183406 1.21969626 153.83317566 3.14044189 C157.05494723 8.53812095 157.27637318 13.36461245 157.23161316 19.54669189 C157.23591843 20.87198914 157.23591843 20.87198914 157.24031067 22.22406006 C157.24234267 24.08307541 157.23687356 25.94211256 157.22428894 27.80108643 C157.20822275 30.63214329 157.22416692 33.46177271 157.24333191 36.29278564 C157.24134932 38.10659085 157.23750533 39.92039518 157.23161316 41.73419189 C157.23768585 42.57292847 157.24375854 43.41166504 157.25001526 44.27581787 C157.17989027 50.19140947 156.57292918 55.45768455 152.12821102 59.80993748 C149.07876844 61.57779556 146.90601098 61.52071949 143.38751221 61.52812195 C142.74242106 61.53350749 142.09732992 61.53889302 141.43269056 61.54444176 C139.27310365 61.55873874 137.11412819 61.55161376 134.95451355 61.54449463 C133.40540066 61.55019733 131.85629198 61.5571612 130.30718994 61.56529236 C126.10055319 61.58325034 121.89412473 61.58205043 117.68746114 61.57634997 C114.17594759 61.57326185 110.66447427 61.57934639 107.15296644 61.58538872 C98.86900807 61.59944107 90.58515282 61.59786684 82.30119324 61.58648682 C73.7544027 61.5750052 65.20792593 61.58908029 56.66117674 61.61588329 C49.32347657 61.63803329 41.98587494 61.64467925 34.64814371 61.63880688 C30.26552629 61.63543436 25.88311002 61.63787179 21.50052071 61.65505791 C17.37917548 61.67051385 13.25829537 61.66658683 9.13696861 61.64775276 C7.62487503 61.64406306 6.11274708 61.6471865 4.60068512 61.65763855 C2.53519384 61.6708255 0.47124761 61.65932438 -1.59417725 61.64164734 C-3.32719038 61.64133341 -3.32719038 61.64133341 -5.09521389 61.64101315 C-8.82521681 61.03314563 -10.4846674 59.75025696 -13.16682434 57.14044189 C-14.36824583 54.73759892 -14.31912999 53.17885516 -14.35969543 50.49468994 C-14.37575836 49.52996262 -14.39182129 48.56523529 -14.40837097 47.5712738 C-14.45278947 43.15724352 -14.49388434 38.74336405 -14.516922 34.3291626 C-14.53348608 32.00028494 -14.56078176 29.6714582 -14.59895325 27.34283447 C-14.65368436 23.98734122 -14.67559082 20.63303999 -14.69026184 17.27716064 C-14.71293121 16.23742599 -14.73560059 15.19769135 -14.75895691 14.12644958 C-14.73782536 6.90338153 -14.73782536 6.90338153 -11.8216095 3.00689697 C-7.77690608 0.16325548 -4.83055777 0.01277166 0 0 Z M6.83317566 21.14044189 C6.83317566 27.41044189 6.83317566 33.68044189 6.83317566 40.14044189 C49.40317566 40.14044189 91.97317566 40.14044189 135.83317566 40.14044189 C135.83317566 33.87044189 135.83317566 27.60044189 135.83317566 21.14044189 C93.26317566 21.14044189 50.69317566 21.14044189 6.83317566 21.14044189 Z " fill="#000000" transform="translate(215.1668243408203,329.85955810546875)"/>
<path d="M0 0 C3.43568076 2.76348235 5.22206156 4.69292577 6 9 C6.09642185 10.36655233 6.14773927 11.73680513 6.16113281 13.10668945 C6.17074036 13.90464432 6.1803479 14.70259918 6.19024658 15.5247345 C6.19449646 16.37895493 6.19874634 17.23317535 6.203125 18.11328125 C6.20882507 19.00105759 6.21452515 19.88883392 6.22039795 20.80351257 C6.229833 22.68043837 6.23637599 24.55738062 6.24023438 26.43432617 C6.24992977 29.29180113 6.28096295 32.1485534 6.3125 35.00585938 C6.31903172 36.83332908 6.32428153 38.66080391 6.328125 40.48828125 C6.3404718 41.33642899 6.3528186 42.18457672 6.36553955 43.0584259 C6.3427706 49.18415202 5.47561966 54.15762187 1.3125 58.9375 C-2.11162784 60.51074793 -5.34606578 60.67423786 -9 60 C-11.8100346 58.20636089 -13.50940468 56.98119065 -15 54 C-15.1150767 52.45436002 -15.16945006 50.90398901 -15.19287109 49.35424805 C-15.20893402 48.38952072 -15.22499695 47.4247934 -15.24154663 46.43083191 C-15.28596513 42.01680163 -15.32706 37.60292216 -15.35009766 33.1887207 C-15.36666174 30.85984304 -15.39395742 28.53101631 -15.43212891 26.20239258 C-15.48686002 22.84689932 -15.50876647 19.49259809 -15.5234375 16.13671875 C-15.54610687 15.0969841 -15.56877625 14.05724945 -15.59213257 12.98600769 C-15.57100102 5.76293964 -15.57100102 5.76293964 -12.65478516 1.86645508 C-8.15644303 -1.29611855 -5.27640985 -1.27361617 0 0 Z " fill="#000000" transform="translate(106,61)"/>
<path d="M0 0 C3.02182284 2.05741129 4.69011377 3.49949825 5.4453125 7.15625 C5.65056702 11.26134032 5.33688603 13.46098235 3.125 17 C-0.14840013 20.08084718 -2.46126475 20.33387487 -6.9609375 20.29296875 C-10.13134567 19.83745033 -11.8192402 18.24684343 -14 16 C-15.73765543 12.52468913 -15.59585352 8.7911999 -15 5 C-10.58053726 -0.73335706 -6.94670018 -1.6767897 0 0 Z " fill="#000000" transform="translate(106,141)"/>
</svg>
