<?xml version="1.0" encoding="UTF-8"?>
<svg version="1.1" xmlns="http://www.w3.org/2000/svg" width="512" height="512">
<path d="M0 0 C1.3923683 0.00138269 1.3923683 0.00138269 2.81286526 0.00279331 C3.87442333 0.00141865 4.93598141 0.00004398 6.02970791 -0.00137234 C7.79160458 0.00402058 7.79160458 0.00402058 9.58909512 0.00952244 C10.81819103 0.00937641 12.04728695 0.00923038 13.3136282 0.00907993 C16.69365019 0.00965891 20.07361176 0.01468819 23.45362306 0.02165389 C26.98237542 0.02788795 30.5111285 0.02849127 34.03988552 0.0296793 C40.72639466 0.03279246 47.41288753 0.04100564 54.09938949 0.05102879 C61.7099065 0.06219039 69.32042427 0.06770049 76.93094742 0.07272422 C92.59036221 0.08318827 108.24976075 0.10078742 123.90916348 0.12304783 C125.27805549 4.81727416 126.39456507 9.4036228 127.19822598 14.22851658 C127.3063763 14.8750066 127.41452663 15.52149662 127.52595425 16.18757725 C127.75136038 17.54098552 127.97477983 18.89472607 128.19627285 20.24878025 C128.53514738 22.31655151 128.88186637 24.38290092 129.22947598 26.4492197 C129.44869178 27.77140818 129.66745765 29.09367136 129.88572598 30.41601658 C130.08246914 31.60735203 130.2792123 32.79868748 130.48191738 34.026124 C130.90916348 37.12304783 130.90916348 37.12304783 130.90916348 41.12304783 C132.16857754 41.36023533 133.4279916 41.59742283 134.72556973 41.84179783 C140.40031785 43.10950177 145.54406061 45.27302045 150.84666348 47.62304783 C152.3551083 48.28844578 152.3551083 48.28844578 153.89402676 48.96728611 C174.36123252 58.14850295 194.92900714 70.14289149 210.90916348 86.12304783 C216.11913424 85.78804041 220.67854808 84.27912614 225.48728848 82.36523533 C226.90913708 81.81698978 228.33101286 81.26881472 229.75291348 80.72070408 C231.96818833 79.85641124 234.18220363 78.98899778 236.3954916 78.11962986 C238.54816333 77.27705328 240.70492693 76.44571458 242.86228848 75.61523533 C243.52480618 75.35072575 244.18732388 75.08621616 244.86991787 74.81369114 C249.57006425 73.01001475 249.57006425 73.01001475 252.90916348 74.12304783 C254.46398749 76.61870839 255.85724682 79.08760573 257.22166348 81.68554783 C258.11761007 83.34444763 259.01618647 85.00192901 259.91697598 86.65820408 C260.64062344 87.99069187 260.64062344 87.99069187 261.37889004 89.35009861 C264.03207422 94.1578309 266.81673389 98.8878363 269.59666348 103.62304783 C276.44532316 115.315129 283.22391597 127.04650891 289.98728848 138.78808689 C291.9596085 142.21058327 293.93397484 145.6318941 295.90916348 149.05273533 C302.26586501 160.06289242 308.621 171.07355929 314.90916348 182.12304783 C311.36806269 185.75561616 307.67713628 189.11815191 303.78416348 192.37304783 C303.22229336 192.84468357 302.66042324 193.31631931 302.08152676 193.80224705 C300.92624792 194.7702361 299.76983611 195.73687459 298.61228848 196.70214939 C297.50119132 197.62912552 296.39173517 198.55807319 295.28416348 199.48925877 C293.78810043 200.74688676 292.28626 201.99763237 290.78416348 203.24804783 C289.91533535 203.97250095 289.04650723 204.69695408 288.15135098 205.44336033 C285.90916348 207.12304783 285.90916348 207.12304783 282.90916348 208.12304783 C283.03033535 208.7210117 283.15150723 209.31897556 283.27635098 209.93505955 C289.26961664 240.82919149 289.1594601 273.27883139 282.90916348 304.12304783 C283.51260586 304.40736668 284.11604824 304.69168552 284.73777676 304.98462009 C287.78080114 306.58003529 290.21311088 308.81263086 292.78416348 311.06054783 C298.22313379 315.75319327 303.79379109 320.23301769 309.50242519 324.59350681 C313.80429222 327.91330531 313.80429222 327.91330531 314.90916348 330.12304783 C314.05149746 332.08056736 314.05149746 332.08056736 312.65525723 334.50586033 C312.13794033 335.4129575 311.62062344 336.32005466 311.08763027 337.25463963 C310.51311123 338.24246433 309.93859219 339.23028904 309.34666348 340.24804783 C308.75603115 341.27776707 308.16539883 342.30748631 307.55686855 343.36840916 C305.68423576 346.62581697 303.79898702 349.87558681 301.90916348 353.12304783 C301.33617519 354.10805271 300.76318691 355.09305759 300.17283535 356.10791111 C297.90425587 360.00300687 295.63225187 363.89606273 293.35423183 367.78564548 C288.81928799 375.53473623 284.35378847 383.32199645 279.90916348 391.12304783 C274.74232505 400.18902745 269.54279582 409.23486507 264.28416348 418.24804783 C263.72857754 419.20066502 263.1729916 420.1532822 262.60056973 421.13476658 C259.07977089 427.15696021 255.51103772 433.14901055 251.90916348 439.12304783 C242.52184577 436.52136976 233.51712974 433.00282845 224.4579916 429.44336033 C223.30105801 429.00250095 222.14412441 428.56164158 220.95213223 428.10742283 C219.91081142 427.70233494 218.86949062 427.29724705 217.79661465 426.87988377 C214.67031364 426.06044239 212.96298555 426.15018118 209.90916348 427.12304783 C207.97294966 428.54386082 207.97294966 428.54386082 206.15916348 430.43554783 C190.19246139 445.16798182 170.43377493 456.05973558 150.65916348 464.74804783 C149.71927578 465.16199802 148.77938808 465.57594822 147.81101894 466.00244236 C142.22347359 468.37597486 136.87484598 469.99078564 130.90916348 471.12304783 C130.81119473 471.99961033 130.71322598 472.87617283 130.61228848 473.77929783 C129.57502075 482.57818957 128.28720302 491.31832229 126.84666348 500.06054783 C126.67231777 501.13304783 126.49797207 502.20554783 126.31834316 503.31054783 C126.1510873 504.30957127 125.98383144 505.3085947 125.81150723 506.33789158 C125.5870895 507.68548557 125.5870895 507.68548557 125.35813808 509.06030369 C124.90916348 511.12304783 124.90916348 511.12304783 123.90916348 512.12304783 C122.27692891 512.21910647 120.64051958 512.24492604 119.00546169 512.24330235 C117.41312458 512.24536434 117.41312458 512.24536434 115.78861904 512.24746799 C114.61402126 512.24387272 113.43942348 512.24027744 112.22923183 512.23657322 C111.00013592 512.23671925 109.77104 512.23686527 108.50469875 512.23701572 C105.12467676 512.23643675 101.74471519 512.23140746 98.36470389 512.22444177 C94.83595153 512.21820771 91.30719845 512.21760439 87.77844143 512.21641636 C81.09193229 512.2133032 74.40543942 512.20509001 67.71893746 512.19506687 C60.10842045 512.18390527 52.49790268 512.17839516 44.88737953 512.17337143 C29.22796474 512.16290739 13.5685662 512.14530824 -2.09083652 512.12304783 C-3.45972854 507.4288215 -4.57623812 502.84247285 -5.37989902 498.01757908 C-5.54212452 497.04784405 -5.54212452 497.04784405 -5.7076273 496.05851841 C-5.93303343 494.70511014 -6.15645288 493.35136958 -6.3779459 491.99731541 C-6.71682043 489.92954415 -7.06353942 487.86319474 -7.41114902 485.79687595 C-7.63036483 484.47468747 -7.8491307 483.1524243 -8.06739902 481.83007908 C-8.36251377 480.0430759 -8.36251377 480.0430759 -8.66359043 478.21997166 C-9.09083652 475.12304783 -9.09083652 475.12304783 -9.09083652 471.12304783 C-10.95095371 470.78080173 -10.95095371 470.78080173 -12.84864902 470.43164158 C-18.87465947 469.08455412 -24.34297139 466.69478561 -29.96583652 464.18554783 C-31.06065342 463.6990073 -32.15547031 463.21246677 -33.28346348 462.71118259 C-53.25520224 453.66328491 -73.47143729 441.74244707 -89.09083652 426.12304783 C-94.30080729 426.45805525 -98.86022113 427.96696951 -103.66896152 429.88086033 C-105.09081013 430.42910588 -106.51268591 430.97728094 -107.93458652 431.52539158 C-110.14986138 432.38968442 -112.36387668 433.25709788 -114.57716465 434.1264658 C-116.72983638 434.96904238 -118.88659998 435.80038108 -121.04396152 436.63086033 C-121.70647923 436.89536991 -122.36899693 437.15987949 -123.05159092 437.43240452 C-127.7517373 439.2360809 -127.7517373 439.2360809 -131.09083652 438.12304783 C-132.6456696 435.62737274 -134.0389234 433.15850968 -135.40333652 430.56054783 C-136.30057241 428.89903711 -137.20045049 427.2389513 -138.10255527 425.58007908 C-138.58514805 424.69143162 -139.06774082 423.80278416 -139.56495762 422.88720798 C-142.19471798 418.12334449 -144.95862466 413.43891905 -147.71583652 408.74804783 C-152.89995629 399.90622379 -158.017892 391.02891776 -163.09083652 382.12304783 C-168.77998019 372.13741725 -174.52974789 362.18910713 -180.33351231 352.2695322 C-184.63536771 344.91503094 -188.8889232 337.53511854 -193.09083652 330.12304783 C-189.54973574 326.4904795 -185.85880933 323.12794375 -181.96583652 319.87304783 C-181.40396641 319.40141209 -180.84209629 318.92977634 -180.26319981 318.44384861 C-179.10792097 317.47585956 -177.95150916 316.50922107 -176.79396152 315.54394627 C-175.68286437 314.61697014 -174.57340822 313.68802247 -173.46583652 312.75683689 C-171.96977348 311.4992089 -170.46793305 310.24846329 -168.96583652 308.99804783 C-168.0970084 308.2735947 -167.22818027 307.54914158 -166.33302402 306.80273533 C-164.09083652 305.12304783 -164.09083652 305.12304783 -161.09083652 304.12304783 C-161.2120084 303.52508396 -161.33318027 302.92712009 -161.45802402 302.31103611 C-167.45128969 271.41690417 -167.34113315 238.96726427 -161.09083652 208.12304783 C-161.69210361 207.84017918 -162.2933707 207.55731052 -162.91285801 207.26587009 C-166.02016423 205.63541382 -168.5209882 203.35014043 -171.15333652 201.06054783 C-172.30887415 200.06753077 -173.4651368 199.07535681 -174.62208652 198.08398533 C-175.20087559 197.587374 -175.77966465 197.09076267 -176.37599277 196.57910252 C-179.7818948 193.68718912 -183.26986854 190.89630778 -186.75099277 188.09570408 C-188.99251887 186.20593667 -191.03191933 184.20745405 -193.09083652 182.12304783 C-185.98394738 169.45999347 -178.79808171 156.84834132 -171.46315098 144.31591892 C-167.16731548 136.97476216 -162.90086955 129.61725509 -158.65333652 122.24804783 C-157.72944126 120.64546116 -157.72944126 120.64546116 -156.78688145 119.010499 C-154.21223293 114.5431504 -151.638814 110.07509481 -149.06642246 105.60644627 C-147.70968395 103.24958492 -146.35250432 100.89297859 -144.99488926 98.53662205 C-143.72537534 96.33297914 -142.45660385 94.12890827 -141.18873692 91.92431736 C-137.55463956 85.61700606 -133.85994805 79.35064997 -130.09083652 73.12304783 C-120.70351882 75.7247259 -111.69880279 79.2432672 -102.63966465 82.80273533 C-100.90426426 83.46402439 -100.90426426 83.46402439 -99.13380527 84.13867283 C-98.09248447 84.54376072 -97.05116367 84.94884861 -95.9782877 85.36621189 C-92.85198669 86.18565327 -91.1446586 86.09591447 -88.09083652 85.12304783 C-86.15462271 83.70223484 -86.15462271 83.70223484 -84.34083652 81.81054783 C-68.37413444 67.07811383 -48.61544798 56.18636008 -28.84083652 47.49804783 C-27.43100498 46.87712254 -27.43100498 46.87712254 -25.99269199 46.2436533 C-20.40514664 43.8701208 -15.05651903 42.25531002 -9.09083652 41.12304783 C-8.9438834 39.80820408 -8.9438834 39.80820408 -8.79396152 38.46679783 C-7.7566938 29.66790609 -6.46887607 20.92777337 -5.02833652 12.18554783 C-4.85399082 11.11304783 -4.67964512 10.04054783 -4.50001621 8.93554783 C-4.33276035 7.93652439 -4.16550449 6.93750095 -3.99318027 5.90820408 C-3.84356846 5.00980808 -3.69395664 4.11141209 -3.53981113 3.18579197 C-2.94268013 0.44236629 -2.82466705 0.16623449 0 0 Z M23.90916348 30.12304783 C20.40797737 47.53737074 20.40797737 47.53737074 18.90916348 65.12304783 C17.97459316 65.33058689 17.04002285 65.53812595 16.07713223 65.75195408 C-19.50310088 73.9680792 -50.96893619 91.70766951 -76.84425449 117.42968845 C-79.89384604 120.37745893 -81.86049972 121.77191315 -86.09083652 122.12304783 C-89.07350254 121.30273533 -89.07350254 121.30273533 -92.34474277 119.99804783 C-93.52874668 119.53914158 -94.71275059 119.08023533 -95.9326334 118.60742283 C-97.17338737 118.11393556 -98.41361764 117.61912967 -99.65333652 117.12304783 C-102.08757662 116.15176099 -104.52619619 115.19617054 -106.96974277 114.24804783 C-108.04812412 113.81750095 -109.12650547 113.38695408 -110.23756504 112.94336033 C-113.1703523 112.10018713 -114.38384986 111.75487054 -117.09083652 113.12304783 C-118.6933278 115.05494245 -118.6933278 115.05494245 -120.01661777 117.55664158 C-120.55866856 118.50329685 -121.10071934 119.44995213 -121.6591959 120.42529392 C-122.23476231 121.45992771 -122.81032871 122.4945615 -123.40333652 123.56054783 C-124.00855137 124.62354099 -124.61376621 125.68653416 -125.2373209 126.78173923 C-126.52881184 129.05045831 -127.8152757 131.3220451 -129.09718418 133.59619236 C-131.74447406 138.28969979 -134.44194625 142.95404025 -137.13844395 147.61938572 C-138.40799329 149.81637126 -139.67521222 152.01470567 -140.93971348 154.21460056 C-141.52583408 155.23368504 -142.11195469 156.25276951 -142.71583652 157.30273533 C-143.27528965 158.27952244 -143.83474277 159.25630955 -144.41114902 160.26269627 C-145.53839434 162.18229017 -146.70067818 164.08170042 -147.89552402 165.95996189 C-148.45497715 166.84135838 -149.01443027 167.72275486 -149.59083652 168.63086033 C-150.09614902 169.4031699 -150.60146152 170.17547947 -151.12208652 170.97119236 C-152.27022246 173.05507987 -152.27022246 173.05507987 -151.90895176 175.24658298 C-150.53017297 178.40901025 -147.78225013 180.26066021 -145.15333652 182.37304783 C-144.28176914 183.09439915 -144.28176914 183.09439915 -143.39259434 183.83032322 C-138.99031242 187.45768291 -134.48939845 190.95605723 -129.91896152 194.36914158 C-127.80652276 196.39581894 -127.51888597 197.27363453 -127.09083652 200.12304783 C-127.40455723 202.35864353 -127.40455723 202.35864353 -128.01661777 204.79882908 C-128.23640293 205.7108408 -128.45618809 206.62285252 -128.6826334 207.56250095 C-128.92046543 208.51060642 -129.15829746 209.45871189 -129.40333652 210.43554783 C-133.16072357 225.47580083 -134.49900095 240.06049301 -134.46583652 255.49804783 C-134.46628971 256.32399448 -134.4667429 257.14994114 -134.46720982 258.00091648 C-134.43884677 275.69305714 -132.33591807 292.4096854 -127.57252598 309.48974705 C-127.07573506 312.20560453 -127.04005391 313.59235653 -128.09083652 316.12304783 C-130.19230914 318.16898779 -132.26668222 320.02254992 -134.52833652 321.87304783 C-135.46927158 322.66050388 -135.46927158 322.66050388 -136.42921543 323.46386814 C-141.58558745 327.76194015 -146.80656725 331.9832977 -152.09083652 336.12304783 C-151.42070258 339.51446563 -150.11537597 342.13432533 -148.42286777 345.13867283 C-147.58755527 346.62741917 -147.58755527 346.62741917 -146.73536777 348.14624119 C-146.13079746 349.21108738 -145.52622715 350.27593357 -144.90333652 351.37304783 C-144.2820084 352.4746323 -143.66068027 353.57621677 -143.02052402 354.71118259 C-137.00116863 365.35027213 -130.89535084 375.94215255 -124.65724277 386.4545908 C-123.58009415 388.28957123 -122.52659686 390.13857576 -121.49318027 391.99853611 C-120.97884434 392.90716404 -120.4645084 393.81579197 -119.93458652 394.75195408 C-119.48277012 395.56865574 -119.03095371 396.3853574 -118.5654459 397.22680759 C-117.24251615 399.20722344 -117.24251615 399.20722344 -115.29567051 400.02905369 C-112.14084359 400.16354692 -109.89583513 399.16629867 -106.96974277 397.99804783 C-105.78702793 397.53914158 -104.60431309 397.08023533 -103.3857584 396.60742283 C-101.51709234 395.86673458 -99.65018831 395.12178805 -97.78395176 394.37500095 C-95.97501766 393.6555304 -94.15992984 392.95159339 -92.34474277 392.24804783 C-90.72547886 391.60222752 -90.72547886 391.60222752 -89.07350254 390.94336033 C-85.88125758 390.06540804 -84.20888867 390.10205939 -81.09083652 391.12304783 C-79.23927402 392.65429783 -79.23927402 392.65429783 -77.46583652 394.62304783 C-72.71013185 399.61876003 -67.49419588 403.84864267 -62.09083652 408.12304783 C-60.57296543 409.34894627 -60.57296543 409.34894627 -59.02443027 410.59961033 C-39.5225907 426.16967612 -6.71487016 447.12304783 18.90916348 447.12304783 C18.94783535 448.14785252 18.94783535 448.14785252 18.98728848 449.19336033 C19.62753601 460.57230523 21.81252529 470.59153782 23.90916348 482.12304783 C48.32916348 482.12304783 72.74916348 482.12304783 97.90916348 482.12304783 C101.44501975 464.71480922 101.44501975 464.71480922 102.90916348 447.12304783 C103.84373379 446.91550877 104.7783041 446.7079697 105.74119473 446.49414158 C122.7495129 442.5671177 138.55182486 436.38120125 153.90916348 428.12304783 C154.5000375 427.81286716 155.09091152 427.5026865 155.69969082 427.18310642 C170.07043834 419.61133614 182.60419622 409.53315261 194.82322598 398.91211033 C195.33917324 398.46383884 195.85512051 398.01556736 196.38670254 397.55371189 C197.95757399 396.12750195 197.95757399 396.12750195 199.39256191 394.40332127 C200.87010098 392.70898533 200.87010098 392.70898533 203.90916348 390.12304783 C211.53753989 389.72105058 219.4164695 394.27157598 226.36814785 397.06054783 C227.40648769 397.46531345 228.44482754 397.87007908 229.51463223 398.28711033 C230.45460049 398.66303318 231.39456875 399.03895603 232.3630209 399.42627048 C235.13991441 400.18619513 236.32373254 400.37233079 238.90916348 399.12304783 C240.51165475 397.1911532 240.51165475 397.1911532 241.83494473 394.68945408 C242.37699551 393.74279881 242.91904629 392.79614353 243.47752285 391.82080173 C244.05308926 390.78616795 244.62865566 389.75153416 245.22166348 388.68554783 C245.82687832 387.62255466 246.43209316 386.5595615 247.05564785 385.46435642 C248.34713879 383.19563734 249.63360265 380.92405055 250.91551113 378.6499033 C253.56280101 373.95639587 256.2602732 369.29205541 258.9567709 364.62670994 C260.22632024 362.4297244 261.49353917 360.23138999 262.75804043 358.03149509 C263.34416103 357.01241062 263.93028164 355.99332615 264.53416348 354.94336033 C265.0936166 353.96657322 265.65306973 352.98978611 266.22947598 351.98339939 C267.35672129 350.06380549 268.51900513 348.16439523 269.71385098 346.28613377 C270.55303066 344.96403904 270.55303066 344.96403904 271.40916348 343.61523533 C271.91447598 342.84292576 272.41978848 342.07061619 272.94041348 341.2749033 C274.08854941 339.19101579 274.08854941 339.19101579 273.72727871 336.99951267 C272.34849992 333.83708541 269.60057708 331.98543545 266.97166348 329.87304783 C266.10009609 329.15169651 266.10009609 329.15169651 265.21092129 328.41577244 C260.80863937 324.78841275 256.3077254 321.29003843 251.73728848 317.87695408 C249.62484971 315.85027672 249.33721292 314.97246112 248.90916348 312.12304783 C249.22288418 309.88745213 249.22288418 309.88745213 249.83494473 307.44726658 C250.05472988 306.53525486 250.27451504 305.62324314 250.50096035 304.6835947 C250.73879238 303.73548923 250.97662441 302.78738377 251.22166348 301.81054783 C254.97905052 286.77029483 256.3173279 272.18560265 256.28416348 256.74804783 C256.28461666 255.92210117 256.28506985 255.09615452 256.28553677 254.24517918 C256.25717372 236.55303851 254.15424502 219.83641026 249.39085293 202.75634861 C248.89406201 200.04049113 248.85838086 198.65373913 249.90916348 196.12304783 C252.01063609 194.07710787 254.08500917 192.22354573 256.34666348 190.37304783 C256.97395351 189.84807713 257.60124355 189.32310642 258.24754238 188.78222752 C263.4039144 184.4841555 268.6248942 180.26279795 273.90916348 176.12304783 C272.96325407 171.77746024 270.89503423 168.21235966 268.72166348 164.37304783 C268.28531582 163.59517918 267.84896816 162.81731052 267.39939785 162.01587009 C262.47181493 153.27385276 257.40993527 144.60910758 252.32322598 135.95898533 C250.15810957 132.2745315 248.02604394 128.57522917 245.93260098 124.84961033 C245.4814291 124.0556284 245.03025723 123.26164646 244.56541348 122.44360447 C243.73484079 120.97981508 242.91388518 119.51051027 242.10447598 118.03491306 C240.23677691 114.57062608 240.23677691 114.57062608 237.16136074 112.30444431 C233.9532812 112.04605915 231.76829637 113.05818371 228.78806973 114.24804783 C227.60535488 114.70695408 226.42264004 115.16586033 225.20408535 115.63867283 C223.33541929 116.37936107 221.46851526 117.12430761 219.60227871 117.8710947 C217.79334461 118.59056526 215.97825679 119.29450227 214.16306973 119.99804783 C213.08356045 120.4285947 212.00405117 120.85914158 210.89182949 121.30273533 C207.69958453 122.18068761 206.02721562 122.14403626 202.90916348 121.12304783 C201.05760098 119.59179783 201.05760098 119.59179783 199.28416348 117.62304783 C194.52789019 112.62673832 189.30962849 108.4019877 183.90916348 104.12304783 C182.95525723 103.34058689 182.00135098 102.55812595 181.01853848 101.75195408 C159.31915809 84.36463005 130.83051002 68.80903417 102.90916348 65.12304783 C102.8704916 64.09824314 102.8704916 64.09824314 102.83103848 63.05273533 C102.19079094 51.67379042 100.00580166 41.65455784 97.90916348 30.12304783 C73.48916348 30.12304783 49.06916348 30.12304783 23.90916348 30.12304783 Z " fill="#000000" transform="translate(195.09083652496338,-0.1230478286743164)"/>
<path d="M0 0 C0.82419434 0.20399414 1.64838867 0.40798828 2.49755859 0.61816406 C14.5205156 3.6387424 25.87695934 7.52799531 37 13 C37.63099609 13.30663574 38.26199219 13.61327148 38.91210938 13.92919922 C77.61907875 32.95716658 107.42992278 67.49563241 121.85546875 108.03515625 C126.71687896 122.50801271 130.06565286 137.53413156 130.23828125 152.84765625 C130.25310799 153.93574837 130.25310799 153.93574837 130.26823425 155.04582214 C130.80838273 205.03571394 114.90413946 247.0422405 80.125 283.1875 C52.47027075 310.09361396 13.06179839 328.79965743 -25.84765625 329.23828125 C-26.93574837 329.25310799 -26.93574837 329.25310799 -28.04582214 329.26823425 C-68.23755966 329.70251216 -106.00402562 320.6979447 -138 295 C-138.55333008 294.5580127 -139.10666016 294.11602539 -139.67675781 293.66064453 C-173.93406877 266.04105524 -196.39292919 227.0212627 -201.78312683 183.15818787 C-202.12380586 179.76796052 -202.18138395 176.38052908 -202.203125 172.9765625 C-202.21018463 172.23736069 -202.21724426 171.49815887 -202.22451782 170.73655701 C-202.44939893 140.29033117 -202.44939893 140.29033117 -199 127 C-198.79600586 126.17580566 -198.59201172 125.35161133 -198.38183594 124.50244141 C-195.3612576 112.4794844 -191.47200469 101.12304066 -186 90 C-185.69336426 89.36900391 -185.38672852 88.73800781 -185.07080078 88.08789062 C-165.66072755 48.6036359 -130.3238595 18.79456933 -88.93505859 4.37451172 C-84.99373139 3.09572557 -81.01809211 2.00911354 -77 1 C-76.17999512 0.79117188 -75.35999023 0.58234375 -74.51513672 0.3671875 C-51.37166761 -5.23368268 -23.14200781 -6.00632264 0 0 Z M-72 32 C-72.66692871 32.18191895 -73.33385742 32.36383789 -74.02099609 32.55126953 C-92.55744627 37.72004296 -109.38263352 47.63324392 -124 60 C-124.81210938 60.67675781 -125.62421875 61.35351562 -126.4609375 62.05078125 C-145.96496608 78.8783895 -160.23401091 102.19536859 -167 127 C-167.19609863 127.68884277 -167.39219727 128.37768555 -167.59423828 129.08740234 C-173.63770041 151.09192962 -173.43417732 177.11694181 -167 199 C-166.78569336 199.7317041 -166.57138672 200.4634082 -166.35058594 201.21728516 C-155.41934186 237.20128587 -130.72067692 266.15350375 -97.7890625 284.0859375 C-68.62830247 299.24459805 -31.61477627 303.29555069 0 294 C1.09755615 293.67854004 1.09755615 293.67854004 2.21728516 293.35058594 C38.34445585 282.37584958 67.16020182 257.57917589 85.15625 224.578125 C100.34005741 195.69108891 104.22298813 158.36798628 95 127 C94.78569336 126.2682959 94.57138672 125.5365918 94.35058594 124.78271484 C83.41934186 88.79871413 58.72067692 59.84649625 25.7890625 41.9140625 C-3.54883355 26.66332119 -40.19406855 22.94553951 -72 32 Z " fill="#000000" transform="translate(292,93)"/>
<path d="M0 0 C11.48534624 7.81069457 19.52664029 18.83056137 22.1875 32.6875 C22.98109718 38.12694731 23.24144197 43.38480675 23.2578125 48.8828125 C23.27354267 50.85498224 23.28928156 52.82715198 23.30566406 54.79931641 C23.31023353 56.14502599 23.30399039 57.49081433 23.28710938 58.83642578 C22.99351204 66.77799981 22.99351204 66.77799981 25.6784668 74.01000977 C27.42792875 75.73395245 29.2318951 77.2063447 31.1875 78.6875 C44.65485966 95.14760625 50.66748377 115.58570851 48.78857422 136.72216797 C46.51661741 157.10108073 36.39258311 175.54817061 20.74609375 188.78125 C2.15355328 202.63340229 -19.22675311 207.05680294 -42.14160156 204.41943359 C-60.72186664 201.24795909 -78.65259205 189.68934347 -89.8125 174.6875 C-102.48211544 155.39942874 -107.29043377 134.74657707 -103.12890625 111.94140625 C-99.88999318 98.10764867 -92.88399374 83.18929564 -81.72998047 73.96533203 C-79.18234336 70.9389182 -79.30138494 69.11308953 -79.2734375 65.19140625 C-79.25023437 63.90943359 -79.22703125 62.62746094 -79.203125 61.30664062 C-79.19660126 59.95443279 -79.19139829 58.60221795 -79.1875 57.25 C-78.99006394 37.27934204 -77.24149796 20.76216019 -63.0078125 5.7890625 C-45.81604687 -10.54668161 -19.81303607 -11.88782164 0 0 Z M-44.21875 31.43359375 C-48.70675422 38.63042908 -47.93119453 46.53714254 -47.8125 54.6875 C-46.84570312 54.543125 -45.87890625 54.39875 -44.8828125 54.25 C-31.98330683 52.41086256 -20.68648611 52.76498474 -7.8125 54.6875 C-7.40253949 41.11533284 -7.40253949 41.11533284 -13.3515625 29.23046875 C-17.69166901 24.64666642 -21.53370154 23.41436904 -27.6875 23.0625 C-34.74364717 23.3189264 -39.7813312 25.92379875 -44.21875 31.43359375 Z M-64.56640625 100.78125 C-71.86509106 110.8786786 -74.77557037 123.14770885 -73.3125 135.4375 C-70.94088821 147.57640769 -64.68814528 158.19746944 -54.8125 165.6875 C-42.54847947 173.26665786 -29.73928124 175.94243717 -15.5 173.00390625 C-3.09936218 168.75880154 6.83990349 160.55630431 13.0625 149.0625 C18.72172026 137.43739451 19.49513697 125.48440569 15.3671875 113.2578125 C10.04445731 100.33118203 1.80534159 91.85839496 -10.7890625 85.91015625 C-30.20160287 78.05986538 -51.39005388 85.05179594 -64.56640625 100.78125 Z " fill="#000000" transform="translate(283.8125,157.3125)"/>
</svg>
