<?xml version="1.0" encoding="UTF-8"?>
<svg version="1.1" xmlns="http://www.w3.org/2000/svg" width="512" height="512">
<path d="M0 0 C2.51001215 -0.00337334 5.0200227 -0.00823026 7.5300293 -0.01449585 C13.4441384 -0.02277973 19.35779871 -0.00540998 25.271842 0.021258 C29.96819301 0.04002921 34.66401998 0.03338403 39.36035156 0.01220703 C45.87121665 -0.01688918 52.38157842 -0.02126914 58.89248657 -0.00501633 C61.3610547 -0.00169868 63.82964464 -0.00571106 66.29818726 -0.01741409 C82.81462245 -0.07854659 95.6039487 0.01647606 108.11328125 12.0625 C113.28998375 18.1862724 116.10312959 24.80553685 117.3125 32.6640625 C118.22545837 32.65295944 119.13841675 32.64185638 120.07904053 32.63041687 C128.72831282 32.5297822 137.37738544 32.4538792 146.02711105 32.40500164 C150.47292019 32.3790273 154.91824122 32.34385524 159.36376953 32.28686523 C163.66266858 32.23210663 167.96110138 32.20255076 172.26032257 32.18967628 C173.89163797 32.18051432 175.52293097 32.16262522 177.1540451 32.13541222 C190.94141311 31.91476244 201.84624506 34.21360487 212.11328125 44.05078125 C218.10886322 51.17519392 221.43245576 59.28978404 221.44951439 68.52774715 C221.45216622 69.23335373 221.45481804 69.9389603 221.45755023 70.6659489 C221.46525593 73.04830354 221.46580289 75.43060674 221.46640015 77.81297302 C221.47041395 79.53117744 221.47485204 81.24938091 221.4796797 82.96758324 C221.49166055 87.703495 221.49729717 92.43939656 221.50186086 97.17532051 C221.50781136 102.27780126 221.51942272 107.38026979 221.53015137 112.48274231 C221.55469005 124.81387515 221.56930572 137.14501205 221.58221143 149.47616181 C221.58592263 152.95870392 221.58989593 156.44124564 221.5939641 159.92378736 C221.61920249 181.54585673 221.64125758 203.16792673 221.65369225 224.79000759 C221.656622 229.80002787 221.65958365 234.81004813 221.66259766 239.82006836 C221.66334371 241.0653011 221.66408976 242.31053385 221.66485842 243.59350092 C221.67750916 263.76080911 221.71072734 283.92802907 221.75239949 304.09529602 C221.79482601 324.79727671 221.81838822 345.49921225 221.82361281 366.20123631 C221.82702636 377.82591835 221.8387749 389.45046259 221.87171555 401.07510185 C221.89972717 410.9766305 221.9107105 420.8779931 221.89952008 430.77955829 C221.89433611 435.83018805 221.89720341 440.88047017 221.92198563 445.93104935 C221.94450731 450.55966067 221.94371553 455.1876752 221.92478175 459.81629718 C221.92198582 461.48600095 221.92755759 463.15574544 221.94259469 464.82538383 C222.05784866 478.46228962 219.64710919 489.31871829 209.92578125 499.46484375 C203.45261943 504.91236259 195.44801803 508.78066473 186.94808292 508.80107689 C185.82785679 508.80615143 184.70763065 508.81122597 183.55345827 508.81645429 C181.69951619 508.81720093 181.69951619 508.81720093 179.80812073 508.81796265 C178.49912038 508.8223449 177.19012004 508.82672715 175.84145302 508.8312422 C172.20009254 508.843213 168.55874531 508.84885735 164.91736901 508.85342336 C160.99281133 508.85937774 157.06826952 508.87098821 153.14372253 508.88171387 C143.66022514 508.90624483 134.17672249 508.92086769 124.69320312 508.93377393 C122.01408958 508.93748589 119.33497655 508.94145914 116.65586352 508.9455266 C100.01627827 508.97076729 83.37669219 508.99281888 66.73709202 509.00525475 C62.88210103 509.00818442 59.02711007 509.01114608 55.17211914 509.01416016 C54.21398541 509.01490621 53.25585169 509.01565226 52.2686836 509.01642092 C36.75726146 509.02906686 21.24595415 509.06227887 5.73458565 509.10396199 C-10.19422283 509.14641547 -26.1229726 509.16995388 -42.0518375 509.17517531 C-50.99375267 509.17858597 -59.93548853 509.19030001 -68.87734795 509.22327805 C-76.49518672 509.25132692 -84.11280944 509.26225682 -91.73069584 509.25108258 C-95.6148121 509.24590788 -99.49847628 509.24870439 -103.3825264 509.27354813 C-106.94535194 509.29614594 -110.50740342 509.29522061 -114.07024349 509.27634425 C-115.9551225 509.27224919 -117.840007 509.29261232 -119.72476763 509.31413114 C-131.5040611 509.2052473 -140.97001139 505.43897107 -149.48828125 497.27734375 C-155.48386322 490.15293108 -158.80745576 482.03834096 -158.82451439 472.80037785 C-158.82716622 472.09477127 -158.82981804 471.3891647 -158.83255023 470.6621761 C-158.84025593 468.27982146 -158.84080289 465.89751826 -158.84140015 463.51515198 C-158.84541395 461.79694756 -158.84985204 460.07874409 -158.8546797 458.36054176 C-158.86666055 453.62463 -158.87229717 448.88872844 -158.87686086 444.15280449 C-158.88281136 439.05032374 -158.89442272 433.94785521 -158.90515137 428.84538269 C-158.92969005 416.51424985 -158.94430572 404.18311295 -158.95721143 391.85196319 C-158.96092263 388.36942108 -158.96489593 384.88687936 -158.9689641 381.40433764 C-158.99420249 359.78226827 -159.01625758 338.16019827 -159.02869225 316.53811741 C-159.031622 311.52809713 -159.03458365 306.51807687 -159.03759766 301.50805664 C-159.03834371 300.2628239 -159.03908976 299.01759115 -159.03985842 297.73462408 C-159.05250916 277.56731589 -159.08572734 257.40009593 -159.12739949 237.23282898 C-159.16982601 216.53084829 -159.19338822 195.82891275 -159.19861281 175.12688869 C-159.20202636 163.50220665 -159.2137749 151.87766241 -159.24671555 140.25302315 C-159.27472717 130.3514945 -159.2857105 120.4501319 -159.27452008 110.54856671 C-159.26933611 105.49793695 -159.27220341 100.44765483 -159.29698563 95.39707565 C-159.31950731 90.76846433 -159.31871553 86.1404498 -159.29978175 81.51182782 C-159.29698582 79.84212405 -159.30255759 78.17237956 -159.31759469 76.50274117 C-159.43284866 62.86583538 -157.02210919 52.00940671 -147.30078125 41.86328125 C-140.04783358 35.75953007 -131.84827949 32.5016671 -122.4621582 32.55053711 C-121.73020233 32.55039108 -120.99824646 32.55024506 -120.24411011 32.5500946 C-117.82547031 32.5507911 -115.40690759 32.55857122 -112.98828125 32.56640625 C-111.31105084 32.56827136 -109.63381989 32.56969483 -107.95658875 32.57069397 C-103.54249568 32.5745118 -99.12843553 32.58433584 -94.71435547 32.59539795 C-90.20996547 32.60562783 -85.70557015 32.61019497 -81.20117188 32.61523438 C-72.36326679 32.62595875 -63.52538613 32.64302639 -54.6875 32.6640625 C-54.49167076 31.7379995 -54.49167076 31.7379995 -54.29188538 30.79322815 C-54.11701096 29.98304733 -53.94213654 29.17286652 -53.76196289 28.33813477 C-53.59016006 27.53513443 -53.41835724 26.73213409 -53.24134827 25.90480042 C-50.88532665 16.3728992 -43.43857507 9.40700435 -35.48950195 4.23355103 C-24.45827968 -1.31665045 -12.03152074 -0.05703984 0 0 Z M-23.6875 31.6640625 C-27.8692579 40.15220207 -27.8692579 40.15220207 -26.6875 56.6640625 C11.5925 56.6640625 49.8725 56.6640625 89.3125 56.6640625 C90.4942579 40.15220207 90.4942579 40.15220207 86.3125 31.6640625 C80.94541417 28.34520832 76.00843729 28.23223176 69.81640625 28.27587891 C68.42722488 28.26799347 68.42722488 28.26799347 67.00997925 28.25994873 C63.96481191 28.24680222 60.92017217 28.25546795 57.875 28.265625 C55.74942932 28.26360273 53.62385932 28.26069002 51.49829102 28.25692749 C47.04990006 28.25251138 42.60169018 28.25891235 38.15332031 28.27294922 C32.46049077 28.29004053 26.76808559 28.28019555 21.07527161 28.26223183 C16.68799663 28.25137482 12.30082174 28.25484916 7.9135437 28.2626152 C5.81484934 28.2646119 3.7161458 28.26217662 1.61746216 28.25517654 C-1.31907105 28.24753062 -4.25492354 28.25921049 -7.19140625 28.27587891 C-8.0529129 28.26980621 -8.91441956 28.26373352 -9.80203247 28.25747681 C-15.15266382 28.313547 -19.08358065 28.8171289 -23.6875 31.6640625 Z M-127.6875 63.6640625 C-130.22436631 68.55503649 -131.06277589 72.17545531 -131.06502342 77.75279236 C-131.06938374 78.43412157 -131.07374407 79.11545078 -131.07823652 79.81742632 C-131.08915733 82.09325162 -131.07878606 84.36846656 -131.06845093 86.64428711 C-131.07190875 88.29526294 -131.07667416 89.94623646 -131.08263266 91.59720516 C-131.09515516 96.12856788 -131.08896657 100.65974102 -131.07967401 105.19110441 C-131.07288899 110.08006289 -131.08336203 114.96898868 -131.09161377 119.85794067 C-131.10495913 129.43327086 -131.10206978 139.00853054 -131.09337585 148.5838635 C-131.08660288 156.36539365 -131.08568091 164.14690403 -131.0889473 171.92843628 C-131.089407 173.03561129 -131.08986669 174.14278629 -131.09034032 175.28351206 C-131.09129949 177.53266121 -131.09227213 179.78181035 -131.0932581 182.03095949 C-131.10181434 203.12514904 -131.09197417 224.2192995 -131.075857 245.31348264 C-131.06245361 263.41636478 -131.06478164 281.51918921 -131.07861328 299.62207031 C-131.09466494 320.64037432 -131.10099035 341.65864404 -131.09177649 362.67695332 C-131.09082083 364.91786511 -131.08987772 367.15877691 -131.0889473 369.39968872 C-131.08848447 370.50228293 -131.08802164 371.60487714 -131.08754479 372.74088329 C-131.08495366 380.51377716 -131.08932855 388.28664929 -131.09638596 396.05953979 C-131.10479654 405.53107482 -131.10253009 415.00253525 -131.08654372 424.47406173 C-131.07865509 429.3073053 -131.07557954 434.14042447 -131.08549118 438.97366714 C-131.09442626 443.39758568 -131.08952479 447.82126441 -131.07355852 452.24516118 C-131.07020569 453.84600561 -131.07191607 455.44687028 -131.07918589 457.04770172 C-131.08831084 459.22386661 -131.07895001 461.3992105 -131.06502342 463.57533264 C-131.06453637 464.78398515 -131.06404931 465.99263765 -131.06354749 467.23791599 C-130.61016809 471.36862893 -129.60930545 473.98360348 -127.6875 477.6640625 C-121.71192759 481.58496817 -115.30829754 481.08522648 -108.35180664 481.04501343 C-107.10936471 481.0496934 -105.86692278 481.05437337 -104.58683109 481.05919516 C-101.14990784 481.06907362 -97.71347811 481.06554182 -94.2765851 481.05623651 C-90.56554773 481.04944025 -86.85455303 481.0599301 -83.14352417 481.06817627 C-75.87827969 481.08150965 -68.61312824 481.07863763 -61.34788013 481.06993835 C-55.44277862 481.06316066 -49.53770316 481.06224545 -43.63259888 481.0655098 C-42.79185855 481.0659695 -41.95111822 481.06642919 -41.08490092 481.06690282 C-39.37690376 481.06786201 -37.66890662 481.06883465 -35.96090949 481.0698206 C-19.94848695 481.07837333 -3.93611596 481.06854218 12.07629812 481.0524195 C25.81293549 481.03901642 39.54949681 481.04134455 53.28613281 481.05517578 C69.24161945 481.07123365 85.19706092 481.07754937 101.15255451 481.06833899 C102.85423596 481.06738335 104.55591742 481.06644024 106.25759888 481.0655098 C107.0948385 481.06504697 107.93207812 481.06458414 108.79468864 481.06410729 C114.69206543 481.06151802 120.58941354 481.06588704 126.48678589 481.07294846 C133.67462686 481.08136594 140.86236955 481.0790781 148.05019927 481.06310622 C151.71690259 481.05522683 155.38344212 481.05212617 159.0501442 481.06205368 C163.02579079 481.07265479 167.00116969 481.05998867 170.97680664 481.04501343 C172.13449019 481.05170559 173.29217375 481.05839776 174.48493862 481.06529272 C182.84609193 481.00544806 182.84609193 481.00544806 190.3125 477.6640625 C192.86299601 472.7795951 193.68777657 469.15100061 193.69002342 463.57533264 C193.69438374 462.89400343 193.69874407 462.21267422 193.70323652 461.51069868 C193.71415733 459.23487338 193.70378606 456.95965844 193.69345093 454.68383789 C193.69690875 453.03286206 193.70167416 451.38188854 193.70763266 449.73091984 C193.72015516 445.19955712 193.71396657 440.66838398 193.70467401 436.13702059 C193.69788899 431.24806211 193.70836203 426.35913632 193.71661377 421.47018433 C193.72995913 411.89485414 193.72706978 402.31959446 193.71837585 392.7442615 C193.71160288 384.96273135 193.71068091 377.18122097 193.7139473 369.39968872 C193.714407 368.29251371 193.71486669 367.18533871 193.71534032 366.04461294 C193.71629949 363.79546379 193.71727213 361.54631465 193.7182581 359.29716551 C193.72681434 338.20297596 193.71697417 317.1088255 193.700857 296.01464236 C193.68745361 277.91176022 193.68978164 259.80893579 193.70361328 241.70605469 C193.71966494 220.68775068 193.72599035 199.66948096 193.71677649 178.65117168 C193.71582083 176.41025989 193.71487772 174.16934809 193.7139473 171.92843628 C193.71325306 170.27454497 193.71325306 170.27454497 193.71254479 168.58724171 C193.70995366 160.81434784 193.71432855 153.04147571 193.72138596 145.26858521 C193.72979654 135.79705018 193.72753009 126.32558975 193.71154372 116.85406327 C193.70365509 112.0208197 193.70057954 107.18770053 193.71049118 102.35445786 C193.71942626 97.93053932 193.71452479 93.50686059 193.69855852 89.08296382 C193.69520569 87.48211939 193.69691607 85.88125472 193.70418589 84.28042328 C193.71331084 82.10425839 193.70395001 79.9289145 193.69002342 77.75279236 C193.68953637 76.54413985 193.68904931 75.33548735 193.68854749 74.09020901 C193.2357995 69.96524879 192.22110688 67.34377813 190.3125 63.6640625 C183.88102576 59.16323289 175.73321998 60.28644639 168.19140625 60.37109375 C166.72167903 60.37669632 165.25194616 60.38096329 163.7822113 60.38395691 C159.93356574 60.39535381 156.08526549 60.42477568 152.23675537 60.45806885 C148.30176462 60.48888167 144.36671751 60.50248609 140.43164062 60.51757812 C132.72510382 60.54965111 125.01885049 60.60078396 117.3125 60.6640625 C117.28671875 61.67726562 117.2609375 62.69046875 117.234375 63.734375 C117.17805819 65.08597847 117.12071167 66.43753931 117.0625 67.7890625 C117.04832031 68.45421875 117.03414062 69.119375 117.01953125 69.8046875 C116.77304025 74.83310386 115.53018529 77.81881448 112.3125 81.6640625 C108.91854957 83.89822865 106.025905 83.9174497 102.01869202 83.92475891 C100.72463943 83.93184372 99.43058685 83.93892853 98.09732056 83.94622803 C96.66522182 83.94393425 95.23312341 83.94142456 93.80102539 83.9387207 C92.29132332 83.94306838 90.78162346 83.94825171 89.27192688 83.95420837 C85.17276035 83.96760356 81.073686 83.96817648 76.97450185 83.96564507 C73.55246787 83.96457573 70.13045258 83.96945778 66.7084226 83.9742505 C58.63543486 83.98534744 50.56249364 83.98578201 42.48950195 83.97973633 C34.16089019 83.97369513 25.8324473 83.98601078 17.50386435 84.0073064 C10.35301068 84.0249184 3.20221079 84.0309244 -3.94866377 84.02766865 C-8.21946876 84.02585504 -12.49015328 84.02849975 -16.76093864 84.04238319 C-20.77715253 84.05495046 -24.79310302 84.053028 -28.80931282 84.03997231 C-30.28270684 84.03760457 -31.75611934 84.04034829 -33.22949219 84.04859543 C-35.24187338 84.05904683 -37.25432948 84.04916853 -39.26670837 84.0382843 C-40.39255309 84.03845204 -41.51839781 84.03861979 -42.67835903 84.03879261 C-46.84879366 83.51944591 -49.44014233 81.84258145 -52.45703125 78.9921875 C-54.2553756 75.58960581 -54.25853157 72.18098422 -54.375 68.4140625 C-54.40916016 67.66898437 -54.44332031 66.92390625 -54.47851562 66.15625 C-54.56064054 64.32603758 -54.62575653 62.49507581 -54.6875 60.6640625 C-63.1719046 60.59439519 -71.65618866 60.5411667 -80.14080906 60.50862598 C-84.08103641 60.49300403 -88.02106732 60.47182977 -91.96118164 60.43774414 C-95.76725622 60.40502604 -99.57314244 60.38718341 -103.37934685 60.37943077 C-104.8277476 60.3739095 -106.27613864 60.3631279 -107.72445869 60.34687233 C-118.23077212 59.89445304 -118.23077212 59.89445304 -127.6875 63.6640625 Z " fill="#000000" transform="translate(224.6875,1.3359375)"/>
<path d="M0 0 C0.99962265 -0.00861557 1.9992453 -0.01723114 3.02915955 -0.02610779 C6.30885266 -0.04867102 9.58768458 -0.04204629 12.86743164 -0.03295898 C15.16232047 -0.03819886 17.45720714 -0.04447667 19.75209045 -0.05174255 C24.55260379 -0.06212906 29.35282037 -0.05761027 34.15332031 -0.04296875 C40.28767241 -0.02578512 46.42108745 -0.04928132 52.55533504 -0.08445835 C57.29189697 -0.10647886 62.02823629 -0.10497949 66.76483345 -0.09669304 C69.02573232 -0.09587606 71.28664795 -0.10269073 73.5474987 -0.11746407 C76.71583579 -0.13499523 79.88250929 -0.12029507 83.05078125 -0.09765625 C84.43435822 -0.11519455 84.43435822 -0.11519455 85.84588623 -0.13308716 C95.21595186 0.00229397 102.44484524 3.83831829 109.01977539 10.39672852 C113.61964528 16.65575546 115.56142545 23.38599993 117.28149414 30.83422852 C117.51287582 31.79241989 117.74425751 32.75061127 117.98265076 33.73783875 C118.96456026 37.80432196 119.92394204 41.87601555 120.88378906 45.94775391 C121.59099182 48.93290394 122.31080735 51.91481033 123.03149414 54.89672852 C123.24407364 55.81859451 123.45665314 56.74046051 123.67567444 57.69026184 C123.98631081 58.97255928 123.98631081 58.97255928 124.30322266 60.28076172 C124.47990982 61.03162552 124.65659698 61.78248932 124.83863831 62.55610657 C126.25408242 66.28066149 129.19061654 67.97363878 132.40258789 70.09594727 C137.98394276 74.19443294 141.41709625 80.01447234 143.59008789 86.53344727 C143.69742585 88.23461762 143.74878774 89.93958791 143.76708984 91.64404297 C143.7863427 93.20630363 143.7863427 93.20630363 143.8059845 94.80012512 C143.81337143 95.92512924 143.82075836 97.05013336 143.82836914 98.20922852 C143.83644089 99.36714401 143.84451263 100.52505951 143.85282898 101.71806335 C143.86666644 104.17009993 143.8773901 106.62215574 143.88525391 109.07421875 C143.90247216 112.82076548 143.94636365 116.56643113 143.99047852 120.31274414 C144.00060503 122.69489911 144.00912126 125.07706158 144.01586914 127.45922852 C144.03337723 128.57815994 144.05088531 129.69709137 144.06892395 130.84992981 C144.05162656 137.0637423 143.80047965 140.83114642 139.59008789 145.53344727 C135.55215162 148.86003725 131.811715 148.90882378 126.77758789 148.72094727 C126.0847168 148.70741211 125.3918457 148.69387695 124.67797852 148.67993164 C122.98167524 148.64483571 121.28577653 148.59103669 119.59008789 148.53344727 C119.62489258 149.55825195 119.65969727 150.58305664 119.69555664 151.63891602 C119.72370824 152.99957662 119.75100693 154.36025507 119.77758789 155.72094727 C119.80272461 156.39448242 119.82786133 157.06801758 119.85375977 157.76196289 C119.91951296 162.25509792 119.32313428 164.95846715 116.59008789 168.53344727 C112.19137574 172.50301676 108.64003483 173.11093738 102.92211914 172.85375977 C97.07470402 172.05059722 95.24662812 169.10412255 91.59008789 164.53344727 C91.59008789 159.25344727 91.59008789 153.97344727 91.59008789 148.53344727 C58.59008789 148.53344727 25.59008789 148.53344727 -8.40991211 148.53344727 C-8.40991211 153.48344727 -8.40991211 158.43344727 -8.40991211 163.53344727 C-11.35704165 168.44532983 -12.4373168 170.09235502 -17.40991211 172.53344727 C-22.00314118 173.19593223 -25.97603589 173.12570049 -30.28491211 171.34594727 C-36.09658335 166.38893356 -36.09658335 166.38893356 -36.73168945 162.62792969 C-36.80272061 160.47911131 -36.75970826 158.36848363 -36.65991211 156.22094727 C-36.64186523 155.48038086 -36.62381836 154.73981445 -36.60522461 153.97680664 C-36.55838547 152.16179017 -36.48664999 150.34744561 -36.40991211 148.53344727 C-37.4347168 148.56825195 -38.45952148 148.60305664 -39.51538086 148.63891602 C-40.87604147 148.66706761 -42.23671991 148.6943663 -43.59741211 148.72094727 C-44.27094727 148.74608398 -44.94448242 148.7712207 -45.63842773 148.79711914 C-51.46890405 148.88244318 -54.2605912 147.4440656 -58.51367188 143.66333008 C-61.43325164 138.84435074 -61.02049944 134.18848101 -61.01147461 128.65454102 C-61.02004486 127.49148941 -61.02861511 126.32843781 -61.03744507 125.13014221 C-61.04892472 122.66816812 -61.04993722 120.20612619 -61.04125977 117.74414062 C-61.03497443 114.0079896 -61.08173504 110.275062 -61.13256836 106.53930664 C-61.13711848 104.14022206 -61.13851942 101.74112904 -61.13647461 99.34204102 C-61.1548941 98.23847763 -61.1733136 97.13491425 -61.19229126 95.99790955 C-61.08825905 87.11190208 -58.63629655 79.12266416 -52.50259399 72.46238708 C-50.23465131 70.41064138 -48.26477561 68.8178631 -45.34350586 67.84594727 C-42.26467695 65.75607552 -41.93250594 62.59947277 -41.09741211 59.15844727 C-40.89575439 58.38839355 -40.69409668 57.61833984 -40.48632812 56.82495117 C-39.15713257 51.69557512 -37.92523591 46.54201884 -36.67553711 41.39282227 C-36.37301025 40.15709473 -36.0704834 38.92136719 -35.75878906 37.64819336 C-35.16101686 35.19529365 -34.57325757 32.73992748 -33.99658203 30.28198242 C-31.99736328 22.01684163 -29.91431193 14.46236617 -23.72241211 8.28344727 C-23.12041992 7.65954102 -22.51842773 7.03563477 -21.89819336 6.39282227 C-15.02918361 1.25993586 -8.42743279 -0.05949359 0 0 Z M-3.40991211 29.53344727 C-4.14655803 31.75217688 -4.7753291 34.00697036 -5.35522461 36.27172852 C-5.52996307 36.94890427 -5.70470154 37.62608002 -5.88473511 38.32377625 C-6.25330524 39.75945282 -6.61786953 41.19616276 -6.97875977 42.63378906 C-7.53062409 44.82889119 -8.09614043 47.02012237 -8.66381836 49.21118164 C-10.69419487 56.77311336 -10.69419487 56.77311336 -11.40991211 64.53344727 C23.57008789 64.53344727 58.55008789 64.53344727 94.59008789 64.53344727 C93.64160235 56.94556297 92.07054331 49.96698979 90.15258789 42.59594727 C89.83999023 41.35264648 89.52739258 40.1093457 89.20532227 38.82836914 C88.90045898 37.64952148 88.5955957 36.47067383 88.28149414 35.25610352 C88.0050708 34.18110596 87.72864746 33.1061084 87.44384766 31.99853516 C86.85701142 29.37573664 86.85701142 29.37573664 84.59008789 28.53344727 C81.88497344 28.43507646 79.20561353 28.39715417 76.50024414 28.40405273 C75.6643576 28.40230042 74.82847107 28.4005481 73.96725464 28.39874268 C71.19567813 28.3943303 68.42416509 28.39726 65.65258789 28.40063477 C63.73209623 28.39996155 61.81160465 28.39899138 59.89111328 28.3977356 C55.86270335 28.39625946 51.83431556 28.3984105 47.8059082 28.40307617 C42.63383725 28.40877341 37.46181819 28.40549396 32.28974915 28.39950371 C28.32303474 28.39589585 24.35633269 28.39703772 20.38961792 28.3996315 C18.4821675 28.40030014 16.57471597 28.39947452 14.66726685 28.39715195 C12.00479137 28.39462176 9.34240077 28.39847124 6.67993164 28.40405273 C5.88610077 28.4020285 5.0922699 28.40000427 4.27438354 28.3979187 C0.30278283 28.32730783 0.30278283 28.32730783 -3.40991211 29.53344727 Z M-32.40991211 94.53344727 C-32.40991211 103.11344727 -32.40991211 111.69344727 -32.40991211 120.53344727 C16.10008789 120.53344727 64.61008789 120.53344727 114.59008789 120.53344727 C114.59008789 111.62344727 114.59008789 102.71344727 114.59008789 93.53344727 C112.83916423 91.78252361 110.39516945 92.40350088 108.01649475 92.3997345 C106.80637222 92.39546951 105.59624969 92.39120453 104.34945679 92.3868103 C102.99615475 92.38715987 101.64285274 92.38762142 100.28955078 92.38818359 C98.87394624 92.38519368 97.45834251 92.38179154 96.04273987 92.37800598 C92.18741151 92.36914469 88.33210533 92.36682698 84.47676778 92.3661902 C81.26337429 92.36524285 78.04998601 92.36156658 74.83659452 92.3580181 C67.25808509 92.34986545 59.67958754 92.3474346 52.10107422 92.34814453 C44.27180722 92.34874554 36.44260908 92.33819093 28.61335951 92.32240087 C21.90168306 92.30934486 15.19002916 92.30395982 8.47834009 92.30459994 C4.46526736 92.3048555 0.45225577 92.30197252 -3.56080437 92.29142189 C-7.33396896 92.28177343 -11.10701355 92.2816392 -14.88018227 92.28893852 C-16.26775664 92.28998844 -17.65533837 92.28759753 -19.04290009 92.28157806 C-20.93169691 92.27391271 -22.82053424 92.27967742 -24.70933533 92.28620911 C-25.76809844 92.28566434 -26.82686155 92.28511957 -27.9177084 92.2845583 C-30.58381328 92.28512198 -30.58381328 92.28512198 -32.40991211 94.53344727 Z " fill="#000000" transform="translate(214.409912109375,113.466552734375)"/>
<path d="M0 0 C0.72913689 -0.00297112 1.45827379 -0.00594224 2.20950574 -0.0090034 C4.66533198 -0.0177107 7.12110959 -0.01920036 9.57695007 -0.02069092 C11.33265793 -0.02531767 13.08836477 -0.03034214 14.84407043 -0.03573608 C19.62306054 -0.0488762 24.4020366 -0.05530822 29.18104196 -0.05974674 C32.16511173 -0.06267499 35.14917764 -0.06677933 38.13324547 -0.07125092 C47.46484781 -0.08493034 56.79644134 -0.09459471 66.12805301 -0.09845281 C76.90894485 -0.10293424 87.68970994 -0.12048426 98.47056323 -0.1494534 C106.79757934 -0.17105396 115.12455975 -0.18115622 123.45160359 -0.18249393 C128.42779004 -0.18354316 133.40385741 -0.189476 138.38001442 -0.20731354 C143.06100451 -0.22376604 147.74178568 -0.22596347 152.42279434 -0.21717453 C154.14130016 -0.21640263 155.85981708 -0.22076698 157.57829475 -0.23063278 C159.92386584 -0.24330937 162.26869219 -0.23749927 164.61425781 -0.22705078 C165.92705876 -0.22851734 167.23985971 -0.2299839 168.59244251 -0.2314949 C173.45225827 0.29932988 176.87961959 2.39886015 179.99760437 6.14044189 C181.72326092 11.31741154 181.87095712 16.90854043 179.87260437 22.01544189 C176.57883462 25.74838095 173.47254839 27.92974845 168.49339199 28.64101315 C166.54247945 28.64132707 166.54247945 28.64132707 164.55215454 28.64164734 C163.8236835 28.64718174 163.09521246 28.65271613 162.34466654 28.65841824 C159.91474387 28.67198235 157.48585595 28.65707957 155.05595398 28.64215088 C153.30950485 28.64593558 151.56305872 28.65143687 149.81661987 28.65852356 C145.0811254 28.6724747 140.34599438 28.66131125 135.61052012 28.64481235 C130.65340949 28.63095404 125.69631979 28.63742273 120.73919678 28.64094543 C112.41601204 28.64364668 104.09297158 28.63017839 95.76982117 28.60699463 C86.14717246 28.58037671 76.52476484 28.57864089 66.90209192 28.59038299 C57.64361546 28.60116137 48.38522621 28.59497379 39.12675667 28.58082771 C35.18706259 28.57506932 31.24743236 28.57514943 27.30773735 28.57989311 C22.66933327 28.5846648 18.03119328 28.57455324 13.39283943 28.55293846 C11.69047054 28.54737337 9.98807625 28.54690276 8.28570557 28.55189133 C5.9622007 28.55784629 3.63950274 28.54533579 1.31607056 28.52812195 C0.01583922 28.52569205 -1.28439211 28.52326216 -2.62402439 28.52075863 C-7.28251479 27.99633377 -9.79469358 26.15230037 -13.31489563 23.20294189 C-15.99955795 18.33077695 -15.97654657 13.56273793 -15.00239563 8.14044189 C-11.24366702 1.39077374 -7.48843564 0.0169826 0 0 Z " fill="#000000" transform="translate(209.0023956298828,425.85955810546875)"/>
<path d="M0 0 C0.72913689 -0.00297112 1.45827379 -0.00594224 2.20950574 -0.0090034 C4.66533198 -0.0177107 7.12110959 -0.01920036 9.57695007 -0.02069092 C11.33265793 -0.02531767 13.08836477 -0.03034214 14.84407043 -0.03573608 C19.62306054 -0.0488762 24.4020366 -0.05530822 29.18104196 -0.05974674 C32.16511173 -0.06267499 35.14917764 -0.06677933 38.13324547 -0.07125092 C47.46484781 -0.08493034 56.79644134 -0.09459471 66.12805301 -0.09845281 C76.90894485 -0.10293424 87.68970994 -0.12048426 98.47056323 -0.1494534 C106.79757934 -0.17105396 115.12455975 -0.18115622 123.45160359 -0.18249393 C128.42779004 -0.18354316 133.40385741 -0.189476 138.38001442 -0.20731354 C143.06100451 -0.22376604 147.74178568 -0.22596347 152.42279434 -0.21717453 C154.14130016 -0.21640263 155.85981708 -0.22076698 157.57829475 -0.23063278 C159.92386584 -0.24330937 162.26869219 -0.23749927 164.61425781 -0.22705078 C165.92705876 -0.22851734 167.23985971 -0.2299839 168.59244251 -0.2314949 C173.45225827 0.29932988 176.87961959 2.39886015 179.99760437 6.14044189 C181.72326092 11.31741154 181.87095712 16.90854043 179.87260437 22.01544189 C176.57883462 25.74838095 173.47254839 27.92974845 168.49339199 28.64101315 C166.54247945 28.64132707 166.54247945 28.64132707 164.55215454 28.64164734 C163.8236835 28.64718174 163.09521246 28.65271613 162.34466654 28.65841824 C159.91474387 28.67198235 157.48585595 28.65707957 155.05595398 28.64215088 C153.30950485 28.64593558 151.56305872 28.65143687 149.81661987 28.65852356 C145.0811254 28.6724747 140.34599438 28.66131125 135.61052012 28.64481235 C130.65340949 28.63095404 125.69631979 28.63742273 120.73919678 28.64094543 C112.41601204 28.64364668 104.09297158 28.63017839 95.76982117 28.60699463 C86.14717246 28.58037671 76.52476484 28.57864089 66.90209192 28.59038299 C57.64361546 28.60116137 48.38522621 28.59497379 39.12675667 28.58082771 C35.18706259 28.57506932 31.24743236 28.57514943 27.30773735 28.57989311 C22.66933327 28.5846648 18.03119328 28.57455324 13.39283943 28.55293846 C11.69047054 28.54737337 9.98807625 28.54690276 8.28570557 28.55189133 C5.9622007 28.55784629 3.63950274 28.54533579 1.31607056 28.52812195 C0.01583922 28.52569205 -1.28439211 28.52326216 -2.62402439 28.52075863 C-7.28251479 27.99633377 -9.79469358 26.15230037 -13.31489563 23.20294189 C-15.99955795 18.33077695 -15.97654657 13.56273793 -15.00239563 8.14044189 C-11.24366702 1.39077374 -7.48843564 0.0169826 0 0 Z " fill="#000000" transform="translate(209.0023956298828,369.85955810546875)"/>
<path d="M0 0 C0.72913689 -0.00297112 1.45827379 -0.00594224 2.20950574 -0.0090034 C4.66533198 -0.0177107 7.12110959 -0.01920036 9.57695007 -0.02069092 C11.33265793 -0.02531767 13.08836477 -0.03034214 14.84407043 -0.03573608 C19.62306054 -0.0488762 24.4020366 -0.05530822 29.18104196 -0.05974674 C32.16511173 -0.06267499 35.14917764 -0.06677933 38.13324547 -0.07125092 C47.46484781 -0.08493034 56.79644134 -0.09459471 66.12805301 -0.09845281 C76.90894485 -0.10293424 87.68970994 -0.12048426 98.47056323 -0.1494534 C106.79757934 -0.17105396 115.12455975 -0.18115622 123.45160359 -0.18249393 C128.42779004 -0.18354316 133.40385741 -0.189476 138.38001442 -0.20731354 C143.06100451 -0.22376604 147.74178568 -0.22596347 152.42279434 -0.21717453 C154.14130016 -0.21640263 155.85981708 -0.22076698 157.57829475 -0.23063278 C159.92386584 -0.24330937 162.26869219 -0.23749927 164.61425781 -0.22705078 C165.92705876 -0.22851734 167.23985971 -0.2299839 168.59244251 -0.2314949 C173.45225827 0.29932988 176.87961959 2.39886015 179.99760437 6.14044189 C181.72326092 11.31741154 181.87095712 16.90854043 179.87260437 22.01544189 C176.57883462 25.74838095 173.47254839 27.92974845 168.49339199 28.64101315 C166.54247945 28.64132707 166.54247945 28.64132707 164.55215454 28.64164734 C163.8236835 28.64718174 163.09521246 28.65271613 162.34466654 28.65841824 C159.91474387 28.67198235 157.48585595 28.65707957 155.05595398 28.64215088 C153.30950485 28.64593558 151.56305872 28.65143687 149.81661987 28.65852356 C145.0811254 28.6724747 140.34599438 28.66131125 135.61052012 28.64481235 C130.65340949 28.63095404 125.69631979 28.63742273 120.73919678 28.64094543 C112.41601204 28.64364668 104.09297158 28.63017839 95.76982117 28.60699463 C86.14717246 28.58037671 76.52476484 28.57864089 66.90209192 28.59038299 C57.64361546 28.60116137 48.38522621 28.59497379 39.12675667 28.58082771 C35.18706259 28.57506932 31.24743236 28.57514943 27.30773735 28.57989311 C22.66933327 28.5846648 18.03119328 28.57455324 13.39283943 28.55293846 C11.69047054 28.54737337 9.98807625 28.54690276 8.28570557 28.55189133 C5.9622007 28.55784629 3.63950274 28.54533579 1.31607056 28.52812195 C0.01583922 28.52569205 -1.28439211 28.52326216 -2.62402439 28.52075863 C-7.28251479 27.99633377 -9.79469358 26.15230037 -13.31489563 23.20294189 C-15.99955795 18.33077695 -15.97654657 13.56273793 -15.00239563 8.14044189 C-11.24366702 1.39077374 -7.48843564 0.0169826 0 0 Z " fill="#000000" transform="translate(209.0023956298828,313.85955810546875)"/>
<path d="M0 0 C1.23685547 -0.020625 2.47371094 -0.04125 3.74804688 -0.0625 C5.53758789 -0.07023437 5.53758789 -0.07023437 7.36328125 -0.078125 C9.0016394 -0.09214355 9.0016394 -0.09214355 10.6730957 -0.10644531 C15.29350612 0.43990596 18.72622976 2.69647571 21.6875 6.25 C23.41315655 11.42696965 23.56085275 17.01809853 21.5625 22.125 C18.27898342 25.84631879 15.81143194 27.97366282 10.84277344 28.62011719 C7.42835985 28.75234755 4.04137169 28.74598013 0.625 28.6875 C-1.13166992 28.69813477 -1.13166992 28.69813477 -2.92382812 28.70898438 C-10.11632983 28.6556458 -14.01529548 28.0125227 -19.625 23.3125 C-22.30966232 18.44033505 -22.28665094 13.67229604 -21.3125 8.25 C-16.21737799 -0.89947215 -9.55121105 0.03944744 0 0 Z " fill="#000000" transform="translate(143.3125,425.75)"/>
<path d="M0 0 C1.23685547 -0.020625 2.47371094 -0.04125 3.74804688 -0.0625 C5.53758789 -0.07023437 5.53758789 -0.07023437 7.36328125 -0.078125 C9.0016394 -0.09214355 9.0016394 -0.09214355 10.6730957 -0.10644531 C15.29350612 0.43990596 18.72622976 2.69647571 21.6875 6.25 C23.41315655 11.42696965 23.56085275 17.01809853 21.5625 22.125 C18.27898342 25.84631879 15.81143194 27.97366282 10.84277344 28.62011719 C7.42835985 28.75234755 4.04137169 28.74598013 0.625 28.6875 C-1.13166992 28.69813477 -1.13166992 28.69813477 -2.92382812 28.70898438 C-10.11632983 28.6556458 -14.01529548 28.0125227 -19.625 23.3125 C-22.30966232 18.44033505 -22.28665094 13.67229604 -21.3125 8.25 C-16.21737799 -0.89947215 -9.55121105 0.03944744 0 0 Z " fill="#000000" transform="translate(143.3125,369.75)"/>
<path d="M0 0 C1.23685547 -0.020625 2.47371094 -0.04125 3.74804688 -0.0625 C5.53758789 -0.07023437 5.53758789 -0.07023437 7.36328125 -0.078125 C9.0016394 -0.09214355 9.0016394 -0.09214355 10.6730957 -0.10644531 C15.29350612 0.43990596 18.72622976 2.69647571 21.6875 6.25 C23.41315655 11.42696965 23.56085275 17.01809853 21.5625 22.125 C18.27898342 25.84631879 15.81143194 27.97366282 10.84277344 28.62011719 C7.42835985 28.75234755 4.04137169 28.74598013 0.625 28.6875 C-1.13166992 28.69813477 -1.13166992 28.69813477 -2.92382812 28.70898438 C-10.11632983 28.6556458 -14.01529548 28.0125227 -19.625 23.3125 C-22.30966232 18.44033505 -22.28665094 13.67229604 -21.3125 8.25 C-16.21737799 -0.89947215 -9.55121105 0.03944744 0 0 Z " fill="#000000" transform="translate(143.3125,313.75)"/>
</svg>
